<svg width="110" height="110" viewBox="0 0 110 110" fill="none" xmlns="http://www.w3.org/2000/svg">
<path d="M80.486 75.625L34.375 29.514V6.875H6.875V34.375H29.514L75.625 80.486V103.125H103.125V75.625H80.486ZM27.5 27.5H13.75V13.75H27.5V27.5ZM96.25 96.25H82.5V82.5H96.25V96.25Z" fill="#1D4BEF"/>
<path d="M103.125 20.625C103.132 17.281 101.918 14.0494 99.7102 11.5376C97.5026 9.02583 94.4537 7.40672 91.1364 6.98456C87.8191 6.5624 84.4618 7.36625 81.6955 9.24505C78.9291 11.1238 76.9441 13.9482 76.1135 17.1875H44.6875V24.0625H76.1135C76.7294 26.4257 77.9645 28.5818 79.6913 30.3087C81.4182 32.0355 83.5743 33.2706 85.9375 33.8865V65.3125H92.8125V33.8865C95.7565 33.1287 98.3661 31.4157 100.232 29.0159C102.098 26.6161 103.116 23.665 103.125 20.625ZM89.375 27.5C88.0153 27.5 86.686 27.0968 85.5555 26.3414C84.4249 25.5859 83.5437 24.5122 83.0233 23.2559C82.503 21.9997 82.3668 20.6174 82.6321 19.2838C82.8974 17.9501 83.5522 16.7251 84.5136 15.7636C85.4751 14.8022 86.7001 14.1474 88.0338 13.8821C89.3674 13.6168 90.7497 13.753 92.006 14.2733C93.2622 14.7937 94.3359 15.6749 95.0914 16.8055C95.8468 17.936 96.25 19.2653 96.25 20.625C96.2479 22.4477 95.5229 24.1952 94.234 25.484C92.9452 26.7729 91.1977 27.4979 89.375 27.5Z" fill="#1D4BEF"/>
<path d="M65.3125 85.9375H33.8865C33.2706 83.5743 32.0355 81.4182 30.3087 79.6913C28.5818 77.9645 26.4257 76.7294 24.0625 76.1135V44.6875H17.1875V76.1135C14.8424 76.7149 12.6981 77.9261 10.9724 79.6241C9.24672 81.3222 8.00105 83.4466 7.36186 85.7817C6.72268 88.1168 6.71273 90.5795 7.33304 92.9197C7.95335 95.2599 9.18183 97.3943 10.8938 99.1062C12.6057 100.818 14.7401 102.047 17.0803 102.667C19.4205 103.287 21.8832 103.277 24.2183 102.638C26.5534 101.999 28.6778 100.753 30.3759 99.0276C32.0739 97.3019 33.2851 95.1576 33.8865 92.8125H65.3125V85.9375ZM20.625 96.25C19.2653 96.25 17.936 95.8468 16.8055 95.0913C15.6749 94.3359 14.7937 93.2622 14.2733 92.0059C13.753 90.7497 13.6168 89.3674 13.8821 88.0337C14.1474 86.7001 14.8022 85.4751 15.7636 84.5136C16.7251 83.5521 17.9501 82.8974 19.2838 82.6321C20.6174 82.3668 21.9997 82.503 23.2559 83.0233C24.5122 83.5437 25.5859 84.4249 26.3414 85.5554C27.0968 86.686 27.5 88.0153 27.5 89.375C27.4979 91.1977 26.7729 92.9452 25.484 94.234C24.1952 95.5229 22.4477 96.2479 20.625 96.25Z" fill="#1D4BEF"/>
</svg>
