<svg width="150" height="150" viewBox="0 0 150 150" fill="none" xmlns="http://www.w3.org/2000/svg">
<path d="M70.3125 80.5308L58.1719 68.3902L51.5625 74.9996L70.3125 93.7496L103.125 60.9371L96.5156 54.3277L70.3125 80.5308Z" fill="#1D4BEF"/>
<path d="M140.625 70.3125H131.012C129.889 57.0767 124.121 44.6645 114.728 35.2717C105.336 25.8789 92.9233 20.1109 79.6875 18.9881V9.375H70.3125V18.9881C57.0767 20.1109 44.6645 25.8789 35.2717 35.2717C25.8789 44.6645 20.1109 57.0767 18.9881 70.3125H9.375V79.6875H18.9881C20.1109 92.9233 25.8789 105.336 35.2717 114.728C44.6645 124.121 57.0767 129.889 70.3125 131.012V140.625H79.6875V131.012C92.9233 129.889 105.336 124.121 114.728 114.728C124.121 105.336 129.889 92.9233 131.012 79.6875H140.625V70.3125ZM79.6875 121.637V107.812H70.3125V121.637C59.5604 120.541 49.5155 115.769 41.8732 108.127C34.2309 100.484 29.4591 90.4396 28.3631 79.6875H42.1875V70.3125H28.3631C29.4591 59.5604 34.2309 49.5155 41.8732 41.8732C49.5155 34.2309 59.5604 29.4591 70.3125 28.3631V42.1875H79.6875V28.3631C90.4396 29.4591 100.484 34.2309 108.127 41.8732C115.769 49.5155 120.541 59.5604 121.637 70.3125H107.812V79.6875H121.636C120.54 90.4395 115.768 100.484 108.126 108.127C100.484 115.769 90.4395 120.541 79.6875 121.637Z" fill="#1D4BEF"/>
</svg>
