<svg width="110" height="110" viewBox="0 0 110 110" fill="none" xmlns="http://www.w3.org/2000/svg">
<path d="M51.5625 59.0562L42.6594 50.1531L37.8125 54.9999L51.5625 68.7499L75.625 44.6874L70.7781 39.8406L51.5625 59.0562Z" fill="#1D4BEF"/>
<path d="M103.125 51.5627H96.0754C95.252 41.8565 91.0221 32.7542 84.1341 25.8661C77.2461 18.9781 68.1438 14.7483 58.4375 13.9249V6.87524H51.5625V13.9249C41.8562 14.7483 32.7539 18.9781 25.8659 25.8661C18.9779 32.7542 14.748 41.8565 13.9246 51.5627H6.875V58.4377H13.9246C14.748 68.144 18.9779 77.2463 25.8659 84.1343C32.7539 91.0224 41.8562 95.2522 51.5625 96.0756V103.125H58.4375V96.0756C68.1438 95.2522 77.2461 91.0224 84.1341 84.1343C91.0221 77.2463 95.252 68.144 96.0754 58.4377H103.125V51.5627ZM58.4375 89.2006V79.0627H51.5625V89.2006C43.6776 88.3969 36.3114 84.8976 30.707 79.2932C25.1027 73.6888 21.6034 66.3226 20.7996 58.4377H30.9375V51.5627H20.7996C21.6034 43.6778 25.1027 36.3116 30.707 30.7073C36.3114 25.1029 43.6776 21.6036 51.5625 20.7999V30.9377H58.4375V20.7999C66.3224 21.6036 73.6886 25.1029 79.293 30.7073C84.8973 36.3116 88.3966 43.6778 89.2004 51.5627H79.0625V58.4377H89.1997C88.396 66.3226 84.8968 73.6887 79.2926 79.2931C73.6884 84.8974 66.3223 88.3968 58.4375 89.2006Z" fill="#1D4BEF"/>
</svg>
