<svg width="137" height="120" viewBox="0 0 137 120" fill="none" xmlns="http://www.w3.org/2000/svg">
<g clip-path="url(#clip0_401_842)">
<path d="M0.494141 16.2428L2.27144 10.6317L14.8113 14.717L18.2671 17.1288L17.1316 13.1911V0H23.0066V13.1419L21.8711 17.2272L25.2282 14.8154L37.768 10.8285L39.5453 16.3413L27.0055 20.4266L23.0066 20.6235L26.1662 22.9368L33.9172 33.5685L29.1284 37.0139L21.328 26.3823L19.9457 22.6415L18.4646 26.3823L10.763 37.0139L6.07288 33.5685L13.8239 22.9368L17.0822 20.525L13.0833 20.3281L0.494141 16.2428Z" fill="#1D4BEF"/>
<path d="M1.13477 55.8506H5.92359C7.15783 55.8506 8.14522 56.1951 8.83639 56.835C9.52756 57.4749 9.87314 58.3608 9.87314 59.4929C9.87314 60.2804 9.67567 60.9203 9.28071 61.4125C8.88576 61.9047 8.34269 62.2 7.70089 62.3969V62.4954C8.4908 62.6923 9.1326 63.0368 9.6263 63.529C10.12 64.0704 10.3668 64.7595 10.3668 65.7439C10.3668 66.2854 10.2681 66.8268 10.0706 67.319C9.87314 67.8112 9.6263 68.205 9.28071 68.5495C8.93513 68.8941 8.54017 69.1894 8.04648 69.337C7.55278 69.5339 7.05909 69.6324 6.46666 69.6324H1.13477V55.8506ZM5.4299 61.7571C6.12107 61.7571 6.66413 61.6094 7.00972 61.3633C7.35531 61.1172 7.55278 60.625 7.55278 60.0343V59.3453C7.55278 58.7054 7.35531 58.2624 7.00972 58.0163C6.66413 57.7702 6.12107 57.6225 5.4299 57.6225H3.30702V61.8555H5.4299V61.7571ZM5.77549 67.9096C6.51603 67.9096 7.05909 67.762 7.45404 67.4667C7.849 67.1713 8.04648 66.6791 8.04648 65.99V65.301C8.04648 64.6119 7.849 64.1689 7.45404 63.8243C7.05909 63.529 6.51603 63.3813 5.77549 63.3813H3.30702V67.9096H5.77549Z" fill="white"/>
<path d="M17.1797 69.8292C16.3898 69.8292 15.6986 69.6816 15.1062 69.4355C14.4644 69.1894 13.9707 68.8448 13.5263 68.3526C13.082 67.9096 12.7858 67.319 12.5389 66.6791C12.2921 66.0392 12.1934 65.3009 12.1934 64.4642C12.1934 63.6274 12.2921 62.9383 12.5389 62.2492C12.7858 61.6094 13.082 61.0187 13.5263 60.5757C13.9213 60.1328 14.4644 59.739 15.0568 59.4929C15.6492 59.2468 16.291 59.0991 17.0316 59.0991C17.7227 59.0991 18.3645 59.1976 18.957 59.4437C19.5494 59.6898 20.0431 60.0343 20.438 60.4773C20.833 60.9203 21.1786 61.4617 21.3761 62.0524C21.5735 62.643 21.7216 63.3321 21.7216 64.1196V64.9072H14.415V65.2517C14.415 66.0392 14.6618 66.6791 15.1555 67.2205C15.6492 67.7127 16.3404 67.9588 17.229 67.9588C17.8708 67.9588 18.4633 67.8112 18.9076 67.5159C19.3519 67.2205 19.7469 66.876 20.0431 66.3838L21.3761 67.5651C21.0305 68.1557 20.4874 68.6479 19.7962 69.0417C19.1544 69.6323 18.2658 69.8292 17.1797 69.8292ZM17.0316 60.8218C16.6366 60.8218 16.291 60.8711 15.9948 61.0187C15.6492 61.1664 15.4024 61.3141 15.1555 61.5602C14.9087 61.8063 14.7606 62.1016 14.6125 62.3969C14.4644 62.7414 14.415 63.086 14.415 63.4798V63.6274H19.5494V63.4305C19.5494 62.643 19.3025 62.0031 18.8582 61.5109C18.4139 61.0679 17.7721 60.8218 17.0316 60.8218Z" fill="white"/>
<path d="M29.1278 69.5834C28.2391 69.5834 27.5973 69.3373 27.153 68.845C26.7087 68.3528 26.5112 67.7622 26.5112 66.9747V61.1174H23.3516V59.3455H25.5732C25.9681 59.3455 26.215 59.247 26.3631 59.0994C26.5112 58.9517 26.6099 58.6564 26.6099 58.2626V55.7031H28.6341V59.2962H32.9786V61.0682H28.6341V67.713H32.9786V69.4849H29.1278V69.5834Z" fill="white"/>
<path d="M40.6805 69.5834C39.7919 69.5834 39.1501 69.3373 38.7057 68.845C38.2614 68.3528 38.0639 67.7622 38.0639 66.9747V61.1174H34.9043V59.3455H37.1259C37.5209 59.3455 37.7677 59.247 37.9158 59.0994C38.0639 58.9517 38.1627 58.6564 38.1627 58.2626V55.7031H40.1868V59.2962H44.5313V61.0682H40.1868V67.713H44.5313V69.4849H40.6805V69.5834Z" fill="white"/>
<path d="M51.8379 69.8292C51.048 69.8292 50.3568 69.6816 49.7644 69.4355C49.1226 69.1894 48.6289 68.8448 48.1845 68.3526C47.7402 67.9096 47.444 67.319 47.1971 66.6791C46.9503 66.0392 46.8516 65.3009 46.8516 64.4642C46.8516 63.6274 46.9503 62.9383 47.1971 62.2492C47.444 61.6094 47.7402 61.0187 48.1845 60.5757C48.5795 60.1328 49.1226 59.739 49.715 59.4929C50.3074 59.2468 50.9492 59.0991 51.6898 59.0991C52.3809 59.0991 53.0227 59.1976 53.6152 59.4437C54.2076 59.6898 54.7013 60.0343 55.0962 60.4773C55.4912 60.9203 55.8368 61.4617 56.0343 62.0524C56.2317 62.643 56.3798 63.3321 56.3798 64.1196V64.9072H49.0732V65.2517C49.0732 66.0392 49.32 66.6791 49.8137 67.2205C50.3074 67.7127 50.9986 67.9588 51.8872 67.9588C52.529 67.9588 53.1215 67.8112 53.5658 67.5159C54.0101 67.2205 54.4051 66.876 54.7013 66.3838L56.0343 67.5651C55.6887 68.1557 55.1456 68.6479 54.4544 69.0417C53.8126 69.6323 52.924 69.8292 51.8379 69.8292ZM51.6898 60.8218C51.2948 60.8218 50.9492 60.8711 50.653 61.0187C50.3074 61.1664 50.0606 61.3141 49.8137 61.5602C49.5669 61.8063 49.4188 62.1016 49.2707 62.3969C49.1226 62.7414 49.0732 63.086 49.0732 63.4798V63.6274H54.2076V63.4305C54.2076 62.643 53.9608 62.0031 53.5164 61.5109C53.0721 61.0679 52.4303 60.8218 51.6898 60.8218Z" fill="white"/>
<path d="M58.75 67.8113H61.4653V61.1665H58.75V59.3945H63.5882V62.1017H63.6869C63.7857 61.7571 63.9338 61.4126 64.0819 61.068C64.23 60.7235 64.4768 60.4774 64.7237 60.2313C64.9705 59.9852 65.3161 59.7883 65.7111 59.6406C66.106 59.493 66.5504 59.3945 67.0441 59.3945H68.2783V61.4618H66.2541C65.4642 61.4618 64.8224 61.7079 64.3287 62.1509C63.835 62.5939 63.5882 63.2337 63.5882 64.0213V67.8113H67.2909V69.5832H58.75V67.8113Z" fill="white"/>
<path d="M70.4986 55.0139H72.6708V61.1665H72.7696C72.8683 60.9204 73.0164 60.6743 73.1645 60.4282C73.3126 60.1821 73.5101 59.9852 73.757 59.7883C74.0038 59.5914 74.2507 59.493 74.5963 59.3453C74.8925 59.2469 75.2874 59.1977 75.6824 59.1977C76.7191 59.1977 77.5584 59.5422 78.1508 60.1821C78.7926 60.8712 79.0889 61.8064 79.0889 63.0369V69.5832H76.9166V63.3814C76.9166 61.7571 76.2254 60.9696 74.7937 60.9696C74.4975 60.9696 74.2507 61.0188 74.0038 61.0681C73.757 61.1173 73.5101 61.2649 73.3126 61.4126C73.1152 61.5603 72.9177 61.7571 72.819 61.954C72.6708 62.2001 72.6215 62.4462 72.6215 62.7416V69.6325H70.4492V55.0139H70.4986Z" fill="white"/>
<path d="M90.0989 69.5832C89.4571 69.5832 89.0128 69.4356 88.7166 69.091C88.4204 68.7957 88.2229 68.3527 88.1735 67.8605H88.0748C87.8773 68.5004 87.5317 68.9433 86.9887 69.2879C86.4456 69.6324 85.8038 69.7801 85.0139 69.7801C83.9771 69.7801 83.1379 69.4848 82.5454 68.9433C81.9036 68.4019 81.6074 67.6636 81.6074 66.6792C81.6074 65.6948 81.953 64.9565 82.6935 64.415C83.4341 63.8736 84.5696 63.6275 86.0507 63.6275H88.0254V62.84C88.0254 61.4618 87.2849 60.7727 85.8532 60.7727C85.2114 60.7727 84.6683 60.9204 84.2734 61.1665C83.8784 61.4126 83.5328 61.7571 83.2366 62.2001L81.953 61.1665C82.2492 60.6251 82.7429 60.1329 83.4341 59.7391C84.1253 59.3453 85.0139 59.1484 86.1 59.1484C87.3836 59.1484 88.4204 59.4438 89.1609 60.0836C89.9015 60.7235 90.2471 61.6095 90.2471 62.7415V67.8605H91.5307V69.534H90.0989V69.5832ZM85.6063 68.2543C86.2975 68.2543 86.8899 68.1066 87.3343 67.7621C87.7786 67.4667 88.0254 67.0237 88.0254 66.5315V65.0549H86.1C84.5696 65.0549 83.7797 65.4979 83.7797 66.4331V66.8269C83.7797 67.2698 83.9278 67.6144 84.2734 67.8605C84.5696 68.1558 85.0139 68.2543 85.6063 68.2543Z" fill="white"/>
<path d="M93.6035 69.5833V59.4439H95.7758V61.1666H95.8745C95.9732 60.9205 96.1213 60.6744 96.2695 60.4283C96.4176 60.1822 96.615 59.9853 96.8619 59.7884C97.1087 59.5915 97.3556 59.4931 97.7012 59.3454C97.9974 59.247 98.3923 59.1978 98.7873 59.1978C99.8241 59.1978 100.663 59.5423 101.256 60.1822C101.898 60.8713 102.194 61.8064 102.194 63.037V69.5833H100.022V63.3815C100.022 61.7572 99.3304 60.9697 97.8986 60.9697C97.6024 60.9697 97.3556 61.0189 97.1087 61.0681C96.8619 61.1174 96.615 61.265 96.4176 61.4127C96.2201 61.5603 96.0226 61.7572 95.9239 61.9541C95.7758 62.2002 95.7264 62.4463 95.7264 62.7416V69.6325H93.6035V69.5833Z" fill="white"/>
<path d="M111.625 67.8605H111.526C111.23 68.5004 110.835 68.9434 110.341 69.2879C109.848 69.6325 109.206 69.8293 108.465 69.8293C107.28 69.8293 106.293 69.3864 105.602 68.5004C104.911 67.6144 104.516 66.2855 104.516 64.5135C104.516 62.7416 104.861 61.4126 105.602 60.5266C106.293 59.6407 107.28 59.1977 108.465 59.1977C109.206 59.1977 109.848 59.3946 110.341 59.7391C110.835 60.0836 111.23 60.5759 111.526 61.1665H111.625V55.0139H113.797V69.5832H111.625V67.8605ZM109.304 68.0574C109.601 68.0574 109.897 68.0082 110.193 67.959C110.489 67.8605 110.736 67.7621 110.934 67.6144C111.131 67.4668 111.329 67.2699 111.427 67.0238C111.575 66.7777 111.625 66.5316 111.625 66.187V62.7908C111.625 62.4955 111.575 62.2001 111.427 61.954C111.279 61.7079 111.131 61.511 110.934 61.3634C110.736 61.2157 110.489 61.0681 110.193 61.0188C109.897 60.9204 109.601 60.9204 109.304 60.9204C108.465 60.9204 107.873 61.1665 107.428 61.6587C106.984 62.1509 106.787 62.84 106.787 63.6275V65.301C106.787 66.1378 106.984 66.7777 107.428 67.2699C107.873 67.8113 108.465 68.0574 109.304 68.0574Z" fill="white"/>
<path d="M1.18555 92.7169V78.9844H10.072V80.8548H3.40717V84.8416H9.43023V86.712H3.40717V92.7662H1.18555V92.7169Z" fill="white"/>
<path d="M13.0332 90.9449H16.4891V84.3001H13.0332V82.5282H18.6613V90.9449H21.9197V92.7169H13.0332V90.9449ZM17.6246 80.707C17.0815 80.707 16.6865 80.6086 16.4891 80.3625C16.2916 80.1164 16.1435 79.8703 16.1435 79.5257V79.132C16.1435 78.7874 16.2422 78.5413 16.4891 78.2952C16.7359 78.0491 17.0815 77.9507 17.6246 77.9507C18.1676 77.9507 18.5626 78.0491 18.7601 78.2952C18.9575 78.5413 19.1056 78.7874 19.1056 79.132V79.5257C19.1056 79.8703 19.0069 80.1164 18.7601 80.3625C18.5132 80.6086 18.1676 80.707 17.6246 80.707Z" fill="white"/>
<path d="M24.2891 92.7169V82.5774H26.4613V84.3001H26.5601C26.6588 84.054 26.8069 83.8079 26.955 83.5618C27.1031 83.3157 27.3006 83.1188 27.5474 82.9219C27.7943 82.7251 28.0411 82.6266 28.3867 82.479C28.6829 82.3805 29.0779 82.3313 29.4728 82.3313C30.5096 82.3313 31.3489 82.6758 31.9413 83.3157C32.5831 84.0048 32.8793 84.94 32.8793 86.1705V92.7169H30.7071V86.5151C30.7071 84.8908 30.0159 84.1032 28.5842 84.1032C28.288 84.1032 28.0411 84.1525 27.7943 84.2017C27.5474 84.2509 27.3006 84.3986 27.1031 84.5462C26.9056 84.6939 26.7082 84.8908 26.6094 85.0877C26.4613 85.3338 26.4119 85.5799 26.4119 85.8752V92.7661H24.2891V92.7169Z" fill="white"/>
<path d="M43.89 92.717C43.2482 92.717 42.8038 92.5693 42.5076 92.2248C42.2114 91.9295 42.0139 91.4865 41.9646 90.9943H41.8658C41.6684 91.6342 41.3228 92.0771 40.7797 92.4217C40.2366 92.7662 39.5948 92.9139 38.8049 92.9139C37.7682 92.9139 36.9289 92.6186 36.3365 92.0771C35.6947 91.5357 35.3984 90.7974 35.3984 89.813C35.3984 88.8286 35.744 88.0903 36.4846 87.5488C37.2251 87.0074 38.3606 86.7613 39.8417 86.7613H41.8165V85.9738C41.8165 84.5956 41.0759 83.9065 39.6442 83.9065C39.0024 83.9065 38.4593 84.0542 38.0644 84.3003C37.6694 84.5464 37.3238 84.8909 37.0276 85.3339L35.744 84.3003C36.0402 83.7588 36.5339 83.2666 37.2251 82.8729C37.9163 82.4791 38.8049 82.2822 39.8911 82.2822C41.1747 82.2822 42.2114 82.5775 42.952 83.2174C43.6925 83.8573 44.0381 84.7433 44.0381 85.8753V90.9943H45.3217V92.6678H43.89V92.717ZM39.3974 91.3881C40.0885 91.3881 40.681 91.2404 41.1253 90.8958C41.5696 90.6005 41.8165 90.1575 41.8165 89.6653V88.1887H39.8911C38.3606 88.1887 37.5707 88.6317 37.5707 89.5669V89.9606C37.5707 90.4036 37.7188 90.7482 38.0644 90.9943C38.41 91.2404 38.8049 91.3881 39.3974 91.3881Z" fill="white"/>
<path d="M47.3945 92.7169V82.5774H49.5668V84.3001H49.6655C49.7643 84.054 49.9124 83.8079 50.0605 83.5618C50.2086 83.3157 50.4061 83.1188 50.6529 82.9219C50.8998 82.7251 51.1466 82.6266 51.4922 82.479C51.7884 82.3805 52.1834 82.3313 52.5783 82.3313C53.6151 82.3313 54.4544 82.6758 55.0468 83.3157C55.6886 84.0048 55.9848 84.94 55.9848 86.1705V92.7169H53.8126V86.5151C53.8126 84.8908 53.1214 84.1032 51.6897 84.1032C51.3935 84.1032 51.1466 84.1525 50.8998 84.2017C50.6529 84.2509 50.4061 84.3986 50.2086 84.5462C50.0111 84.6939 49.8136 84.8908 49.7149 85.0877C49.5668 85.3338 49.5174 85.5799 49.5174 85.8752V92.7661H47.3945V92.7169Z" fill="white"/>
<path d="M63.5882 92.963C62.8477 92.963 62.1565 92.8154 61.5641 92.5693C60.9716 92.3231 60.4779 91.9786 60.0336 91.4864C59.5893 90.9942 59.2931 90.4528 59.0956 89.8129C58.8981 89.173 58.75 88.4347 58.75 87.598C58.75 86.7612 58.8487 86.0721 59.0956 85.383C59.2931 84.7432 59.6386 84.1525 60.0336 83.7095C60.4286 83.2665 60.9716 82.8728 61.5641 82.6267C62.1565 82.3806 62.8477 82.2329 63.5882 82.2329C64.625 82.2329 65.4642 82.4298 66.106 82.8728C66.7478 83.3158 67.2415 83.9064 67.5378 84.5955L65.8592 85.4815C65.6617 84.9893 65.4149 84.6447 65.0199 84.3494C64.625 84.0541 64.1806 83.9556 63.5882 83.9556C62.7489 83.9556 62.1565 84.2017 61.7122 84.6939C61.2678 85.1862 61.021 85.826 61.021 86.6628V88.3855C61.021 89.173 61.2678 89.8621 61.7122 90.3543C62.1565 90.8465 62.7983 91.0926 63.6376 91.0926C64.2794 91.0926 64.7731 90.945 65.168 90.6496C65.563 90.3543 65.9086 89.9606 66.106 89.4683L67.6859 90.4528C67.3403 91.1419 66.8466 91.7325 66.2048 92.1755C65.5136 92.7169 64.625 92.963 63.5882 92.963Z" fill="white"/>
<path d="M70.7949 90.9449H74.2508V84.3001H70.7949V82.5282H76.423V90.9449H79.6814V92.7169H70.7949V90.9449ZM75.3863 80.707C74.8432 80.707 74.4483 80.6086 74.2508 80.3625C74.0533 80.1164 73.9052 79.8703 73.9052 79.5257V79.132C73.9052 78.7874 74.0039 78.5413 74.2508 78.2952C74.4976 78.0491 74.8432 77.9507 75.3863 77.9507C75.9293 77.9507 76.3243 78.0491 76.5218 78.2952C76.7193 78.5413 76.8674 78.7874 76.8674 79.132V79.5257C76.8674 79.8703 76.7686 80.1164 76.5218 80.3625C76.2749 80.6086 75.9293 80.707 75.3863 80.707Z" fill="white"/>
<path d="M90.0989 92.717C89.4571 92.717 89.0128 92.5693 88.7166 92.2248C88.4204 91.9295 88.2229 91.4865 88.1735 90.9943H88.0748C87.8773 91.6342 87.5317 92.0771 86.9887 92.4217C86.4456 92.7662 85.8038 92.9139 85.0139 92.9139C83.9771 92.9139 83.1379 92.6186 82.5454 92.0771C81.9036 91.5357 81.6074 90.7974 81.6074 89.813C81.6074 88.8286 81.953 88.0903 82.6935 87.5488C83.4341 87.0074 84.5696 86.7613 86.0507 86.7613H88.0254V85.9738C88.0254 84.5956 87.2849 83.9065 85.8532 83.9065C85.2114 83.9065 84.6683 84.0542 84.2734 84.3003C83.8784 84.5464 83.5328 84.8909 83.2366 85.3339L81.953 84.3003C82.2492 83.7588 82.7429 83.2666 83.4341 82.8729C84.1253 82.4791 85.0139 82.2822 86.1 82.2822C87.3836 82.2822 88.4204 82.5775 89.1609 83.2174C89.9015 83.8573 90.2471 84.7433 90.2471 85.8753V90.9943H91.5307V92.6678H90.0989V92.717ZM85.6063 91.3881C86.2975 91.3881 86.8899 91.2404 87.3343 90.8958C87.7786 90.6005 88.0254 90.1575 88.0254 89.6653V88.1887H86.1C84.5696 88.1887 83.7797 88.6317 83.7797 89.5669V89.9606C83.7797 90.4036 83.9278 90.7482 84.2734 90.9943C84.5696 91.2896 85.0139 91.3881 85.6063 91.3881Z" fill="white"/>
<path d="M93.4062 90.945H96.7634V79.8703H93.4062V78.0984H98.9356V90.8958H102.293V92.6677H93.4062V90.945Z" fill="white"/>
<path d="M6.51676 103.939V115.851H4.3445V103.939H0V102.069H10.8613V103.939H6.51676Z" fill="white"/>
<path d="M17.1797 116.097C16.3898 116.097 15.6986 115.949 15.1062 115.703C14.4644 115.457 13.9707 115.112 13.5263 114.62C13.082 114.177 12.7858 113.587 12.5389 112.947C12.2921 112.307 12.1934 111.569 12.1934 110.732C12.1934 109.895 12.2921 109.206 12.5389 108.517C12.7858 107.877 13.082 107.286 13.5263 106.843C13.9213 106.4 14.4644 106.007 15.0568 105.76C15.6492 105.514 16.291 105.367 17.0316 105.367C17.7227 105.367 18.3645 105.465 18.957 105.711C19.5494 105.957 20.0431 106.302 20.438 106.745C20.833 107.188 21.1786 107.729 21.3761 108.32C21.5735 108.911 21.7216 109.6 21.7216 110.387V111.175H14.415V111.519C14.415 112.307 14.6618 112.947 15.1555 113.488C15.6492 113.98 16.3404 114.226 17.229 114.226C17.8708 114.226 18.4633 114.079 18.9076 113.783C19.3519 113.488 19.7469 113.144 20.0431 112.651L21.3761 113.833C21.0305 114.423 20.4874 114.916 19.7962 115.309C19.1544 115.9 18.2658 116.097 17.1797 116.097ZM17.0316 107.089C16.6366 107.089 16.291 107.139 15.9948 107.286C15.6492 107.434 15.4024 107.582 15.1555 107.828C14.9087 108.074 14.7606 108.369 14.6125 108.664C14.4644 109.009 14.415 109.354 14.415 109.747V109.895H19.5494V109.698C19.5494 108.911 19.3025 108.271 18.8582 107.779C18.4139 107.336 17.7721 107.089 17.0316 107.089Z" fill="white"/>
<path d="M28.93 116.097C28.1895 116.097 27.4983 115.949 26.9059 115.703C26.3134 115.457 25.8197 115.112 25.3754 114.62C24.9311 114.128 24.6349 113.587 24.4374 112.947C24.2399 112.307 24.0918 111.569 24.0918 110.732C24.0918 109.895 24.1905 109.206 24.4374 108.517C24.6349 107.877 24.9804 107.286 25.3754 106.843C25.7704 106.4 26.3134 106.007 26.9059 105.76C27.4983 105.514 28.1895 105.367 28.93 105.367C29.9668 105.367 30.806 105.564 31.4478 106.007C32.0896 106.45 32.5833 107.04 32.8795 107.729L31.201 108.615C31.0035 108.123 30.7567 107.779 30.3617 107.483C29.9668 107.188 29.5224 107.089 28.93 107.089C28.0907 107.089 27.4983 107.336 27.054 107.828C26.6096 108.32 26.3628 108.96 26.3628 109.797V111.519C26.3628 112.307 26.6096 112.996 27.054 113.488C27.4983 113.98 28.1401 114.226 28.9794 114.226C29.6212 114.226 30.1149 114.079 30.5098 113.783C30.9048 113.488 31.2504 113.094 31.4478 112.602L33.0277 113.587C32.6821 114.276 32.1884 114.866 31.5466 115.309C30.8554 115.851 29.9668 116.097 28.93 116.097Z" fill="white"/>
<path d="M35.8423 101.281H38.0146V107.434H38.1133C38.2121 107.188 38.3602 106.942 38.5083 106.696C38.6564 106.449 38.8539 106.253 39.1007 106.056C39.3476 105.859 39.5944 105.76 39.94 105.613C40.2362 105.514 40.6312 105.465 41.0261 105.465C42.0629 105.465 42.9022 105.81 43.4946 106.449C44.1364 107.139 44.4326 108.074 44.4326 109.304V115.851H42.2604V109.649C42.2604 108.024 41.5692 107.237 40.1375 107.237C39.8413 107.237 39.5944 107.286 39.3476 107.335C39.1007 107.385 38.8539 107.532 38.6564 107.68C38.4589 107.828 38.2614 108.024 38.1627 108.221C38.0146 108.467 37.9652 108.714 37.9652 109.009V115.9H35.793V101.281H35.8423Z" fill="white"/>
<path d="M47.3945 115.851V105.711H49.5668V107.434H49.6655C49.7643 107.188 49.9124 106.942 50.0605 106.696C50.2086 106.45 50.4061 106.253 50.6529 106.056C50.8998 105.859 51.1466 105.76 51.4922 105.613C51.7884 105.514 52.1834 105.465 52.5783 105.465C53.6151 105.465 54.4544 105.81 55.0468 106.45C55.6886 107.139 55.9848 108.074 55.9848 109.304V115.851H53.8126V109.649C53.8126 108.025 53.1214 107.237 51.6897 107.237C51.3935 107.237 51.1466 107.286 50.8998 107.335C50.6529 107.385 50.4061 107.532 50.2086 107.68C50.0111 107.828 49.8136 108.025 49.7149 108.221C49.5668 108.468 49.5174 108.714 49.5174 109.009V115.9H47.3945V115.851Z" fill="white"/>
<path d="M63.1937 116.097C62.4531 116.097 61.762 115.949 61.1695 115.703C60.5771 115.457 60.0834 115.112 59.6391 114.62C59.2441 114.177 58.8985 113.587 58.7011 112.947C58.4542 112.307 58.3555 111.569 58.3555 110.732C58.3555 109.895 58.4542 109.206 58.7011 108.517C58.9479 107.877 59.2441 107.286 59.6391 106.843C60.034 106.4 60.5771 106.007 61.1695 105.76C61.762 105.514 62.4531 105.367 63.1937 105.367C63.9342 105.367 64.6254 105.514 65.2178 105.76C65.8102 106.007 66.3039 106.351 66.7483 106.843C67.1432 107.286 67.4888 107.877 67.6863 108.517C67.9331 109.157 68.0319 109.895 68.0319 110.732C68.0319 111.569 67.9331 112.258 67.6863 112.947C67.4394 113.587 67.1432 114.177 66.7483 114.62C66.3533 115.063 65.8102 115.457 65.2178 115.703C64.6254 115.949 63.9342 116.097 63.1937 116.097ZM63.1937 114.374C63.9836 114.374 64.6254 114.128 65.0697 113.636C65.514 113.144 65.7609 112.454 65.7609 111.519V109.993C65.7609 109.058 65.514 108.32 65.0697 107.877C64.6254 107.385 63.9836 107.139 63.1937 107.139C62.4038 107.139 61.762 107.385 61.3176 107.877C60.8733 108.369 60.6265 109.058 60.6265 109.993V111.519C60.6265 112.454 60.8733 113.193 61.3176 113.636C61.762 114.177 62.4038 114.374 63.1937 114.374Z" fill="white"/>
<path d="M70.3027 114.079H73.6599V103.004H70.3027V101.232H75.8321V114.03H79.1892V115.801H70.3027V114.079Z" fill="white"/>
<path d="M86.2972 116.097C85.5566 116.097 84.8655 115.949 84.273 115.703C83.6806 115.457 83.1869 115.112 82.7426 114.62C82.2983 114.128 82.002 113.587 81.8046 112.947C81.5577 112.307 81.459 111.569 81.459 110.732C81.459 109.895 81.5577 109.206 81.8046 108.517C82.0514 107.877 82.3476 107.286 82.7426 106.843C83.1375 106.4 83.6806 106.007 84.273 105.76C84.8655 105.514 85.5566 105.367 86.2972 105.367C87.0377 105.367 87.7289 105.514 88.3213 105.76C88.9138 106.007 89.4075 106.351 89.8518 106.843C90.2961 107.336 90.5923 107.877 90.7898 108.517C91.0366 109.157 91.1354 109.895 91.1354 110.732C91.1354 111.569 91.0366 112.258 90.7898 112.947C90.543 113.587 90.2467 114.177 89.8518 114.62C89.4568 115.063 88.9138 115.457 88.3213 115.703C87.7289 115.949 87.0377 116.097 86.2972 116.097ZM86.2972 114.374C87.0871 114.374 87.7289 114.128 88.1732 113.636C88.6176 113.144 88.8644 112.454 88.8644 111.519V109.993C88.8644 109.058 88.6176 108.32 88.1732 107.877C87.7289 107.385 87.0871 107.139 86.2972 107.139C85.5073 107.139 84.8655 107.385 84.4211 107.877C83.9768 108.369 83.73 109.058 83.73 109.993V111.519C83.73 112.454 83.9768 113.193 84.4211 113.636C84.8655 114.177 85.5073 114.374 86.2972 114.374Z" fill="white"/>
<path d="M103.181 116.934C103.181 117.967 102.737 118.755 101.848 119.247C100.96 119.739 99.6267 119.985 97.8 119.985C96.9114 119.985 96.1708 119.936 95.5784 119.838C94.986 119.739 94.4923 119.542 94.0973 119.345C93.7024 119.148 93.4555 118.902 93.3074 118.558C93.1593 118.263 93.0605 117.918 93.0605 117.524C93.0605 116.983 93.2087 116.54 93.5049 116.244C93.8011 115.949 94.2454 115.703 94.8378 115.555V115.358C94.4923 115.211 94.2454 115.063 93.9986 114.817C93.8011 114.571 93.7024 114.276 93.7024 113.882C93.7024 113.39 93.8505 112.996 94.196 112.75C94.5416 112.504 94.986 112.307 95.529 112.159V112.061C94.8872 111.765 94.4429 111.372 94.0973 110.83C93.7517 110.289 93.6036 109.698 93.6036 108.96C93.6036 108.418 93.7023 107.926 93.8998 107.483C94.0973 107.04 94.3935 106.646 94.7391 106.351C95.0847 106.056 95.529 105.81 96.0227 105.613C96.5164 105.465 97.1088 105.367 97.7506 105.367C98.4418 105.367 99.0836 105.465 99.676 105.711V105.367C99.676 104.973 99.7748 104.628 100.022 104.382C100.268 104.136 100.565 103.989 101.058 103.989H102.934V105.662H100.565V106.154C101.009 106.45 101.355 106.843 101.601 107.286C101.848 107.729 101.947 108.271 101.947 108.911C101.947 109.452 101.848 109.944 101.651 110.387C101.453 110.83 101.157 111.224 100.812 111.519C100.466 111.815 100.022 112.061 99.5279 112.208C99.0342 112.356 98.4418 112.454 97.8 112.454C97.3557 112.454 96.9114 112.405 96.5164 112.356C96.2696 112.405 96.0227 112.553 95.8252 112.701C95.5784 112.848 95.4796 113.094 95.4796 113.34C95.4796 113.636 95.6278 113.833 95.924 113.931C96.2202 114.03 96.6151 114.03 97.0595 114.03H99.3305C100.713 114.03 101.7 114.276 102.293 114.817C102.885 115.358 103.181 116.097 103.181 116.934ZM101.157 117.081C101.157 116.737 101.009 116.441 100.762 116.244C100.466 116.048 99.9723 115.949 99.2811 115.949H95.7265C95.2328 116.195 94.986 116.589 94.986 117.081C94.986 117.475 95.1341 117.82 95.4796 118.066C95.8252 118.361 96.3189 118.459 97.1088 118.459H98.6887C99.5279 118.459 100.12 118.361 100.565 118.115C100.96 117.918 101.157 117.524 101.157 117.081ZM97.7506 111.076C98.4418 111.076 98.9849 110.929 99.2811 110.584C99.6267 110.24 99.7748 109.797 99.7748 109.255V108.714C99.7748 108.172 99.6267 107.729 99.2811 107.385C98.9355 107.04 98.4418 106.893 97.7506 106.893C97.0595 106.893 96.5164 107.04 96.2202 107.385C95.924 107.729 95.7265 108.172 95.7265 108.714V109.255C95.7265 109.797 95.8746 110.24 96.2202 110.584C96.5658 110.929 97.0595 111.076 97.7506 111.076Z" fill="white"/>
<path d="M105.453 114.079H108.909V107.434H105.453V105.662H111.081V114.079H114.34V115.851H105.453V114.079ZM110.044 103.841C109.501 103.841 109.106 103.742 108.909 103.496C108.712 103.25 108.563 103.004 108.563 102.66V102.266C108.563 101.921 108.662 101.675 108.909 101.429C109.106 101.183 109.501 101.084 110.044 101.084C110.588 101.084 110.982 101.183 111.18 101.429C111.377 101.675 111.526 101.921 111.526 102.266V102.66C111.526 103.004 111.427 103.25 111.18 103.496C110.933 103.742 110.588 103.841 110.044 103.841Z" fill="white"/>
<path d="M121.152 116.097C120.362 116.097 119.671 115.949 119.079 115.703C118.437 115.457 117.943 115.112 117.499 114.62C117.055 114.128 116.758 113.587 116.512 112.947C116.265 112.307 116.166 111.569 116.166 110.732C116.166 109.895 116.265 109.206 116.512 108.517C116.758 107.877 117.055 107.286 117.499 106.843C117.894 106.4 118.437 106.007 119.029 105.76C119.622 105.514 120.264 105.367 121.004 105.367C121.695 105.367 122.337 105.465 122.93 105.711C123.522 105.957 124.016 106.302 124.411 106.745C124.806 107.188 125.151 107.729 125.349 108.32C125.546 108.96 125.694 109.6 125.694 110.387V111.175H118.388V111.519C118.388 112.307 118.634 112.947 119.128 113.488C119.622 113.98 120.313 114.226 121.202 114.226C121.843 114.226 122.436 114.079 122.88 113.783C123.325 113.488 123.72 113.144 124.016 112.651L125.349 113.833C125.003 114.423 124.46 114.916 123.769 115.309C123.078 115.9 122.238 116.097 121.152 116.097ZM121.004 107.089C120.609 107.089 120.264 107.139 119.967 107.286C119.622 107.434 119.375 107.582 119.128 107.828C118.881 108.074 118.733 108.369 118.585 108.664C118.437 109.009 118.388 109.354 118.388 109.747V109.895H123.522V109.698C123.522 108.911 123.275 108.271 122.831 107.779C122.387 107.336 121.745 107.089 121.004 107.089Z" fill="white"/>
<path d="M132.508 116.097C131.421 116.097 130.434 115.9 129.644 115.555C128.854 115.211 128.212 114.719 127.719 114.128L129.052 112.947C129.496 113.439 129.99 113.783 130.582 114.079C131.125 114.325 131.816 114.473 132.557 114.473C133.248 114.473 133.841 114.374 134.235 114.128C134.68 113.882 134.877 113.537 134.877 113.045C134.877 112.848 134.828 112.651 134.779 112.504C134.68 112.356 134.581 112.258 134.433 112.159C134.285 112.061 134.137 112.011 133.939 111.962C133.742 111.913 133.544 111.864 133.347 111.864L131.718 111.618C131.323 111.568 130.928 111.47 130.533 111.372C130.138 111.273 129.743 111.076 129.447 110.879C129.101 110.683 128.854 110.387 128.657 110.043C128.459 109.698 128.361 109.255 128.361 108.763C128.361 107.729 128.755 106.942 129.545 106.4C130.335 105.859 131.372 105.613 132.705 105.613C133.643 105.613 134.482 105.76 135.174 106.056C135.865 106.351 136.457 106.745 136.901 107.237L135.717 108.517C135.47 108.221 135.075 107.926 134.581 107.68C134.087 107.434 133.446 107.286 132.656 107.286C131.224 107.286 130.483 107.729 130.483 108.664C130.483 109.107 130.632 109.403 130.928 109.55C131.224 109.698 131.619 109.846 132.014 109.895L133.643 110.141C134.038 110.19 134.433 110.289 134.877 110.387C135.272 110.486 135.618 110.633 135.963 110.879C136.309 111.076 136.556 111.372 136.753 111.716C136.951 112.061 137.05 112.504 137.05 112.996C137.05 114.03 136.655 114.817 135.865 115.408C135.025 115.801 133.939 116.097 132.508 116.097Z" fill="white"/>
</g>
<defs>
<clipPath id="clip0_401_842">
<rect width="137" height="120" fill="white"/>
</clipPath>
</defs>
</svg>
