<svg width="85" height="85" viewBox="0 0 85 85" fill="none" xmlns="http://www.w3.org/2000/svg">
<path d="M69.0625 37.1875H63.75V42.5H69.0625C71.1752 42.5023 73.2008 43.3426 74.6947 44.8366C76.1886 46.3305 77.0289 48.356 77.0312 50.4688V61.0938H82.3438V50.4688C82.3397 46.9476 80.9391 43.5718 78.4493 41.082C75.9594 38.5922 72.5837 37.1916 69.0625 37.1875Z" fill="#1D4BEF"/>
<path d="M63.75 10.625C65.3261 10.625 66.8667 11.0924 68.1772 11.968C69.4877 12.8436 70.509 14.0881 71.1122 15.5442C71.7153 17.0003 71.8731 18.6026 71.5656 20.1484C71.2582 21.6942 70.4992 23.1141 69.3848 24.2285C68.2703 25.343 66.8504 26.1019 65.3046 26.4094C63.7588 26.7169 62.1566 26.5591 60.7005 25.9559C59.2444 25.3528 57.9998 24.3314 57.1242 23.021C56.2486 21.7105 55.7812 20.1698 55.7812 18.5938C55.7812 16.4803 56.6208 14.4534 58.1152 12.959C59.6097 11.4646 61.6366 10.625 63.75 10.625ZM63.75 5.3125C61.1232 5.3125 58.5554 6.09143 56.3713 7.55079C54.1872 9.01016 52.485 11.0844 51.4797 13.5112C50.4745 15.9381 50.2115 18.6085 50.7239 21.1848C51.2364 23.7611 52.5013 26.1276 54.3587 27.985C56.2162 29.8424 58.5826 31.1073 61.159 31.6198C63.7353 32.1323 66.4057 31.8693 68.8325 30.864C71.2593 29.8588 73.3336 28.1565 74.793 25.9724C76.2523 23.7883 77.0312 21.2205 77.0312 18.5938C77.0312 15.0713 75.632 11.6932 73.1413 9.20249C70.6505 6.71177 67.2724 5.3125 63.75 5.3125Z" fill="#1D4BEF"/>
<path d="M61.0938 79.6875H55.7812V74.375C55.7789 72.2623 54.9386 70.2367 53.4447 68.7428C51.9508 67.2489 49.9252 66.4086 47.8125 66.4062H37.1875C35.0748 66.4086 33.0492 67.2489 31.5553 68.7428C30.0614 70.2367 29.2211 72.2623 29.2188 74.375V79.6875H23.9062V74.375C23.9104 70.8539 25.311 67.4781 27.8008 64.9883C30.2906 62.4985 33.6664 61.0979 37.1875 61.0938H47.8125C51.3336 61.0979 54.7094 62.4985 57.1992 64.9883C59.689 67.4781 61.0896 70.8539 61.0938 74.375V79.6875Z" fill="#1D4BEF"/>
<path d="M42.5 34.5312C44.0761 34.5312 45.6167 34.9986 46.9272 35.8742C48.2377 36.7498 49.259 37.9944 49.8622 39.4505C50.4653 40.9066 50.6231 42.5088 50.3156 44.0546C50.0082 45.6004 49.2492 47.0203 48.1348 48.1348C47.0203 49.2492 45.6004 50.0082 44.0546 50.3156C42.5088 50.6231 40.9066 50.4653 39.4505 49.8622C37.9944 49.259 36.7498 48.2377 35.8742 46.9272C34.9986 45.6167 34.5312 44.0761 34.5312 42.5C34.5312 40.3866 35.3708 38.3597 36.8652 36.8652C38.3597 35.3708 40.3866 34.5312 42.5 34.5312ZM42.5 29.2188C39.8732 29.2188 37.3054 29.9977 35.1213 31.457C32.9372 32.9164 31.235 34.9907 30.2297 37.4175C29.2245 39.8443 28.9615 42.5147 29.4739 45.091C29.9864 47.6674 31.2513 50.0338 33.1087 51.8913C34.9662 53.7487 37.3326 55.0136 39.909 55.5261C42.4853 56.0385 45.1557 55.7755 47.5825 54.7703C50.0093 53.765 52.0836 52.0628 53.543 49.8787C55.0023 47.6946 55.7812 45.1268 55.7812 42.5C55.7812 38.9776 54.382 35.5995 51.8913 33.1087C49.4005 30.618 46.0224 29.2188 42.5 29.2188Z" fill="#1D4BEF"/>
<path d="M21.25 37.1875H15.9375C12.4164 37.1916 9.04064 38.5923 6.55082 41.0821C4.061 43.5719 2.6604 46.9476 2.65625 50.4688V61.0938H7.96875V50.4688C7.97107 48.356 8.81138 46.3305 10.3053 44.8366C11.7992 43.3426 13.8248 42.5023 15.9375 42.5H21.25V37.1875Z" fill="#1D4BEF"/>
<path d="M21.25 10.625C22.8261 10.625 24.3667 11.0924 25.6772 11.968C26.9877 12.8436 28.009 14.0881 28.6122 15.5442C29.2153 17.0003 29.3731 18.6026 29.0656 20.1484C28.7582 21.6942 27.9992 23.1141 26.8848 24.2285C25.7703 25.343 24.3504 26.1019 22.8046 26.4094C21.2588 26.7169 19.6566 26.5591 18.2005 25.9559C16.7444 25.3528 15.4998 24.3314 14.6242 23.021C13.7486 21.7105 13.2812 20.1698 13.2812 18.5938C13.2812 16.4803 14.1208 14.4534 15.6152 12.959C17.1097 11.4646 19.1366 10.625 21.25 10.625ZM21.25 5.3125C18.6232 5.3125 16.0554 6.09143 13.8713 7.55079C11.6872 9.01016 9.98495 11.0844 8.97972 13.5112C7.9745 15.9381 7.71149 18.6085 8.22395 21.1848C8.73641 23.7611 10.0013 26.1276 11.8587 27.985C13.7162 29.8424 16.0826 31.1073 18.659 31.6198C21.2353 32.1323 23.9057 31.8693 26.3325 30.864C28.7593 29.8588 30.8336 28.1565 32.293 25.9724C33.7523 23.7883 34.5312 21.2205 34.5312 18.5938C34.5312 15.0713 33.132 11.6932 30.6413 9.20249C28.1505 6.71177 24.7724 5.3125 21.25 5.3125Z" fill="#1D4BEF"/>
</svg>
