<svg width="85" height="85" viewBox="0 0 85 85" fill="none" xmlns="http://www.w3.org/2000/svg">
<path d="M42.5 5.3125C35.145 5.3125 27.9552 7.49351 21.8397 11.5797C15.7243 15.6659 10.9579 21.4738 8.14325 28.269C5.32861 35.0641 4.59218 42.5413 6.02706 49.7549C7.46195 56.9686 11.0037 63.5948 16.2045 68.7955C21.4052 73.9963 28.0314 77.5381 35.2451 78.973C42.4588 80.4078 49.9359 79.6714 56.7311 76.8568C63.5262 74.0421 69.3341 69.2757 73.4203 63.1603C77.5065 57.0448 79.6875 49.855 79.6875 42.5C79.6764 32.6407 75.7549 23.1883 68.7833 16.2167C61.8117 9.24513 52.3593 5.32361 42.5 5.3125ZM55.7813 13.5615C58.5941 14.8584 61.2032 16.558 63.5264 18.6068L62.4309 21.25H55.7813V13.5615ZM35.5364 73.585C29.7886 72.3079 24.508 69.4605 20.2825 65.36C16.057 61.2595 13.0525 56.0667 11.6035 50.3598C10.1544 44.6528 10.3177 38.6557 12.0751 33.0361C13.8325 27.4165 17.115 22.3948 21.5573 18.5303L25.1409 23.9062H34.0189L30.0345 34.5312H19.3357L15.6631 45.548L22.4846 55.7812H35.7659L39.5694 61.4855L35.5364 73.585ZM42.5 74.375C41.9597 74.375 41.4333 74.3219 40.8996 74.2953L44.6096 63.1656C44.8676 62.3987 44.9458 61.5828 44.8383 60.7809C44.7309 59.9789 44.4405 59.2124 43.9896 58.5406L40.1862 52.8363C39.7019 52.1076 39.0448 51.5101 38.2736 51.097C37.5023 50.6839 36.6408 50.4681 35.7659 50.4688H25.3268L21.5244 44.7645L23.1644 39.8438H29.2188V45.1562H34.5313V37.6688L42.3308 16.8704L37.3567 15.0052L36.0111 18.5938H27.9841L25.84 15.3773C29.4739 13.109 33.5344 11.6101 37.7706 10.9731C42.0067 10.3362 46.3285 10.5748 50.4688 11.6742V21.25C50.4705 22.6584 51.0308 24.0087 52.0267 25.0046C53.0226 26.0005 54.3728 26.5607 55.7813 26.5625H62.6495C63.3475 26.5645 64.039 26.4279 64.6838 26.1608C65.3287 25.8936 65.9141 25.5012 66.4063 25.0062L66.7797 24.6325L67.5283 22.8262C69.6725 25.5507 71.3572 28.6072 72.5156 31.875H60.0275C58.7717 31.871 57.5554 32.3136 56.5959 33.1238C55.6364 33.934 54.9962 35.0589 54.7897 36.2977L53.2047 45.4389C53.0127 46.5215 53.163 47.6371 53.6349 48.6303C54.1067 49.6234 54.8765 50.4447 55.837 50.9798L61.587 54.868L65.4612 64.5527C62.4962 67.6565 58.9329 70.127 54.9864 71.8152C51.04 73.5034 46.7924 74.3742 42.5 74.375ZM65.9135 51.3817L58.7031 46.5078L58.4375 46.3484L60.0275 37.1875H73.895C75.2865 45.0248 73.6291 53.0975 69.2623 59.7526L65.9135 51.3817Z" fill="#1D4BEF"/>
</svg>
