<svg width="85" height="85" viewBox="0 0 85 85" fill="none" xmlns="http://www.w3.org/2000/svg">
<path d="M61.0938 79.6873H55.7812V74.3748C55.7789 72.2621 54.9386 70.2366 53.4447 68.7426C51.9508 67.2487 49.9252 66.4084 47.8125 66.4061H37.1875C35.0748 66.4084 33.0492 67.2487 31.5553 68.7426C30.0614 70.2366 29.2211 72.2621 29.2188 74.3748V79.6873H23.9062V74.3748C23.9104 70.8537 25.311 67.478 27.8008 64.9881C30.2906 62.4983 33.6664 61.0977 37.1875 61.0936H47.8125C51.3336 61.0977 54.7094 62.4983 57.1992 64.9881C59.689 67.478 61.0896 70.8537 61.0938 74.3748V79.6873Z" fill="#1D4BEF"/>
<path d="M42.5 34.5311C44.0761 34.5311 45.6167 34.9984 46.9272 35.8741C48.2377 36.7497 49.259 37.9942 49.8622 39.4503C50.4653 40.9064 50.6231 42.5087 50.3156 44.0545C50.0082 45.6002 49.2492 47.0201 48.1348 48.1346C47.0203 49.249 45.6004 50.008 44.0546 50.3155C42.5088 50.6229 40.9066 50.4651 39.4505 49.862C37.9944 49.2589 36.7498 48.2375 35.8742 46.927C34.9986 45.6166 34.5312 44.0759 34.5312 42.4998C34.5312 40.3864 35.3708 38.3595 36.8652 36.8651C38.3597 35.3706 40.3866 34.5311 42.5 34.5311ZM42.5 29.2186C39.8732 29.2186 37.3054 29.9975 35.1213 31.4569C32.9372 32.9162 31.235 34.9905 30.2297 37.4173C29.2245 39.8442 28.9615 42.5146 29.4739 45.0909C29.9864 47.6672 31.2513 50.0337 33.1087 51.8911C34.9662 53.7485 37.3326 55.0134 39.909 55.5259C42.4853 56.0383 45.1557 55.7753 47.5825 54.7701C50.0093 53.7649 52.0836 52.0626 53.543 49.8785C55.0023 47.6944 55.7812 45.1266 55.7812 42.4998C55.7812 38.9774 54.382 35.5993 51.8913 33.1086C49.4005 30.6179 46.0224 29.2186 42.5 29.2186Z" fill="#1D4BEF"/>
<path d="M79.6875 79.6873H74.375V38.4196L42.5 11.4483L10.625 38.4196V79.6873H5.3125V37.1873C5.31248 36.8013 5.39659 36.4199 5.55898 36.0697C5.72138 35.7195 5.95815 35.4089 6.25281 35.1595L40.7841 5.9408C41.2637 5.5349 41.8717 5.31216 42.5 5.31216C43.1283 5.31216 43.7363 5.5349 44.2159 5.9408L78.7472 35.1595C79.0419 35.4089 79.2786 35.7195 79.441 36.0697C79.6034 36.4199 79.6875 36.8013 79.6875 37.1873V79.6873Z" fill="#1D4BEF"/>
</svg>
