<svg width="110" height="110" viewBox="0 0 110 110" fill="none" xmlns="http://www.w3.org/2000/svg">
<path d="M89.3746 75.6252C86.9297 75.6199 84.5378 76.3374 82.4996 77.6877L66.7363 61.8752L61.8746 66.7362L77.6871 82.5002C77.0823 83.5819 76.6201 84.7374 76.3121 85.9377H33.8875C33.544 84.7171 33.0125 83.5573 32.3121 82.5002L82.4996 32.3127C84.5378 33.663 86.9297 34.3806 89.3746 34.3752C91.9486 34.3856 94.4739 33.6732 96.663 32.3191C98.8521 30.965 100.617 29.0237 101.757 26.7159C102.898 24.4081 103.367 21.8267 103.112 19.2652C102.858 16.7038 101.889 14.2653 100.317 12.2271C98.7449 10.189 96.6322 8.6331 94.2194 7.73648C91.8065 6.83987 89.1904 6.63854 86.6688 7.15542C84.1472 7.6723 81.8213 8.88662 79.9558 10.6602C78.0902 12.4338 76.76 14.6954 76.1165 17.1877H34.0308C33.2237 14.2436 31.4777 11.6434 29.058 9.78215C26.6383 7.92087 23.6772 6.90021 20.6246 6.87524C16.9779 6.87524 13.4805 8.3239 10.9019 10.9025C8.32326 13.4812 6.8746 16.9785 6.8746 20.6252C6.8746 24.272 8.32326 27.7693 10.9019 30.348C13.4805 32.9266 16.9779 34.3752 20.6246 34.3752C23.0695 34.3807 25.4614 33.6631 27.4996 32.3127L43.2633 48.1252L48.1246 43.2643L32.3121 27.5002C32.9169 26.4186 33.3791 25.2631 33.6871 24.0627H76.112C76.4556 25.2833 76.9869 26.4431 77.6871 27.5002L27.4996 77.6877C25.4614 76.3374 23.0695 75.6198 20.6246 75.6252C18.0506 75.6149 15.5253 76.3273 13.3362 77.6814C11.1471 79.0354 9.382 80.9768 8.24182 83.2846C7.10165 85.5923 6.63216 88.1738 6.88678 90.7352C7.1414 93.2967 8.1099 95.7352 9.68208 97.7733C11.2543 99.8115 13.367 101.367 15.7798 102.264C18.1927 103.161 20.8088 103.362 23.3304 102.845C25.852 102.328 28.1779 101.114 30.0434 99.3403C31.909 97.5667 33.2392 95.3051 33.8827 92.8127H75.9684C76.6038 95.313 77.9279 97.585 79.7901 99.3703C81.6523 101.156 83.978 102.383 86.5028 102.913C89.0276 103.442 91.6504 103.253 94.0731 102.366C96.4958 101.48 98.6212 99.9316 100.208 97.8974C101.795 95.8632 102.779 93.4248 103.049 90.8591C103.319 88.2935 102.864 85.7036 101.735 83.3837C100.607 81.0638 98.8504 79.1069 96.6654 77.7354C94.4803 76.3639 91.9544 75.6328 89.3746 75.6252ZM89.3746 13.7502C90.7343 13.7502 92.0636 14.1535 93.1941 14.9089C94.3247 15.6643 95.2059 16.7381 95.7263 17.9943C96.2466 19.2505 96.3828 20.6329 96.1175 21.9665C95.8522 23.3001 95.1974 24.5251 94.236 25.4866C93.2745 26.4481 92.0495 27.1029 90.7158 27.3681C89.3822 27.6334 87.9999 27.4973 86.7437 26.9769C85.4874 26.4566 84.4137 25.5754 83.6582 24.4448C82.9028 23.3142 82.4996 21.985 82.4996 20.6252C82.5049 18.8035 83.2309 17.0579 84.5191 15.7697C85.8072 14.4815 87.5529 13.7555 89.3746 13.7502ZM20.6246 27.5002C19.2649 27.5002 17.9356 27.097 16.8051 26.3416C15.6745 25.5862 14.7933 24.5124 14.2729 23.2562C13.7526 22 13.6164 20.6176 13.8817 19.284C14.147 17.9504 14.8018 16.7254 15.7632 15.7639C16.7247 14.8024 17.9497 14.1476 19.2834 13.8823C20.617 13.6171 21.9993 13.7532 23.2556 14.2736C24.5118 14.7939 25.5855 15.6751 26.341 16.8057C27.0964 17.9363 27.4996 19.2655 27.4996 20.6252C27.4943 22.447 26.7683 24.1926 25.4802 25.4808C24.192 26.769 22.4463 27.495 20.6246 27.5002ZM20.6246 96.2502C19.2649 96.2502 17.9356 95.847 16.8051 95.0916C15.6745 94.3362 14.7933 93.2624 14.2729 92.0062C13.7526 90.75 13.6164 89.3676 13.8817 88.034C14.147 86.7004 14.8018 85.4754 15.7632 84.5139C16.7247 83.5524 17.9497 82.8976 19.2834 82.6323C20.617 82.3671 21.9993 82.5032 23.2556 83.0236C24.5118 83.5439 25.5855 84.4251 26.341 85.5557C27.0964 86.6863 27.4996 88.0155 27.4996 89.3752C27.4943 91.197 26.7683 92.9426 25.4802 94.2308C24.192 95.519 22.4463 96.245 20.6246 96.2502ZM89.3746 96.2502C88.0149 96.2502 86.6856 95.847 85.5551 95.0916C84.4245 94.3362 83.5433 93.2624 83.0229 92.0062C82.5026 90.75 82.3664 89.3676 82.6317 88.034C82.897 86.7004 83.5518 85.4754 84.5132 84.5139C85.4747 83.5524 86.6997 82.8976 88.0334 82.6323C89.367 82.3671 90.7493 82.5032 92.0056 83.0236C93.2618 83.5439 94.3355 84.4251 95.091 85.5557C95.8464 86.6863 96.2496 88.0155 96.2496 89.3752C96.2443 91.197 95.5183 92.9426 94.2301 94.2308C92.942 95.519 91.1964 96.245 89.3746 96.2502Z" fill="#1D4BEF"/>
</svg>
