<svg width="150" height="150" viewBox="0 0 150 150" fill="none" xmlns="http://www.w3.org/2000/svg">
<path d="M109.754 103.125L46.875 40.2461V9.37466H9.375V46.8747H40.2464L103.125 109.753V140.625H140.625V103.125H109.754ZM37.5 37.4997H18.75V18.7497H37.5V37.4997ZM131.25 131.25H112.5V112.5H131.25V131.25Z" fill="#1D4BEF"/>
<path d="M140.625 28.1247C140.635 23.5646 138.979 19.1579 135.969 15.7328C132.958 12.3076 128.8 10.0997 124.277 9.52407C119.753 8.94839 115.175 10.0445 111.403 12.6065C107.631 15.1685 104.924 19.02 103.791 23.4372H60.9375V32.8122H103.791C104.631 36.0347 106.315 38.9749 108.67 41.3297C111.025 43.6845 113.965 45.3686 117.188 46.2086V89.0621H126.562V46.2086C130.577 45.1752 134.136 42.8393 136.68 39.5668C139.225 36.2943 140.612 32.2701 140.625 28.1247ZM121.875 37.4997C120.021 37.4997 118.208 36.9498 116.667 35.9197C115.125 34.8895 113.923 33.4254 113.214 31.7123C112.504 29.9993 112.318 28.1143 112.68 26.2957C113.042 24.4771 113.935 22.8066 115.246 21.4955C116.557 20.1844 118.227 19.2915 120.046 18.9298C121.865 18.5681 123.75 18.7537 125.463 19.4633C127.176 20.1729 128.64 21.3745 129.67 22.9162C130.7 24.4579 131.25 26.2705 131.25 28.1247C131.247 30.6102 130.259 32.9931 128.501 34.7506C126.743 36.5082 124.361 37.4968 121.875 37.4997Z" fill="#1D4BEF"/>
<path d="M89.0625 117.187H46.2089C45.369 113.965 43.6848 111.024 41.33 108.67C38.9752 106.315 36.035 104.631 32.8125 103.791V60.9372H23.4375V103.791C20.2396 104.611 17.3156 106.262 14.9624 108.578C12.6092 110.894 10.9105 113.79 10.0389 116.975C9.16728 120.159 9.15373 123.517 9.99961 126.708C10.8455 129.9 12.5207 132.81 14.8551 135.145C17.1896 137.479 20.1001 139.154 23.2913 140C26.4825 140.846 29.8407 140.832 33.025 139.961C36.2092 139.089 39.1062 137.39 41.4217 135.037C43.7372 132.684 45.3888 129.76 46.2089 126.562H89.0625V117.187ZM28.125 131.25C26.2708 131.25 24.4582 130.7 22.9165 129.67C21.3748 128.64 20.1732 127.175 19.4636 125.462C18.7541 123.749 18.5684 121.864 18.9301 120.046C19.2919 118.227 20.1848 116.557 21.4959 115.246C22.807 113.934 24.4775 113.042 26.296 112.68C28.1146 112.318 29.9996 112.504 31.7127 113.213C33.4257 113.923 34.8899 115.124 35.92 116.666C36.9502 118.208 37.5 120.02 37.5 121.875C37.4971 124.36 36.5085 126.743 34.751 128.501C32.9934 130.258 30.6105 131.247 28.125 131.25Z" fill="#1D4BEF"/>
</svg>
