<svg width="150" height="150" viewBox="0 0 150 150" fill="none" xmlns="http://www.w3.org/2000/svg">
<path d="M93.75 126.562H32.8125C30.3283 126.555 27.948 125.565 26.1914 123.809C24.4349 122.052 23.4448 119.672 23.4375 117.188V56.25H32.8125V117.188H93.75V126.562Z" fill="#1D4BEF"/>
<path d="M109.688 103.125L90.9375 84.375C92.7791 81.5958 93.7577 78.334 93.75 75C93.7354 70.0317 91.7553 65.271 88.2421 61.7579C84.729 58.2447 79.9683 56.2646 75 56.25C71.666 56.2423 68.4042 57.2209 65.625 59.0625L46.875 40.3125V9.375H9.375V46.875H40.3125L59.0625 65.625C57.2209 68.4042 56.2423 71.666 56.25 75C56.2646 79.9683 58.2447 84.729 61.7579 88.2421C65.271 91.7553 70.0317 93.7354 75 93.75C78.334 93.7577 81.5958 92.7791 84.375 90.9375L103.125 109.688V140.625H140.625V103.125H109.688ZM37.5 37.5H18.75V18.75H37.5V37.5ZM75 84.375C73.1458 84.375 71.3332 83.8252 69.7915 82.795C68.2498 81.7649 67.0482 80.3007 66.3386 78.5877C65.6291 76.8746 65.4434 74.9896 65.8051 73.171C66.1669 71.3525 67.0598 69.682 68.3709 68.3709C69.682 67.0598 71.3525 66.1669 73.171 65.8051C74.9896 65.4434 76.8746 65.6291 78.5877 66.3386C80.3007 67.0482 81.7649 68.2498 82.795 69.7915C83.8252 71.3332 84.375 73.1458 84.375 75C84.3677 77.4842 83.3776 79.8645 81.6211 81.6211C79.8645 83.3776 77.4842 84.3677 75 84.375ZM131.25 131.25H112.5V112.5H131.25V131.25Z" fill="#1D4BEF"/>
<path d="M117.188 93.75H126.562V32.8125C126.555 30.3283 125.565 27.948 123.809 26.1914C122.052 24.4349 119.672 23.4448 117.188 23.4375H56.25V32.8125H117.188V93.75Z" fill="#1D4BEF"/>
</svg>
