<svg width="110" height="110" viewBox="0 0 110 110" fill="none" xmlns="http://www.w3.org/2000/svg">
<path d="M68.75 92.8127H24.0625C22.2408 92.8074 20.4952 92.0814 19.2071 90.7932C17.9189 89.505 17.1929 87.7595 17.1875 85.9377V41.2502H24.0625V85.9377H68.75V92.8127Z" fill="#1D4BEF"/>
<path d="M80.4375 75.6252L66.6875 61.8752C68.038 59.8372 68.7556 57.4452 68.75 55.0002C68.7393 51.3568 67.2872 47.8657 64.7109 45.2893C62.1346 42.713 58.6434 41.2609 55 41.2502C52.5551 41.2446 50.1631 41.9622 48.125 43.3127L34.375 29.5627V6.87524H6.875V34.3752H29.5625L43.3125 48.1252C41.962 50.1633 41.2444 52.5553 41.25 55.0002C41.2607 58.6437 42.7128 62.1348 45.2891 64.7111C47.8654 67.2874 51.3566 68.7395 55 68.7502C57.4449 68.7559 59.8369 68.0383 61.875 66.6877L75.625 80.4377V103.125H103.125V75.6252H80.4375ZM27.5 27.5002H13.75V13.7502H27.5V27.5002ZM55 61.8752C53.6403 61.8752 52.311 61.472 51.1805 60.7166C50.0499 59.9612 49.1687 58.8874 48.6483 57.6312C48.128 56.375 47.9918 54.9926 48.2571 53.659C48.5224 52.3254 49.1772 51.1004 50.1386 50.1389C51.1001 49.1774 52.3251 48.5226 53.6588 48.2573C54.9924 47.9921 56.3747 48.1282 57.631 48.6486C58.8872 49.1689 59.9609 50.0501 60.7164 51.1807C61.4718 52.3113 61.875 53.6405 61.875 55.0002C61.8696 56.822 61.1436 58.5675 59.8554 59.8557C58.5673 61.1438 56.8217 61.8699 55 61.8752ZM96.25 96.2502H82.5V82.5002H96.25V96.2502Z" fill="#1D4BEF"/>
<path d="M85.9375 68.7502H92.8125V24.0627C92.8072 22.241 92.0811 20.4955 90.793 19.2073C89.5048 17.9191 87.7592 17.1931 85.9375 17.1877H41.25V24.0627H85.9375V68.7502Z" fill="#1D4BEF"/>
</svg>
