<svg width="110" height="110" viewBox="0 0 110 110" fill="none" xmlns="http://www.w3.org/2000/svg">
<path d="M76.042 33.9582C74.1081 32.0243 71.4851 30.9378 68.7501 30.9378C66.015 30.9378 63.392 32.0243 61.4581 33.9582L59.8614 35.5546L64.7227 40.4159L66.3194 38.8192C66.9641 38.1746 67.8386 37.8124 68.7503 37.8125C69.662 37.8126 70.5364 38.1748 71.181 38.8195C71.8257 39.4643 72.1878 40.3387 72.1878 41.2504C72.1877 42.1622 71.8255 43.0366 71.1807 43.6812L59.8614 55.0002L64.723 59.8615L76.042 48.5422C77.9759 46.6082 79.0624 43.9852 79.0624 41.2502C79.0624 38.5152 77.9759 35.8922 76.042 33.9582Z" fill="#1D4BEF"/>
<path d="M43.6806 71.1812C43.0359 71.8259 42.1614 72.188 41.2497 72.1879C40.338 72.1879 39.4636 71.8256 38.819 71.1809C38.1743 70.5361 37.8122 69.6617 37.8122 68.75C37.8123 67.8382 38.1746 66.9639 38.8193 66.3192L50.1386 55.0002L45.2773 50.1389L33.958 61.4583C32.9935 62.4143 32.2273 63.5515 31.7035 64.8045C31.1797 66.0574 30.9085 67.4015 30.9055 68.7596C30.9026 70.1176 31.1679 71.4629 31.6862 72.7181C32.2045 73.9734 32.9657 75.1139 33.926 76.0742C34.8863 77.0345 36.0268 77.7957 37.282 78.314C38.5373 78.8323 39.8825 79.0976 41.2406 79.0946C42.5987 79.0917 43.9427 78.8205 45.1957 78.2967C46.4487 77.7728 47.5858 77.0067 48.5419 76.0422L50.1386 74.4458L45.2773 69.5842L43.6806 71.1812Z" fill="#1D4BEF"/>
<path d="M48.542 33.9582C46.6051 32.0383 43.9866 30.9637 41.2594 30.9697C38.5322 30.9756 35.9184 32.0617 33.9899 33.9901C32.0615 35.9185 30.9755 38.5323 30.9695 41.2596C30.9635 43.9868 32.0381 46.6053 33.9581 48.5422L35.5548 50.1389L40.4161 45.2776L38.8194 43.6809C38.5002 43.3617 38.2469 42.9827 38.0742 42.5657C37.9014 42.1486 37.8125 41.7016 37.8125 41.2502C37.8124 40.3385 38.1746 39.4641 38.8192 38.8194C39.4639 38.1747 40.3382 37.8125 41.2499 37.8125C42.1616 37.8124 43.036 38.1746 43.6807 38.8192L55 50.1389L59.8614 45.2772L48.542 33.9582Z" fill="#1D4BEF"/>
<path d="M76.0419 61.4583L74.4452 59.8615L69.5842 64.7228L71.1806 66.3196C71.8253 66.9642 72.1875 67.8386 72.1875 68.7503C72.1876 69.662 71.8254 70.5363 71.1808 71.181C70.5361 71.8257 69.6618 72.188 68.7501 72.188C67.8384 72.188 66.964 71.8259 66.3193 71.1812L54.9999 59.8615L50.1386 64.7228L61.458 76.0422C63.3948 77.9622 66.0134 79.0367 68.7406 79.0308C71.4678 79.0248 74.0816 77.9388 76.01 76.0103C77.9385 74.0819 79.0245 71.4681 79.0305 68.7409C79.0365 66.0137 77.9619 63.3951 76.0419 61.4583Z" fill="#1D4BEF"/>
<path d="M55 106.563C54.3915 106.563 53.7937 106.402 53.2678 106.096L12.0178 82.0337C11.4988 81.7306 11.0683 81.2968 10.7691 80.7756C10.4699 80.2543 10.3125 79.6637 10.3125 79.0627V30.9377C10.3123 30.3369 10.4696 29.7465 10.7689 29.2254C11.0681 28.7044 11.4988 28.271 12.0178 27.9684L53.2678 3.90588C53.7936 3.59917 54.3913 3.43756 55 3.43756C55.6087 3.43756 56.2064 3.59917 56.7322 3.90588L97.9822 27.9684L94.5178 33.907L55 10.8548L17.1875 32.9115V77.0889L55 99.1473L92.8125 77.0889V51.5627H99.6875V79.0627C99.6875 79.6637 99.5301 80.2543 99.2309 80.7756C98.9317 81.2968 98.5012 81.7306 97.9822 82.0337L56.7322 106.096C56.2063 106.402 55.6085 106.563 55 106.563Z" fill="#1D4BEF"/>
</svg>
