<svg width="150" height="150" viewBox="0 0 150 150" fill="none" xmlns="http://www.w3.org/2000/svg">
<path d="M121.875 103.125C118.541 103.118 115.28 104.096 112.5 105.938L91.0047 84.375L84.3752 91.0036L105.938 112.5C105.113 113.975 104.483 115.551 104.063 117.188H46.2109C45.7426 115.523 45.0178 113.941 44.0627 112.5L112.5 44.0625C115.28 45.9038 118.541 46.8823 121.875 46.875C125.385 46.8891 128.829 45.9177 131.814 44.0712C134.799 42.2247 137.206 39.5774 138.761 36.4304C140.316 33.2835 140.956 29.7633 140.609 26.2704C140.261 22.7776 138.941 19.4523 136.797 16.673C134.653 13.8938 131.772 11.7721 128.482 10.5494C125.191 9.32676 121.624 9.05222 118.185 9.75706C114.747 10.4619 111.575 12.1178 109.031 14.5363C106.487 16.9549 104.674 20.0389 103.796 23.4375H46.4064C45.3058 19.4228 42.9248 15.8771 39.6252 13.339C36.3257 10.8008 32.2879 9.40905 28.1252 9.375C23.1524 9.375 18.3832 11.3504 14.8669 14.8667C11.3506 18.3831 9.37517 23.1522 9.37517 28.125C9.37517 33.0978 11.3506 37.8669 14.8669 41.3833C18.3832 44.8996 23.1524 46.875 28.1252 46.875C31.4591 46.8824 34.7208 45.9039 37.5002 44.0625L58.9961 65.625L65.6252 58.9964L44.0627 37.5C44.8874 36.025 45.5177 34.4494 45.9377 32.8125H103.79C104.258 34.477 104.983 36.0584 105.938 37.5L37.5002 105.938C34.7208 104.096 31.4591 103.118 28.1252 103.125C24.6151 103.111 21.1716 104.082 18.1864 105.929C15.2013 107.775 12.7943 110.423 11.2396 113.57C9.68478 116.717 9.04456 120.237 9.39177 123.73C9.73898 127.222 11.0597 130.548 13.2035 133.327C15.3474 136.106 18.2284 138.228 21.5187 139.451C24.8089 140.673 28.3763 140.948 31.8149 140.243C35.2535 139.538 38.4251 137.882 40.969 135.464C43.5129 133.045 45.3268 129.961 46.2044 126.562H103.594C104.46 129.972 106.266 133.07 108.805 135.505C111.345 137.939 114.516 139.613 117.959 140.335C121.402 141.057 124.979 140.799 128.282 139.59C131.586 138.381 134.484 136.27 136.648 133.496C138.811 130.722 140.154 127.397 140.522 123.898C140.89 120.4 140.269 116.868 138.731 113.705C137.192 110.541 134.797 107.873 131.817 106.002C128.837 104.132 125.393 103.135 121.875 103.125ZM121.875 18.75C123.729 18.75 125.542 19.2998 127.084 20.33C128.625 21.3601 129.827 22.8243 130.537 24.5373C131.246 26.2504 131.432 28.1354 131.07 29.954C130.708 31.7725 129.815 33.443 128.504 34.7541C127.193 36.0652 125.523 36.9581 123.704 37.3199C121.886 37.6816 120.001 37.4959 118.288 36.7864C116.574 36.0768 115.11 34.8752 114.08 33.3335C113.05 31.7918 112.5 29.9792 112.5 28.125C112.507 25.6408 113.497 23.2604 115.254 21.5038C117.011 19.7472 119.391 18.7572 121.875 18.75ZM28.1252 37.5C26.271 37.5 24.4584 36.9502 22.9167 35.92C21.375 34.8899 20.1734 33.4257 19.4638 31.7127C18.7542 29.9996 18.5686 28.1146 18.9303 26.296C19.292 24.4775 20.1849 22.807 21.496 21.4959C22.8072 20.1848 24.4776 19.2919 26.2962 18.9301C28.1148 18.5684 29.9998 18.7541 31.7128 19.4636C33.4259 20.1732 34.8901 21.3748 35.9202 22.9165C36.9503 24.4582 37.5002 26.2708 37.5002 28.125C37.493 30.6092 36.503 32.9896 34.7464 34.7462C32.9898 36.5028 30.6094 37.4928 28.1252 37.5ZM28.1252 131.25C26.271 131.25 24.4584 130.7 22.9167 129.67C21.375 128.64 20.1734 127.176 19.4638 125.463C18.7542 123.75 18.5686 121.865 18.9303 120.046C19.292 118.227 20.1849 116.557 21.496 115.246C22.8072 113.935 24.4776 113.042 26.2962 112.68C28.1148 112.318 29.9998 112.504 31.7128 113.214C33.4259 113.923 34.8901 115.125 35.9202 116.667C36.9503 118.208 37.5002 120.021 37.5002 121.875C37.493 124.359 36.503 126.74 34.7464 128.496C32.9898 130.253 30.6094 131.243 28.1252 131.25ZM121.875 131.25C120.021 131.25 118.208 130.7 116.667 129.67C115.125 128.64 113.923 127.176 113.214 125.463C112.504 123.75 112.319 121.865 112.68 120.046C113.042 118.227 113.935 116.557 115.246 115.246C116.557 113.935 118.228 113.042 120.046 112.68C121.865 112.318 123.75 112.504 125.463 113.214C127.176 113.923 128.64 115.125 129.67 116.667C130.7 118.208 131.25 120.021 131.25 121.875C131.243 124.359 130.253 126.74 128.496 128.496C126.74 130.253 124.359 131.243 121.875 131.25Z" fill="#1D4BEF"/>
</svg>
