<svg width="150" height="150" viewBox="0 0 150 150" fill="none" xmlns="http://www.w3.org/2000/svg">
<path d="M103.694 46.3064C101.056 43.6692 97.4796 42.1876 93.7501 42.1876C90.0205 42.1876 86.4437 43.6692 83.8065 46.3064L81.6291 48.4832L88.2582 55.1123L90.4355 52.9349C91.3147 52.0559 92.5071 51.5621 93.7504 51.5622C94.9937 51.5622 96.186 52.0562 97.0651 52.9354C97.9441 53.8146 98.4379 55.007 98.4379 56.2503C98.4378 57.4936 97.9438 58.6859 97.0646 59.5649L81.6291 75L88.2587 81.629L103.694 66.1935C106.331 63.5563 107.812 59.9795 107.812 56.2499C107.812 52.5204 106.331 48.9436 103.694 46.3064Z" fill="#1D4BEF"/>
<path d="M59.5645 97.065C58.6853 97.944 57.4929 98.4378 56.2496 98.4378C55.0063 98.4377 53.814 97.9437 52.9349 97.0645C52.0559 96.1853 51.5621 94.9929 51.5621 93.7496C51.5622 92.5064 52.0562 91.314 52.9354 90.435L68.3709 75L61.7418 68.3709L46.3063 83.8064C44.9911 85.1101 43.9464 86.6608 43.2321 88.3694C42.5178 90.078 42.148 91.9108 42.1439 93.7627C42.1399 95.6146 42.5016 97.4491 43.2084 99.1608C43.9153 100.872 44.9532 102.428 46.2627 103.737C47.5722 105.047 49.1274 106.085 50.8391 106.791C52.5508 107.498 54.3853 107.86 56.2372 107.856C58.0891 107.852 59.9219 107.482 61.6305 106.768C63.3391 106.054 64.8898 105.009 66.1935 103.694L68.3709 101.517L61.7418 94.8872L59.5645 97.065Z" fill="#1D4BEF"/>
<path d="M66.1936 46.3064C63.5525 43.6882 59.9817 42.2229 56.2628 42.231C52.5439 42.2392 48.9796 43.7201 46.3499 46.3498C43.7202 48.9795 42.2393 52.5438 42.2311 56.2627C42.223 59.9816 43.6883 63.5524 46.3065 66.1935L48.4838 68.3709L55.1129 61.7418L52.9355 59.5645C52.5002 59.1292 52.1549 58.6125 51.9193 58.0438C51.6837 57.475 51.5625 56.8655 51.5624 56.2499C51.5624 55.0067 52.0562 53.8143 52.9353 52.9352C53.8144 52.0561 55.0067 51.5621 56.2499 51.5621C57.4931 51.5621 58.6855 52.0559 59.5646 52.935L75.0001 68.3709L81.6291 61.7414L66.1936 46.3064Z" fill="#1D4BEF"/>
<path d="M103.694 83.8064L101.516 81.629L94.8876 88.2581L97.0645 90.4354C97.9436 91.3145 98.4375 92.5068 98.4376 93.75C98.4376 94.9933 97.9438 96.1856 97.0647 97.0647C96.1856 97.9439 94.9933 98.4378 93.7501 98.4378C92.5069 98.4379 91.3145 97.944 90.4354 97.065L74.9999 81.629L68.3709 88.2581L83.8063 103.694C86.4475 106.312 90.0182 107.777 93.7372 107.769C97.4561 107.761 101.02 106.28 103.65 103.65C106.28 101.02 107.761 97.4561 107.769 93.7372C107.777 90.0183 106.312 86.4476 103.694 83.8064Z" fill="#1D4BEF"/>
<path d="M75 145.312C74.1702 145.313 73.355 145.094 72.638 144.676L16.388 111.864C15.6802 111.451 15.0931 110.859 14.6851 110.148C14.2771 109.437 14.0624 108.632 14.0625 107.812V42.1874C14.0622 41.3681 14.2768 40.563 14.6848 39.8525C15.0929 39.142 15.6801 38.551 16.388 38.1384L72.638 5.32587C73.3549 4.90764 74.17 4.68726 75 4.68726C75.83 4.68726 76.6451 4.90764 77.362 5.32587L133.612 38.1384L128.888 46.2365L75 14.8017L23.4375 44.879V105.121L75 135.201L126.562 105.121V70.3124H135.938V107.812C135.938 108.632 135.723 109.437 135.315 110.148C134.907 110.859 134.32 111.451 133.612 111.864L77.362 144.676C76.645 145.094 75.8298 145.313 75 145.312Z" fill="#1D4BEF"/>
</svg>
