<svg width="27" height="23" viewBox="0 0 27 23" fill="none" xmlns="http://www.w3.org/2000/svg">
<g clip-path="url(#clip0_275_4896)">
<path fill-rule="evenodd" clip-rule="evenodd" d="M26.8816 3.59219C22.8553 5.58786 20.8422 7.93274 20.8422 10.6269C22.5583 10.8265 23.9774 11.5333 25.0995 12.7473C26.2216 13.9613 26.7826 15.3666 26.7826 16.9631C26.7826 18.6594 26.2381 20.0897 25.149 21.2538C24.0599 22.4179 22.6903 23 21.0402 23C19.1921 23 17.5915 22.2433 16.2385 20.7299C14.8854 19.2166 14.2088 17.3789 14.2088 15.2169C14.2088 8.73099 17.806 3.65873 25.0005 0L26.8816 3.59219ZM12.6727 3.59219C8.61349 5.58786 6.58389 7.93274 6.58389 10.6269C8.333 10.8265 9.76857 11.5333 10.8906 12.7473C12.0127 13.9613 12.5737 15.3666 12.5737 16.9631C12.5737 18.6594 12.021 20.0897 10.9154 21.2538C9.80982 22.4179 8.43201 23 6.7819 23C4.93378 23 3.34145 22.2433 2.00487 20.7299C0.668283 19.2166 0 17.3789 0 15.2169C0 8.73099 3.58068 3.65873 10.7421 0L12.6727 3.59219Z" fill="#1D4BEF"/>
</g>
<defs>
<clipPath id="clip0_275_4896">
<rect width="27" height="23" fill="white"/>
</clipPath>
</defs>
</svg>
