<svg width="2595" height="1096" viewBox="0 0 2595 1096" fill="none" xmlns="http://www.w3.org/2000/svg">
<path d="M2077.56 785.888C1857.04 961.192 1494.07 981.25 1249.87 831.429C1044.8 706.303 937.591 491.724 754.714 342.883C603.111 219.812 399.668 145.927 192.485 138.693M2096.51 796.709C1877.12 966.206 1520.8 983.489 1278.99 836.721C1076.3 713.624 969.124 503.134 787.455 357.695C755.395 331.928 721.781 308.222 685.827 286.581C650.269 265.279 611.981 246.385 572.946 231.939C541.798 220.518 510.67 211.489 478.766 203.49C446.862 195.49 413.394 188.526 380.308 180.192C348.406 172.535 317.282 163.847 287.354 157.202C257.031 150.218 227.503 144.254 196.819 141.031C136.238 134.579 71.4175 137.722 9.83398 151.436M2115.07 807.186C1896.81 970.878 1546.76 985.731 1307.72 841.326C1107.4 720.256 999.479 514.199 819.409 371.815C784.979 344.695 748.989 318.952 710.664 295.957C672.343 273.304 630.905 253.746 588.738 240.685C555.24 230.303 522.565 224.016 488.317 217.74C454.466 211.803 418.256 205.88 383.199 196.875C349.323 188.204 317.782 176.785 288.22 167.062C258.659 157.339 230.669 147.606 199.575 142.334C140.532 132.114 72.6057 134.984 9.83398 147.681M2134.03 818.008C1916.89 975.894 1573.5 988.313 1336.84 846.619C1138.9 727.918 1030.23 526.296 851.756 386.626C814.953 357.811 776.983 330.37 735.896 306.024C694.812 282.02 650.224 261.797 605.32 250.462C569.477 241.461 534.857 237.578 499.055 233.362C463.253 229.145 424.308 224.948 387.276 214.93C351.034 205.248 319.465 190.753 290.669 178.632C261.869 166.169 235.422 153.009 204.306 145.345C147.196 131.352 73.7909 132.159 9.83398 144.181M2152.59 828.832C1936.59 981.258 1599.85 990.902 1365.57 851.571C1170.01 735.236 1060.59 538.042 884.104 401.08C844.931 370.91 804.978 341.428 761.523 316.069C718.069 290.711 669.937 269.825 621.902 259.875C583.709 251.913 547.145 250.435 509.396 248.281C471.647 246.127 430.355 243.311 390.954 231.94C352.737 221.244 320.751 204.016 292.714 188.813C264.283 173.613 239.768 156.679 208.631 146.623C153.452 128.857 74.9761 128.834 9.83398 140.181M2171.55 839.31C1956.67 985.929 1626.2 993.141 1394.69 856.516C1201.11 742.211 1090.95 549.791 916.452 415.541C874.905 383.674 832.579 352.496 786.755 325.783C740.537 299.073 689.255 277.522 638.09 269.3C597.551 262.719 559.436 263.644 519.737 263.21C480.038 262.777 436.007 261.346 394.634 249.303C354.444 237.593 322.038 217.29 294.369 199.349C266.701 181.409 244.12 161.044 212.176 148.599C158.935 127.743 76.1583 124.667 9.83398 135.681M2190.5 850.133C1976.75 990.945 1652.94 995.381 1423.81 861.465C1232.61 749.529 1121.7 561.543 948.798 430.007C904.882 396.786 860.572 363.567 811.984 335.502C763.397 307.438 708.575 285.565 654.671 278.727C611.783 273.187 571.727 276.858 530.08 278.488C488.434 280.118 441.664 280.071 397.924 267.016C355.759 254.293 322.936 231.256 296.03 210.575C269.123 189.894 248.087 166.441 216.119 151.26C164.816 127.315 77.3436 121.843 9.83398 132.181M2209.06 860.614C1996.44 995.62 1679.29 997.621 1452.54 866.413C1263.72 756.844 1151.67 573.292 981.146 444.464C934.856 409.546 888.173 374.629 837.215 345.21C785.864 315.792 727.892 293.254 670.856 287.803C625.621 283.644 584.011 289.376 540.024 293.072C496.431 296.766 446.922 298.104 401.204 283.692C357.065 269.955 323.822 243.842 297.284 220.422C270.744 196.659 252.039 170.113 219.657 152.541C170.292 125.504 78.5288 118.018 9.83398 127.681M2228.02 871.44C2016.53 1000.64 1705.64 1000.21 1481.66 871.363C1295.21 763.821 1182.03 585.388 1013.49 458.929C964.831 422.313 916.168 385.697 862.447 354.924C808.725 324.152 747.21 300.95 687.044 297.227C639.461 294.109 595.909 302.589 550.365 308.004C504.821 313.42 452.576 316.485 404.884 301.059C358.771 286.307 325.111 257.459 299.332 230.955C273.553 204.451 256.393 174.815 223.594 154.509C176.17 124.723 79.7171 114.035 9.83398 122.681M2246.59 882.272C2036.22 1006 1731.99 1002.8 1510.4 876.66C1325.93 771.489 1212 597.491 1045.45 473.744C994.419 435.772 943.379 397.116 887.288 364.988C830.806 333.204 766.137 308.995 703.232 306.656C653.302 304.92 607.806 315.806 560.315 323.286C512.824 330.766 457.836 334.874 408.174 318.775C360.086 303.009 326.006 271.084 300.989 241.838C275.579 212.594 260.36 180.208 227.534 156.823C181.658 124.289 80.9024 109.711 9.83398 117.681M2265.54 892.756C2056.31 1010.68 1758.73 1005.03 1539.52 881.266C1357.43 778.464 1242.36 609.244 1078.19 487.864C1024.79 448.535 971.764 407.836 912.91 374.355C854.058 341.216 785.846 316.342 719.811 315.733C667.139 315.04 620.484 328.328 571.046 337.872C521.608 347.417 463.88 352.91 412.241 335.455C362.179 318.674 327.681 284.013 303.033 252.026C278.385 220.039 264.712 184.563 231.861 158.44C187.536 123.5 82.0878 104.887 9.83398 112.181M2284.5 903.585C2076.39 1015.7 1785.08 1007.28 1568.64 886.558C1388.93 785.783 1272.73 621.685 1110.54 502.675C1054.76 461.648 999.762 419.249 938.143 384.414C876.528 349.921 805.166 324.382 736.392 325.158C681.373 325.847 632.775 341.542 581.386 352.81C529.998 364.077 469.534 371.298 415.919 352.828C363.883 335.031 328.966 297.293 305.08 262.562C281.194 227.831 269.065 189.265 236.191 160.404C193.416 123.057 83.2701 99.7206 9.83398 106.681M2303.07 914.076C2095.69 1020.38 1811.43 1009.52 1597.77 891.165C1420.43 792.761 1303.09 633.444 1142.89 516.806C1084.35 474.425 1027.36 429.982 963.379 394.134C899.393 358.285 824.49 332.423 752.584 334.587C695.216 336.317 645.069 354.759 591.338 367.753C538.002 381.085 475.191 389.69 419.21 370.207C365.2 351.395 329.865 310.92 306.345 273.106C282.825 235.292 272.64 194.316 239.345 162.378C198.121 122.623 84.4555 95.3966 9.83398 101.681M2322.03 924.913C2115.78 1025.75 1838.18 1012.11 1626.89 896.464C1451.54 800.433 1333.06 645.897 1175.63 531.625C1114.72 487.546 1055.75 441.401 989.004 404.199C922.255 366.996 844.594 340.466 769.166 344.362C709.451 347.475 657.357 367.983 602.074 383.382C546.787 398.438 481.238 408.428 423.282 387.93C367.297 368.103 331.543 324.549 308.787 284.332C286.029 243.774 276.999 200.051 244.071 165.029C204.398 122.867 85.6438 90.9147 9.83398 96.1814M2340.99 935.745C2135.86 1030.42 1864.53 1014.35 1655.62 901.416C1482.65 807.414 1363.03 658.003 1207.59 546.104C1144.31 500.667 1082.96 452.481 1013.84 413.922C944.725 375.363 863.52 348.168 785.352 353.45C723.289 357.604 669.253 380.863 612.019 397.985C554.786 415.108 486.497 426.484 426.174 404.973C368.215 384.131 332.043 337.839 309.653 294.538C287.657 251.235 279.782 204.764 247.219 166.659C208.704 122.091 86.8292 86.5909 9.83398 91.1814M2359.55 946.244C2155.56 1035.45 1890.88 1016.93 1684.74 906.37C1514.15 814.739 1393.4 670.111 1239.94 560.582C1174.28 513.788 1110.96 463.557 1039.07 423.643C967.192 383.73 882.838 355.868 801.54 362.881C737.13 368.419 681.543 394.084 622.359 412.931C563.178 432.119 492.149 444.883 429.851 422.355C369.918 400.497 333.326 351.125 311.698 305.078C290.071 259.032 283.741 209.468 251.151 168.28C213.794 121.307 88.0147 81.7672 9.83398 85.6814M2378.51 957.085C2175.65 1040.47 1917.23 1019.52 1713.87 911.328C1545.65 822.069 1423.37 682.227 1272.68 575.067C1204.26 526.575 1138.96 474.642 1064.7 433.371C990.449 392.1 902.551 363.574 818.12 371.976C751.361 378.555 693.83 406.63 632.701 427.885C571.57 448.799 497.805 463.291 433.53 439.406C371.622 416.532 334.613 364.42 313.747 315.628C292.882 266.836 287.707 214.524 255.483 170.251C219.281 120.529 89.1971 76.0778 9.83398 79.6576M2397.08 967.585C2195.34 1045.16 1943.58 1021.43 1742.6 916.285C1576.37 829.058 1453.34 694.342 1304.64 589.555C1233.85 539.705 1166.56 485.727 1089.54 443.102C1012.53 400.819 921.477 371.284 834.31 381.414C765.204 389.377 706.121 419.859 642.649 442.842C579.57 465.822 503.063 481.359 436.816 456.8C372.541 432.913 335.505 377.718 315.008 326.182C294.511 274.646 290.885 219.583 259.026 172.224C223.982 120.096 90.3826 71.8682 9.83398 74.7714M2416.04 978.431C2215.43 1050.53 1970.33 1024.02 1771.73 921.244C1607.87 836.389 1483.31 706.46 1336.99 604.043C1263.83 552.835 1194.16 496.814 1114.77 452.831C1035.39 409.19 940.797 379.332 850.494 390.509C779.039 399.515 718.015 432.749 652.985 457.455C587.956 482.16 508.712 499.427 440.491 473.851C374.241 448.947 336.787 391.012 317.05 336.387C297.312 281.762 294.45 224.293 262.958 173.848C229.071 119.313 91.5681 66.9549 9.83398 69.1814M2434.99 989.278C2235.51 1055.56 1996.68 1026.61 1800.85 926.547C1639.37 843.724 1513.68 718.925 1369.74 618.881C1293.81 566.317 1222.55 508.248 1140.4 463.252C1058.26 418.256 960.513 387.731 867.474 400.638C793.672 411.027 730.703 446.672 663.727 473.445C596.75 500.218 514.766 518.872 444.568 491.938C376.344 466.018 338.47 405.001 319.104 347.974C300.128 290.602 298.029 230.386 267.295 176.853C234.566 119.91 92.7565 62.4739 9.83398 63.6814M2453.56 999.787C2255.21 1060.25 2023.03 1028.86 1829.58 931.168C1670.48 850.718 1543.26 731.05 1401.69 633.035C1323.4 579.113 1250.15 518.998 1165.24 472.646C1080.72 426.292 979.437 395.102 883.268 409.741C806.723 421.176 742.596 459.227 673.672 488.068C604.748 516.909 520.415 536.606 447.852 509C377.653 482.063 338.969 418.308 320.755 358.188C302.148 298.071 301.596 235.102 271.229 178.481C239.265 119.132 93.942 56.7779 9.83398 57.3085M2472.52 1010.64C2275.29 1065.28 2049.78 1031.45 1858.71 936.473C1701.59 858.399 1573.24 743.521 1434.05 647.878C1353.38 592.597 1277.76 530.438 1190.87 482.726C1103.59 435.016 999.152 403.159 899.85 419.187C820.959 432.007 754.887 472.469 684.013 503.036C613.138 533.603 526.068 555.031 451.531 526.408C379.357 498.455 340.253 431.616 322.408 368.751C304.563 305.885 304.77 239.825 274.771 180.459C243.963 118.36 95.1276 51.8279 9.83398 51.6814M2491.09 1021.15C2294.99 1070.31 2075.74 1033.36 1887.44 941.097C1732.7 865.055 1603.21 755.65 1466 662.04C1382.57 605.402 1305.36 541.193 1215.71 492.125C1126.06 443.056 1018.07 410.534 916.036 428.293C834.795 442.155 767.175 485.369 693.959 518.008C621.137 550.644 531.328 573.46 454.42 543.48C380.272 514.51 340.75 444.929 323.664 378.972C306.581 313.358 307.55 244.549 278.31 182.092C248.266 117.586 96.7032 47.6604 9.83398 47.1814M2510.05 1032.01C2315.08 1075.35 2102.48 1035.95 1916.57 946.408C1764.2 872.741 1633.19 768.129 1498.75 677.233C1412.95 619.235 1333.36 552.983 1241.34 502.556C1148.92 452.131 1037.79 418.942 932.62 438.091C849.032 453.338 779.465 498.622 704.695 533.327C629.926 568.032 537.376 592.237 458.494 561.24C382.371 531.252 342.429 458.588 326.108 390.225C309.391 321.521 311.518 250.303 283.037 184.755C253.755 117.501 97.8887 42.3376 9.83398 41.1814M2529.01 1042.88C2335.16 1080.39 2129.23 1038.55 1945.69 951.379C1795.71 880.086 1663.55 780.265 1531.1 691.744C1442.53 632.389 1361.36 564.086 1266.57 512.302C1171.78 460.519 1057.11 426.664 948.807 447.546C862.87 463.837 791.361 511.876 714.64 548.308C637.92 584.74 542.631 610.334 461.776 578.662C383.679 547.657 343.32 472.249 327.365 400.796C311.41 329.343 314.299 255.374 286.577 186.734C258.453 117.07 99.0773 37.1308 9.83398 34.9548M2547.58 1053.4C2354.86 1085.09 2155.19 1040.81 1974.82 956.349C1826.82 887.091 1693.53 792.746 1563.45 706.255C1472.13 645.542 1388.97 575.19 1291.81 522.047C1194.26 469.248 1076.43 434.725 965.388 456.654C877.104 474.33 804.043 524.781 725.372 562.941C646.704 601.443 548.675 628.426 465.843 595.394C385.771 563.371 344.991 484.877 329.798 410.673C314.605 336.469 318.254 259.406 290.9 188.018C263.538 115.603 100.263 30.535 9.83398 27.6814M2566.54 1064.27C2374.95 1090.14 2181.94 1043.41 2003.95 961.327C1858.32 894.445 1723.5 804.895 1596.2 720.776C1502.5 658.703 1417.36 586.303 1317.44 532.145C1217.52 477.987 1096.15 442.798 981.971 466.461C891.338 485.181 816.333 538.045 735.717 578.617C655.098 618.847 554.332 647.562 469.525 613.512C387.479 580.472 346.282 499.234 331.457 422.282C316.633 345.329 321.437 265.514 294.839 190.69C268.241 115.867 101.449 25.7127 9.83398 22.1814M9.83398 15.6814C102.241 19.893 272.536 114.41 297.982 192.33C323.818 269.906 318.252 352.474 332.317 432.521C346.38 512.225 387.997 596.551 472.019 630.609C559.193 665.675 662.309 635.916 744.873 593.272C827.439 550.971 903.996 495.695 997.369 475.586C1114.67 450.189 1239.2 486.047 1341.49 541.908C1444.17 597.424 1530.91 672.218 1627.37 735.307C1905.69 918.138 2238.35 1111.93 2584.32 1074.81" stroke="url(#paint0_linear_380_4224)" stroke-width="0.75" stroke-miterlimit="10"/>
<defs>
<linearGradient id="paint0_linear_380_4224" x1="2500" y1="584.536" x2="-958.203" y2="531.395" gradientUnits="userSpaceOnUse">
<stop stop-color="#1D4BEF"/>
<stop offset="1" stop-color="#791DEF"/>
</linearGradient>
</defs>
</svg>
