<svg width="3803" height="1095" viewBox="0 0 3803 1095" fill="none" xmlns="http://www.w3.org/2000/svg">
<g opacity="0.2">
<path d="M3302.43 755.434C3087.14 929.064 2730.8 951.762 2489.87 807C2287.55 686.108 2180.69 476.741 1999.99 332.425C1850.19 213.098 1649.84 142.404 1446.31 137.052C1312.3 133.683 1167.62 162.617 1079.87 250.644C994.412 336.627 980.554 457.712 959.215 569.867C937.485 681.693 893.158 804.569 777.439 857.852C654.828 914.586 503.148 869.288 384.024 808.104C264.519 747.261 148.205 668.958 10.2134 658.281" stroke="url(#paint0_linear_414_4427)" stroke-width="0.75" stroke-miterlimit="10"/>
<path d="M3321.12 765.892C3106.9 933.823 2757.08 953.747 2518.51 811.955C2318.54 693.031 2211.74 487.668 2032.25 346.674C2000.58 321.694 1967.39 298.746 1931.92 277.841C1896.84 257.265 1859.1 239.072 1820.65 225.243C1789.98 214.313 1759.34 205.726 1727.95 198.155C1696.56 190.584 1663.64 184.04 1631.08 176.152C1599.69 168.915 1569.06 160.663 1539.62 154.403C1509.79 147.813 1480.74 142.216 1450.58 139.315C1391.04 133.501 1327.4 137.124 1267.02 151.08C1195.1 167.55 1130.39 200.323 1083.32 249.911C1022.98 313.426 1000.36 394.464 984.716 477.073C978.662 508.305 973.775 540.19 968.101 571.081C959.242 619.768 946.175 670.862 924.535 717.059C896.178 777.421 853.414 830.294 787.896 860.734C768.354 869.73 748.382 876.054 727.606 880.381C654.499 895.195 575.916 881.961 501.764 856.272C464.104 843.101 427.166 826.906 393.294 809.326C273.778 747.809 157.839 668.827 21.7172 654.438" stroke="url(#paint1_linear_414_4427)" stroke-width="0.75" stroke-miterlimit="10"/>
<path d="M3339.43 776.015C3126.27 938.251 2782.59 955.741 2546.76 816.24C2349.13 699.281 2241.63 498.266 2063.74 360.25C2029.72 333.963 1994.19 309.039 1956.38 286.827C1918.58 264.95 1877.74 246.132 1836.23 233.687C1803.25 223.795 1771.11 217.908 1737.43 212.045C1704.14 206.511 1668.54 201.011 1634.04 192.481C1600.71 184.268 1569.65 173.343 1540.54 164.063C1511.44 154.782 1483.88 145.479 1453.3 140.575C1395.24 131.054 1331.19 133.009 1269.63 145.979C1196.54 161.798 1131.09 196.928 1085.21 247.843C1026.81 312.339 1005.35 393.701 990.876 476.634C985.598 508.192 981.092 539.739 975.809 570.962C967.727 619.976 955.047 671.068 933.413 717.604C905.446 778.299 862.688 831.512 797.175 862.289C777.633 871.286 757.667 877.945 736.885 881.938C663.391 896.758 584.412 882.86 510.64 856.828C472.979 843.656 436.036 827.125 401.773 809.214C282.256 747.692 166.691 668.028 32.4385 649.926" stroke="url(#paint2_linear_414_4427)" stroke-width="0.75" stroke-miterlimit="10"/>
<path d="M3358.12 786.474C3146.03 943.012 2808.87 958.062 2575.4 821.195C2380.12 706.537 2271.92 509.872 2095.61 374.502C2059.26 346.574 2021.76 320.002 1981.23 296.489C1940.71 273.311 1896.77 253.868 1852.58 243.137C1817.31 234.617 1783.29 231.103 1748.09 227.271C1712.9 223.439 1674.62 219.653 1638.18 210.147C1602.51 200.963 1571.4 187.023 1543.03 175.387C1514.65 163.416 1488.58 150.741 1457.97 143.492C1401.77 130.26 1336.92 130.217 1274.19 142.535C1199.54 157.374 1133.76 195.19 1088.67 247.436C1031.83 313.253 1011.92 394.598 998.602 477.855C993.711 509.41 989.597 541.287 984.7 572.507C977.009 621.854 965.1 672.938 943.863 720.141C916.288 781.17 873.155 835.062 807.636 865.506C788.094 874.504 768.127 881.164 746.96 885.162C673.08 899.989 594.084 885.085 519.92 858.722C481.868 845.22 445.31 828.682 411.047 810.77C291.122 747.91 175.937 667.9 43.554 646.085" stroke="url(#paint3_linear_414_4427)" stroke-width="0.75" stroke-miterlimit="10"/>
<path d="M3376.44 796.939C3165.41 948.119 2834.77 960.393 2603.65 825.821C2410.73 713.459 2301.82 521.137 2127.49 388.402C2088.79 359.165 2049.34 330.609 2006.47 306.124C1963.61 281.638 1916.19 261.574 1868.94 252.227C1831.37 244.745 1795.45 243.603 1758.36 241.809C1721.27 240.015 1680.69 237.602 1641.91 226.789C1604.3 216.628 1572.76 200.014 1545.11 185.351C1517.08 170.694 1492.88 154.305 1462.22 144.711C1407.9 127.765 1342.24 125.724 1278.34 137.391C1202.52 151.579 1136.39 191.75 1092.1 245.664C1037.21 312.464 1018.46 394.136 1006.69 477.714C1002.19 509.267 998.465 541.478 994.34 572.69C987.427 622.365 975.523 673.79 954.672 720.993C927.488 782.357 884.36 836.59 818.46 867.379C798.918 876.377 778.566 883.043 757.79 887.371C683.523 902.206 604.13 886.636 530.346 859.929C492.288 846.091 455.725 829.216 421.462 811.302C301.531 748.1 186.329 667.075 55.8147 641.545" stroke="url(#paint4_linear_414_4427)" stroke-width="0.75" stroke-miterlimit="10"/>
<path d="M3395.13 807.059C3185.17 952.542 2860.66 962.381 2632.29 830.436C2441.33 720.045 2331.73 532.405 2159.36 402.309C2118.32 371.429 2076.53 341.231 2031.32 315.437C1985.74 289.65 1935.21 268.961 1884.9 261.333C1845.04 255.224 1807.61 256.45 1768.62 256.358C1729.63 256.267 1686.37 255.233 1645.65 243.778C1606.09 232.64 1574.12 213.016 1546.81 195.667C1519.51 178.318 1497.18 158.55 1465.72 146.622C1413.27 126.632 1346.8 121.923 1281.74 133.273C1204.74 146.474 1137.88 189.004 1094.38 244.587C1041.05 312.375 1023.86 394.366 1013.25 478.269C1009.14 510.154 1006.18 542.021 1002.06 573.571C995.54 623.58 984.409 674.997 963.949 722.534C937.151 783.898 893.648 838.811 828.139 869.931C808.602 879.266 788.245 885.598 767.082 889.931C692.43 904.773 613.025 888.532 539.23 861.153C501.167 846.979 464.603 830.102 430.334 811.851C310.005 747.98 195.178 666.273 66.9246 637.357" stroke="url(#paint5_linear_414_4427)" stroke-width="0.75" stroke-miterlimit="10"/>
<path d="M3413.83 817.519C3204.93 957.304 2886.94 964.367 2660.92 835.055C2472.32 726.964 2362.01 543.673 2191.23 416.222C2147.86 384.034 2104.1 351.852 2056.17 324.757C2008.25 297.662 1954.25 276.688 1901.25 270.439C1859.09 265.369 1819.78 269.303 1778.89 271.249C1738 273.196 1692.06 273.542 1649.01 261.116C1607.51 249.001 1575.1 226.701 1548.52 206.659C1521.95 186.618 1501.11 163.811 1469.61 149.203C1419.04 126.167 1351.75 118.79 1285.52 129.488C1206.97 142.044 1139.76 186.928 1097.45 243.838C1046.06 312.608 1030.03 395.258 1020.97 478.811C1017.62 510.687 1014.67 542.892 1010.94 574.438C1005.19 624.441 994.45 676.192 974.382 724.061C947.976 785.76 904.478 841.013 838.583 872.142C819.046 881.477 798.694 888.144 777.526 892.143C702.487 906.992 622.685 890.085 548.884 862.369C510.82 848.193 474.251 830.98 439.591 812.399C319.251 747.852 204.803 665.796 78.0274 632.836" stroke="url(#paint6_linear_414_4427)" stroke-width="0.75" stroke-miterlimit="10"/>
<path d="M3432.13 827.647C3224.3 961.734 2912.83 966.356 2689.17 839.675C2502.92 733.883 2391.53 554.944 2223.11 430.124C2177.39 396.293 2131.28 362.467 2081.02 334.063C2030.37 305.666 1973.27 284.065 1917.21 279.2C1872.76 275.504 1831.93 281.471 1788.76 285.462C1745.97 289.447 1697.36 291.173 1652.35 277.434C1608.9 264.342 1576.06 239.03 1549.83 216.301C1523.58 193.237 1505.02 167.379 1473.09 150.43C1424.41 124.348 1356.3 114.302 1288.9 124.349C1209.18 136.253 1141.62 183.492 1099.71 241.742C1049.89 311.501 1035.41 394.473 1027.51 478.352C1024.55 510.226 1022.38 542.758 1019.03 574.302C1013.67 624.639 1003.71 676.719 983.646 724.928C957.631 786.963 913.758 842.897 847.862 874.029C828.325 883.366 807.587 890.039 786.419 894.039C710.988 908.56 631.181 891.316 557.374 863.262C519.304 848.75 482.735 831.535 448.069 812.616C327.331 747.398 213.258 664.658 88.7429 628.31" stroke="url(#paint7_linear_414_4427)" stroke-width="0.75" stroke-miterlimit="10"/>
<path d="M3450.83 838.11C3244.06 966.499 2938.73 968.684 2717.81 844.295C2533.9 740.467 2421.43 566.553 2254.98 444.036C2206.92 408.561 2158.86 373.085 2105.87 343.378C2052.89 313.672 1992.3 291.45 1933.18 288.306C1886.42 285.649 1843.71 294.325 1799.02 300.014C1754.33 305.704 1703.04 309.145 1656.09 294.428C1610.69 280.358 1577.42 252.37 1551.91 226.612C1526.4 200.854 1509.33 171.955 1476.97 152.33C1430.17 123.537 1361.25 110.821 1292.68 119.881C1211.39 130.804 1143.48 180.398 1102.77 240.647C1054.89 311.39 1041.57 394.688 1034.84 478.894C1032.27 511.1 1030.48 543.294 1027.53 575.506C1022.95 626.171 1013.37 678.251 993.699 726.795C968.075 789.165 924.207 845.44 857.931 876.916C838.394 886.253 817.655 892.927 796.493 897.262C720.676 911.79 640.857 893.874 567.039 865.147C528.964 850.298 492.389 832.747 457.727 814.161C336.978 748.266 223.279 664.842 100.247 624.782" stroke="url(#paint8_linear_414_4427)" stroke-width="0.75" stroke-miterlimit="10"/>
<path d="M3469.15 848.584C3263.45 971.607 2964.63 971.014 2746.07 849.258C2564.13 747.737 2450.96 578.171 2286.48 458.294C2236.08 421.509 2185.67 384.054 2130.34 353.038C2074.64 322.364 2010.95 299.18 1949.15 297.416C1900.1 296.133 1855.49 307.184 1808.91 314.912C1762.32 322.641 1708.34 327.128 1659.45 311.768C1612.11 296.72 1578.4 265.719 1553.62 237.267C1528.45 208.82 1513.26 177.21 1480.85 154.567C1435.56 123.068 1366.2 107.342 1296.46 115.749C1214.01 126.02 1145.36 177.976 1105.44 239.56C1059.12 311.292 1047.74 394.905 1042.17 479.437C1039.99 511.64 1038.59 544.167 1036.02 576.377C1031.83 627.376 1023.03 679.45 1003.36 728.334C978.128 791.04 933.88 847.661 867.995 879.469C848.458 888.807 827.724 895.817 806.17 899.823C729.967 914.358 649.745 895.442 575.926 866.711C537.851 851.861 500.885 833.978 466.218 815.056C345.457 748.484 231.746 664.381 110.975 620.932" stroke="url(#paint9_linear_414_4427)" stroke-width="0.75" stroke-miterlimit="10"/>
<path d="M3487.84 858.711C3283.21 976.035 2990.91 972.998 2774.7 853.54C2595.11 754.319 2480.86 589.443 2318.73 471.864C2266 433.769 2213.62 394.328 2155.57 362.009C2097.53 330.025 2030.35 306.221 1965.5 306.177C1913.76 305.94 1868.04 319.354 1819.55 329.122C1771.07 338.891 1714.41 344.759 1663.56 328.085C1614.27 312.059 1580.14 278.38 1555.7 247.238C1531.26 216.096 1517.57 181.444 1485.11 156.119C1441.32 122.248 1371.52 103.174 1300.61 110.929C1216.99 120.549 1147.61 174.867 1108.87 237.78C1064.11 310.502 1054.28 394.436 1049.87 479.295C1048.46 511.491 1047.45 544.351 1045.27 576.558C1041.86 627.552 1033.45 680.295 1014.17 729.178C989.327 792.221 945.084 849.183 878.813 881C859.276 890.339 838.542 897.35 816.602 901.362C740.012 915.904 659.779 896.315 585.949 866.912C547.868 851.725 510.902 833.84 476.229 814.58C355.076 747.671 241.739 662.884 122.832 615.381" stroke="url(#paint10_linear_414_4427)" stroke-width="0.75" stroke-miterlimit="10"/>
<path d="M3506.54 869.179C3302.97 980.8 3016.8 974.99 2803.34 858.496C2626.1 761.24 2510.77 601.391 2350.61 486.117C2295.53 446.377 2241.2 405.284 2180.43 371.662C2119.66 338.374 2049.39 313.943 1981.85 315.28C1927.82 316.417 1880.2 332.207 1829.81 343.681C1779.43 355.154 1720.09 362.738 1667.3 345.086C1616.07 328.082 1581.5 291.389 1557.78 257.552C1534.07 223.714 1521.87 186.019 1489.37 158.011C1447.09 121.767 1377.23 99.3408 1305.16 106.779C1219.98 115.417 1150.25 172.092 1112.7 237.005C1069.5 310.717 1061.22 394.972 1057.97 480.158C1056.96 512.686 1056.33 545.208 1054.54 577.748C1051.52 629.076 1043.88 681.814 1024.61 731.372C1000.16 794.415 955.543 852.394 889.271 884.214C869.734 893.554 848.615 900.571 827.06 904.578C750.084 919.128 669.453 898.872 596.004 869.125C557.917 853.601 520.95 835.714 486.272 816.117C365.107 748.532 252.145 663.059 135.112 612.171" stroke="url(#paint11_linear_414_4427)" stroke-width="0.75" stroke-miterlimit="10"/>
<path d="M3524.85 879.316C3321.96 985.239 3042.7 976.98 2831.98 862.779C2657.09 767.825 2540.68 612.67 2382.49 499.701C2324.68 458.657 2268.39 415.578 2205.28 380.981C2142.18 346.384 2068.42 321.667 1997.82 324.39C1941.49 326.567 1892.37 345.062 1839.69 358.247C1787.41 371.761 1725.78 380.721 1670.66 362.096C1617.48 344.113 1582.48 304.741 1559.1 267.879C1535.72 231.016 1525.42 190.943 1492.48 159.921C1451.71 121.305 1381.41 95.5304 1308.17 102.316C1221.82 110.301 1151.36 169.34 1114.6 235.589C1072.96 310.29 1066.23 395.2 1064.53 480.372C1063.9 512.897 1063.66 545.752 1062.26 578.289C1060.01 629.947 1052.76 682.684 1033.88 732.576C1009.82 795.955 965.213 854.274 898.946 886.433C879.414 896.109 858.289 902.792 836.354 907.14C758.992 921.696 678.35 900.768 604.503 870.354C566.416 854.828 529.438 836.269 494.759 816.671C373.582 748.408 260.608 662.256 145.445 607.648" stroke="url(#paint12_linear_414_4427)" stroke-width="0.75" stroke-miterlimit="10"/>
<path d="M3543.55 889.793C3341.73 990.347 3068.98 979.308 2860.62 867.743C2687.7 775.096 2570.21 624.634 2414.75 513.961C2354.6 471.27 2296.35 426.54 2230.52 390.639C2164.69 354.738 2088.23 329.387 2014.17 333.838C1955.55 337.39 1904.53 357.927 1850.35 373.482C1796.16 388.702 1731.86 399.044 1674.79 379.44C1619.66 360.478 1584.22 318.091 1561.58 278.867C1538.93 239.308 1529.74 196.532 1497.14 162.485C1457.87 121.496 1387.14 92.7079 1312.72 98.5056C1224.81 105.509 1154 166.906 1118.43 234.82C1078.35 310.511 1073.17 395.742 1072.63 481.24C1072.39 513.763 1072.93 546.945 1071.91 579.48C1070.06 631.472 1063.2 684.544 1045.09 734.43C1021.42 798.144 976.431 856.811 910.164 888.973C890.246 898.655 869.513 905.668 847.572 909.681C769.823 924.245 688.783 902.65 615.316 871.891C577.224 856.029 540.246 837.468 505.175 817.538C383.601 748.604 271.387 661.762 158.093 603.432" stroke="url(#paint13_linear_414_4427)" stroke-width="0.75" stroke-miterlimit="10"/>
<path d="M3562.25 900.264C3361.49 994.776 3094.88 981.297 2888.88 872.368C2718.3 781.689 2599.73 636.257 2446.24 527.89C2383.76 483.888 2323.16 437.177 2254.99 399.965C2186.82 362.754 2106.87 336.782 2030.13 342.615C1969.21 347.207 1916.31 370.456 1860.22 387.718C1804.14 404.979 1737.15 416.702 1677.75 396.125C1620.67 376.184 1584.81 331.117 1562.5 288.867C1540.58 246.611 1532.51 201.131 1500.24 164.058C1462.09 120.701 1391.3 88.558 1315.72 93.703C1226.64 100.054 1155.09 163.479 1120.32 233.4C1081.8 310.082 1078.17 395.634 1079.18 481.453C1079.72 514.303 1080.26 547.488 1079.63 580.02C1078.55 632.341 1072.08 685.413 1053.98 735.639C1030.69 799.689 985.712 858.697 919.064 891.203C899.146 900.887 878.412 907.9 856.086 911.919C777.95 926.49 696.899 904.223 623.04 873.131C584.942 856.932 547.964 838.369 512.893 818.437C391.307 748.825 279.082 661.304 168.048 599.582" stroke="url(#paint14_linear_414_4427)" stroke-width="0.75" stroke-miterlimit="10"/>
<path d="M3580.56 910.411C3380.87 999.553 3120.78 983.628 2917.51 876.993C2749.29 788.616 2629.64 647.879 2478.12 541.817C2413.29 496.504 2350.73 447.805 2279.84 409.288C2208.95 370.772 2125.89 344.172 2046.1 351.728C1982.88 357.695 1928.48 383.317 1870.49 402.285C1812.5 421.588 1742.84 434.694 1681.49 413.137C1622.46 392.217 1586.16 344.133 1564.59 299.185C1543.01 254.236 1536.43 205.712 1504.12 165.617C1467.08 119.892 1396.24 84.3925 1319.48 88.8847C1228.85 94.5888 1156.95 160.373 1123.36 231.625C1086.4 309.298 1084.33 395.172 1086.5 481.318C1087.42 514.167 1088.73 547.344 1088.11 580.215C1087.41 632.536 1081.72 685.937 1064.02 736.834C1041.13 801.221 995.768 860.911 929.505 893.415C909.587 903.099 888.467 910.119 866.526 914.133C788.005 928.712 706.551 905.441 633.072 874.005C594.968 857.469 557.989 838.904 522.913 818.635C400.929 748.35 289.469 660.472 179.913 594.698" stroke="url(#paint15_linear_414_4427)" stroke-width="0.75" stroke-miterlimit="10"/>
<path d="M3599.26 920.892C3400.63 1004.33 3146.68 985.96 2946.16 881.621C2780.29 795.548 2659.16 659.513 2510.38 555.747C2442.83 508.794 2378.31 458.441 2305.08 418.614C2231.85 378.787 2145.31 351.566 2062.45 360.509C1996.93 367.517 1940.63 395.517 1880.75 416.862C1820.87 437.872 1748.53 452.695 1685.22 429.824C1624.25 407.925 1587.52 357.16 1566.67 309.513C1545.82 261.866 1540.36 210.638 1508.38 167.515C1472.46 119.086 1401.57 80.5659 1323.65 84.7403C1231.84 89.4563 1159.21 157.606 1126.42 230.53C1091.02 308.858 1090.49 395.388 1093.83 481.861C1095.14 514.707 1096.84 548.217 1096.99 581.08C1097.07 633.73 1091.77 687.466 1074.06 738.368C1051.57 803.091 1006.21 863.122 939.57 895.97C919.651 905.656 898.531 912.676 876.21 917.032C797.301 931.617 715.836 907.674 642.351 875.899C604.247 859.361 567.257 840.124 531.795 819.858C409.805 749.231 298.328 660.339 191.032 591.17" stroke="url(#paint16_linear_414_4427)" stroke-width="0.75" stroke-miterlimit="10"/>
<path d="M3617.57 931.04C3420.01 1008.76 3172.57 987.617 2974.41 886.251C2810.5 802.152 2688.69 671.145 2541.87 569.688C2471.98 521.423 2405.5 469.082 2329.54 427.95C2253.59 387.153 2163.95 358.969 2078.42 369.629C2010.6 378.014 1952.8 408.386 1890.63 431.445C1828.85 454.497 1753.82 470.368 1688.58 446.853C1625.27 423.979 1588.49 370.192 1567.98 319.852C1547.48 269.512 1543.51 215.573 1511.87 169.423C1477.07 118.625 1406.13 76.7477 1327.04 80.269C1234.06 84.3319 1160.69 154.847 1129.09 229.437C1095.25 308.756 1096.27 395.607 1101.16 482.401C1102.86 515.579 1104.94 549.087 1105.48 582.283C1105.96 635.268 1101.43 688.997 1084.12 740.234C1062 804.957 1016.28 865.67 949.632 898.522C929.713 908.208 908.599 915.565 885.885 919.591C806.591 934.183 724.728 909.573 651.232 877.124C613.122 860.25 576.132 841.01 540.664 820.407C418.662 749.102 307.173 659.531 201.747 586.638" stroke="url(#paint17_linear_414_4427)" stroke-width="0.75" stroke-miterlimit="10"/>
<path d="M3636.27 941.527C3439.78 1013.88 3198.86 989.946 3003.05 890.882C2841.5 809.087 2718.21 682.783 2573.75 583.627C2501.52 534.049 2432.69 479.725 2354.39 437.281C2276.11 395.173 2182.99 366.702 2094.38 378.415C2024.26 387.841 1964.57 420.928 1900.89 445.688C1837.2 470.449 1759.5 488.038 1692.31 463.542C1627.06 439.689 1589.85 383.218 1570.06 329.843C1550.28 276.468 1547.04 220.164 1515.74 170.985C1482.06 117.817 1411.06 72.5814 1330.8 75.4495C1236.27 78.8649 1162.55 151.405 1131.74 227.669C1099.46 307.98 1102.42 395.147 1108.08 481.939C1110.55 515.11 1113.03 548.616 1113.57 582.151C1114.82 635.465 1110.68 689.195 1093.76 740.767C1072.04 805.827 1026.31 866.883 959.676 900.073C939.762 910.095 918.256 917.123 895.929 921.144C816.242 935.408 734.373 910.46 660.871 877.672C622.755 860.46 585.379 841.225 550.291 820.278C427.891 748.3 317.163 658.036 213.611 581.753" stroke="url(#paint18_linear_414_4427)" stroke-width="0.75" stroke-miterlimit="10"/>
<path d="M3654.97 952.015C3459.54 1018.65 3224.76 992.281 3031.69 895.85C2872.49 816.025 2748.13 694.757 2606.02 597.906C2531.06 547.022 2460.65 490.703 2379.64 447.289C2298.63 403.875 2202.41 374.776 2111.13 388.208C2038.72 399.01 1977.14 434.477 1911.55 461.28C1845.97 488.084 1765.58 507.056 1696.44 481.245C1629.25 456.412 1591.6 396.924 1572.16 341.19C1553.11 285.116 1550.6 226.112 1520.02 173.899C1487.46 118.361 1416.41 70.1025 1334.98 71.9818C1239.27 74.4085 1164.82 149.65 1135.2 227.245C1104.47 308.547 1108.99 396.37 1116.19 483.147C1119.05 516.315 1121.91 550.154 1123.23 583.68C1125.26 637.324 1121.51 691.388 1104.59 742.965C1083.26 808.36 1037.16 870.098 970.52 903.291C950.607 913.315 929.101 920.343 906.387 924.37C826.314 938.641 744.048 913.025 670.92 879.558C632.804 862.345 595.422 842.772 560.329 821.488C437.917 748.832 327.183 658.224 225.495 577.881" stroke="url(#paint19_linear_414_4427)" stroke-width="0.75" stroke-miterlimit="10"/>
<path d="M3673.28 962.174C3478.92 1023.1 3250.66 994.279 3059.95 900.151C2903.09 822.631 2777.27 706.405 2637.51 611.521C2560.21 559.324 2487.84 501.016 2404.11 456.296C2320.76 411.57 2221.05 381.849 2126.7 397.004C2051.61 408.854 1988.91 446.689 1921.43 475.537C1853.94 504.384 1771.26 524.399 1699.79 497.949C1630.65 472.135 1592.19 409.969 1573.86 351.194C1555.14 292.424 1554.14 230.708 1523.9 175.465C1492.07 117.561 1421.35 65.9382 1338.75 67.164C1241.48 68.9429 1166.29 146.216 1138.24 225.809C1109.08 308.102 1115.15 396.247 1123.51 483.352C1126.76 516.853 1130.01 550.69 1131.72 584.214C1134.13 637.857 1131.16 692.251 1114.63 744.498C1093.7 810.23 1047.6 872.31 980.578 905.512C960.664 915.537 939.163 922.901 916.45 926.929C835.99 941.207 753.712 914.917 680.193 881.117C642.071 863.566 604.683 843.656 569.209 822.711C446.4 749.382 336.425 658.082 236.612 574.348" stroke="url(#paint20_linear_414_4427)" stroke-width="0.75" stroke-miterlimit="10"/>
<path d="M3691.99 972.668C3498.68 1027.88 3276.94 996.61 3088.59 905.122C2933.7 829.914 2806.8 718.388 2669.39 625.809C2589.76 572.299 2515.04 512.007 2429.35 465.969C2343.27 419.937 2240.47 389.587 2143.06 406.132C2065.67 419.359 2001.07 459.574 1931.69 490.131C1862.3 520.687 1776.94 542.421 1703.53 514.991C1632.44 488.197 1593.54 423.01 1575.55 361.54C1557.57 300.07 1557.29 235.317 1527.39 177.379C1496.67 116.769 1425.9 62.1212 1342.13 62.6934C1243.69 63.4832 1167.77 143.124 1140.52 224.39C1112.53 307.346 1120.53 396.142 1130.06 483.573C1133.7 517.072 1137.72 550.901 1139.43 584.764C1142.62 638.736 1139.65 693.136 1123.52 745.718C1102.97 811.786 1056.49 874.213 989.861 907.748C969.947 917.774 948.446 925.139 925.347 929.173C844.501 943.458 761.82 916.165 688.686 882.356C650.558 864.467 613.17 844.555 577.69 823.272C454.875 749.601 344.883 657.285 246.939 569.824" stroke="url(#paint21_linear_414_4427)" stroke-width="0.75" stroke-miterlimit="10"/>
<path d="M3710.3 982.834C3518.06 1032.67 3302.45 998.282 3116.84 909.428C2964.3 836.19 2836.33 730.037 2700.88 639.432C2618.52 584.615 2542.22 522.326 2453.81 474.981C2365.4 427.636 2259.11 396.664 2159.02 414.928C2079.33 429.197 2013.23 472.124 1941.57 504.73C1870.28 537.331 1782.24 560.449 1706.49 531.708C1633.45 503.934 1594.13 436.062 1576.86 371.555C1559.6 307.383 1560.05 239.928 1530.87 178.952C1500.89 115.976 1430.84 57.9563 1345.52 58.2158C1245.91 58.3518 1169.25 140.36 1143.18 222.96C1116.75 306.908 1126.31 396.026 1137.38 483.78C1141.79 517.271 1145.82 551.438 1148.3 585.293C1151.89 639.602 1149.69 694.331 1133.94 746.913C1113.79 813.318 1067.32 876.087 1000.3 909.967C980.389 919.993 958.502 927.365 935.788 931.394C854.556 945.686 771.863 917.719 698.718 883.235C660.199 865.015 623.196 845.095 587.71 823.474C464.883 749.124 354.879 656.127 259.196 565.267" stroke="url(#paint22_linear_414_4427)" stroke-width="0.75" stroke-miterlimit="10"/>
<path d="M3729 993.335C3537.83 1037.45 3328.74 1000.62 3145.49 914.404C2995.3 843.473 2865.86 742.031 2733.16 654.061C2648.46 597.931 2569.81 533.657 2479.06 485C2387.92 436.349 2278.53 404.749 2175.38 424.402C2093.39 440.049 2025.4 485.021 1952.22 519.667C1879.04 554.312 1788.32 578.815 1710.62 549.093C1635.64 520.338 1595.87 449.446 1579.34 382.572C1562.42 315.369 1563.99 245.542 1535.53 181.53C1506.28 115.852 1436.56 54.8011 1350.07 54.4067C1248.91 53.8945 1171.51 137.935 1146.63 222.539C1121.76 307.478 1132.87 396.917 1145.11 484.997C1149.91 518.821 1154.71 552.981 1157.19 586.839C1161.55 641.476 1159.74 696.205 1144 749.127C1124.23 815.533 1077.39 879.32 1010.37 912.867C990.457 922.895 968.569 930.267 945.469 934.302C863.85 948.601 780.76 919.966 707.609 885.143C669.089 866.922 632.081 846.664 596.204 824.712C472.978 749.689 363.74 656.337 269.535 561.419" stroke="url(#paint23_linear_414_4427)" stroke-width="0.75" stroke-miterlimit="10"/>
<path d="M3747.7 1003.84C3557.6 1042.24 3355.03 1002.96 3174.13 919.049C3026.3 850.424 2895.77 753.686 2765.03 668.026C2677.61 610.588 2597.39 544.316 2503.91 494.352C2410.44 444.388 2297.56 412.164 2191.34 433.543C2107.06 450.233 2037.18 497.923 1962.1 534.278C1887.01 570.634 1793.61 596.521 1713.97 566.154C1637.04 536.418 1596.85 462.839 1580.65 392.933C1564.46 323.026 1566.75 250.495 1539.02 183.445C1510.89 115.393 1441.12 51.3162 1353.46 49.9322C1251.12 48.4304 1172.99 134.841 1149.29 221.114C1125.59 307.052 1138.64 396.808 1152.04 485.216C1157.22 519.037 1162.41 553.195 1165.29 587.387C1170.04 642.024 1169.01 697.419 1153.66 750.676C1134.28 817.419 1087.44 881.549 1020.43 915.435C1000.51 925.464 978.633 933.173 955.533 937.208C873.527 951.514 790.426 922.205 717.262 886.707C678.737 868.148 641.723 847.552 605.845 825.598C482.608 749.895 373.358 655.862 281.408 557.208" stroke="url(#paint24_linear_414_4427)" stroke-width="0.75" stroke-miterlimit="10"/>
<path d="M3766.02 1014.02C3576.97 1046.7 3380.54 1004.97 3202.77 923.691C3056.9 857.044 2925.3 765.681 2796.92 681.99C2706.77 623.243 2624.58 554.979 2528.77 503.701C2432.57 452.764 2316.59 419.911 2207.69 442.339C2121.11 460.407 2049.73 510.475 1972.74 548.541C1895.76 586.943 1799.68 614.216 1718.08 582.531C1639.21 551.813 1598.58 475.212 1583.11 402.601C1567.65 329.99 1570.66 254.419 1543.27 184.67C1515.87 113.915 1446.44 46.804 1357.6 44.7657C1253.71 42.6153 1174.84 131.396 1152.33 219.004C1130.19 305.936 1144.79 396.35 1159.74 484.746C1165.31 518.566 1170.89 553.057 1174.54 587.577C1180.06 642.545 1179.42 697.94 1164.46 751.534C1145.48 818.614 1098.26 883.092 1031.25 917.318C1010.96 927.689 989.455 935.058 965.969 939.098C883.576 953.412 800.464 923.429 726.908 887.597C688.377 868.7 651.363 848.101 615.485 826.144C492.236 749.762 383.36 655.04 293.284 552.991" stroke="url(#paint25_linear_414_4427)" stroke-width="0.75" stroke-miterlimit="10"/>
<path d="M3784.72 1024.54C3596.74 1051.5 3406.83 1007.32 3231.42 928.343C3087.9 864.004 2954.83 777.353 2829.18 695.963C2736.7 635.901 2652.54 565.645 2554.01 513.395C2455.48 461.145 2336.01 427.669 2224.05 451.823C2135.17 470.934 2061.89 523.384 1983.02 563.833C1904.13 603.945 1805.37 632.939 1721.83 600.273C1641.01 568.573 1599.95 489.285 1584.82 413.976C1569.7 338.666 1573.83 260.386 1547.16 187.262C1520.49 114.139 1451.39 43.6594 1361.38 40.9668C1256.31 37.8264 1176.71 128.977 1155.39 218.591C1134.43 306.521 1150.96 397.251 1167.07 485.974C1173.42 520.122 1179.39 554.611 1183.04 589.134C1188.96 644.437 1189.08 699.827 1174.13 753.761C1155.54 821.178 1108.33 885.999 1040.94 920.569C1020.64 930.942 998.753 938.316 975.267 942.358C892.488 956.679 808.977 926.026 735.797 889.513C697.265 870.614 660.245 849.679 624.361 827.383C500.714 750.328 392.212 654.92 304.006 549.139" stroke="url(#paint26_linear_414_4427)" stroke-width="0.75" stroke-miterlimit="10"/>
<path d="M315.486 544.598C426.667 685.975 574.936 804.978 745.439 890.412C818.62 926.929 902.534 958.587 985.314 944.264C1087.35 926.97 1160.5 842.62 1183.78 754.645C1207.44 666.664 1191.28 574.91 1174 485.859C1156.72 396.807 1138.25 305.759 1157.66 216.834C1177.8 125.884 1258.13 32.3625 1364.76 36.1518C1455.55 39.5048 1524.69 112.678 1550.26 188.848C1576.2 264.677 1571.34 345.664 1585.74 424.014C1600.14 502.029 1641.63 584.342 1724.4 617.024C1810.28 650.666 1911.34 620.628 1992.11 578.133C2072.9 535.973 2147.68 481.144 2239.24 460.648C2354.27 434.767 2476.83 468.872 2577.71 522.773C2678.97 576.332 2764.7 648.923 2859.91 709.959C3134.6 886.848 3462.74 1074.02 3802.26 1034.74" stroke="url(#paint27_linear_414_4427)" stroke-width="0.75" stroke-miterlimit="10"/>
</g>
<defs>
<linearGradient id="paint0_linear_414_4427" x1="3306.93" y1="528.605" x2="11.9868" y2="484.298" gradientUnits="userSpaceOnUse">
<stop stop-color="#1D4BEF"/>
<stop offset="1" stop-color="#791DEF"/>
</linearGradient>
<linearGradient id="paint1_linear_414_4427" x1="3325.5" y1="530.505" x2="23.5745" y2="486.532" gradientUnits="userSpaceOnUse">
<stop stop-color="#1D4BEF"/>
<stop offset="1" stop-color="#791DEF"/>
</linearGradient>
<linearGradient id="paint2_linear_414_4427" x1="3343.68" y1="531.484" x2="34.3691" y2="488.009" gradientUnits="userSpaceOnUse">
<stop stop-color="#1D4BEF"/>
<stop offset="1" stop-color="#791DEF"/>
</linearGradient>
<linearGradient id="paint3_linear_414_4427" x1="3362.25" y1="533.118" x2="45.5607" y2="490.071" gradientUnits="userSpaceOnUse">
<stop stop-color="#1D4BEF"/>
<stop offset="1" stop-color="#791DEF"/>
</linearGradient>
<linearGradient id="paint4_linear_414_4427" x1="3380.42" y1="533.804" x2="57.8794" y2="491.513" gradientUnits="userSpaceOnUse">
<stop stop-color="#1D4BEF"/>
<stop offset="1" stop-color="#791DEF"/>
</linearGradient>
<linearGradient id="paint5_linear_414_4427" x1="3398.98" y1="534.561" x2="69.0518" y2="492.835" gradientUnits="userSpaceOnUse">
<stop stop-color="#1D4BEF"/>
<stop offset="1" stop-color="#791DEF"/>
</linearGradient>
<linearGradient id="paint6_linear_414_4427" x1="3417.54" y1="535.559" x2="80.2274" y2="494.379" gradientUnits="userSpaceOnUse">
<stop stop-color="#1D4BEF"/>
<stop offset="1" stop-color="#791DEF"/>
</linearGradient>
<linearGradient id="paint7_linear_414_4427" x1="3435.7" y1="535.752" x2="90.9967" y2="495.276" gradientUnits="userSpaceOnUse">
<stop stop-color="#1D4BEF"/>
<stop offset="1" stop-color="#791DEF"/>
</linearGradient>
<linearGradient id="paint8_linear_414_4427" x1="3454.26" y1="536.427" x2="102.548" y2="496.623" gradientUnits="userSpaceOnUse">
<stop stop-color="#1D4BEF"/>
<stop offset="1" stop-color="#791DEF"/>
</linearGradient>
<linearGradient id="paint9_linear_414_4427" x1="3472.43" y1="537.244" x2="113.331" y2="498.106" gradientUnits="userSpaceOnUse">
<stop stop-color="#1D4BEF"/>
<stop offset="1" stop-color="#791DEF"/>
</linearGradient>
<linearGradient id="paint10_linear_414_4427" x1="3490.98" y1="537.449" x2="125.259" y2="499.029" gradientUnits="userSpaceOnUse">
<stop stop-color="#1D4BEF"/>
<stop offset="1" stop-color="#791DEF"/>
</linearGradient>
<linearGradient id="paint11_linear_414_4427" x1="3509.54" y1="538.044" x2="137.578" y2="500.328" gradientUnits="userSpaceOnUse">
<stop stop-color="#1D4BEF"/>
<stop offset="1" stop-color="#791DEF"/>
</linearGradient>
<linearGradient id="paint12_linear_414_4427" x1="3527.71" y1="538.406" x2="147.972" y2="501.335" gradientUnits="userSpaceOnUse">
<stop stop-color="#1D4BEF"/>
<stop offset="1" stop-color="#791DEF"/>
</linearGradient>
<linearGradient id="paint13_linear_414_4427" x1="3546.27" y1="539.392" x2="160.683" y2="503.017" gradientUnits="userSpaceOnUse">
<stop stop-color="#1D4BEF"/>
<stop offset="1" stop-color="#791DEF"/>
</linearGradient>
<linearGradient id="paint14_linear_414_4427" x1="3564.82" y1="539.667" x2="170.687" y2="503.956" gradientUnits="userSpaceOnUse">
<stop stop-color="#1D4BEF"/>
<stop offset="1" stop-color="#791DEF"/>
</linearGradient>
<linearGradient id="paint15_linear_414_4427" x1="3582.99" y1="540.079" x2="182.616" y2="505.138" gradientUnits="userSpaceOnUse">
<stop stop-color="#1D4BEF"/>
<stop offset="1" stop-color="#791DEF"/>
</linearGradient>
<linearGradient id="paint16_linear_414_4427" x1="3601.55" y1="540.862" x2="193.786" y2="506.59" gradientUnits="userSpaceOnUse">
<stop stop-color="#1D4BEF"/>
<stop offset="1" stop-color="#791DEF"/>
</linearGradient>
<linearGradient id="paint17_linear_414_4427" x1="3619.72" y1="541.346" x2="204.565" y2="507.733" gradientUnits="userSpaceOnUse">
<stop stop-color="#1D4BEF"/>
<stop offset="1" stop-color="#791DEF"/>
</linearGradient>
<linearGradient id="paint18_linear_414_4427" x1="3638.28" y1="542.028" x2="216.498" y2="509.191" gradientUnits="userSpaceOnUse">
<stop stop-color="#1D4BEF"/>
<stop offset="1" stop-color="#791DEF"/>
</linearGradient>
<linearGradient id="paint19_linear_414_4427" x1="3656.85" y1="543.351" x2="228.449" y2="511.151" gradientUnits="userSpaceOnUse">
<stop stop-color="#1D4BEF"/>
<stop offset="1" stop-color="#791DEF"/>
</linearGradient>
<linearGradient id="paint20_linear_414_4427" x1="3675.02" y1="543.936" x2="239.614" y2="512.46" gradientUnits="userSpaceOnUse">
<stop stop-color="#1D4BEF"/>
<stop offset="1" stop-color="#791DEF"/>
</linearGradient>
<linearGradient id="paint21_linear_414_4427" x1="3693.59" y1="544.963" x2="250.014" y2="514.176" gradientUnits="userSpaceOnUse">
<stop stop-color="#1D4BEF"/>
<stop offset="1" stop-color="#791DEF"/>
</linearGradient>
<linearGradient id="paint22_linear_414_4427" x1="3711.77" y1="545.971" x2="262.341" y2="515.935" gradientUnits="userSpaceOnUse">
<stop stop-color="#1D4BEF"/>
<stop offset="1" stop-color="#791DEF"/>
</linearGradient>
<linearGradient id="paint23_linear_414_4427" x1="3730.35" y1="547.571" x2="272.754" y2="518.183" gradientUnits="userSpaceOnUse">
<stop stop-color="#1D4BEF"/>
<stop offset="1" stop-color="#791DEF"/>
</linearGradient>
<linearGradient id="paint24_linear_414_4427" x1="3748.92" y1="549" x2="284.699" y2="520.384" gradientUnits="userSpaceOnUse">
<stop stop-color="#1D4BEF"/>
<stop offset="1" stop-color="#791DEF"/>
</linearGradient>
<linearGradient id="paint25_linear_414_4427" x1="3767.1" y1="550.128" x2="296.641" y2="522.337" gradientUnits="userSpaceOnUse">
<stop stop-color="#1D4BEF"/>
<stop offset="1" stop-color="#791DEF"/>
</linearGradient>
<linearGradient id="paint26_linear_414_4427" x1="3785.69" y1="552.266" x2="307.444" y2="525.185" gradientUnits="userSpaceOnUse">
<stop stop-color="#1D4BEF"/>
<stop offset="1" stop-color="#791DEF"/>
</linearGradient>
<linearGradient id="paint27_linear_414_4427" x1="3803.11" y1="554.09" x2="319.007" y2="527.867" gradientUnits="userSpaceOnUse">
<stop stop-color="#1D4BEF"/>
<stop offset="1" stop-color="#791DEF"/>
</linearGradient>
</defs>
</svg>
