<svg width="3795" height="1065" viewBox="0 0 3795 1065" fill="none" xmlns="http://www.w3.org/2000/svg">
<g opacity="0.2">
<path d="M498.199 752.923C714.753 925.075 1071.2 944.772 1311 797.645C1512.39 674.769 1617.67 464.048 1797.26 317.882C1946.14 197.023 2145.92 124.467 2349.38 117.363C2483.34 112.84 2628.22 140.597 2716.61 228.057C2802.7 313.49 2817.46 434.711 2839.63 546.919C2862.2 658.793 2907.44 781.548 3023.53 833.953C3146.55 889.757 3297.87 843.066 3416.51 780.735C3535.54 718.741 3651.25 639.279 3789.14 627.399" stroke="url(#paint0_linear_408_4311)" stroke-width="0.75" stroke-miterlimit="10"/>
<path d="M479.586 763.549C695.033 929.999 1044.94 946.971 1282.41 802.842C1481.46 681.958 1586.7 475.252 1765.11 332.428C1796.59 307.124 1829.6 283.844 1864.91 262.592C1899.83 241.673 1937.42 223.119 1975.76 208.933C2006.35 197.717 2036.91 188.85 2068.25 180.995C2099.58 173.139 2132.44 166.3 2164.93 158.116C2196.26 150.596 2226.83 142.065 2256.22 135.539C2285.99 128.681 2314.99 122.824 2345.12 119.658C2404.62 113.323 2468.27 116.409 2528.75 129.877C2600.78 145.767 2665.72 178.054 2713.15 227.343C2773.96 290.475 2797.18 371.489 2813.44 454.136C2819.73 485.382 2824.85 517.292 2830.76 548.2C2839.98 596.912 2853.43 648.001 2875.41 694.11C2904.21 754.355 2947.36 806.973 3013.1 836.916C3032.71 845.764 3052.72 851.93 3073.53 856.088C3146.73 870.308 3225.2 856.374 3299.15 829.997C3336.71 816.476 3373.52 799.931 3407.25 782.024C3526.29 719.357 3641.62 639.217 3777.61 623.633" stroke="url(#paint1_linear_408_4311)" stroke-width="0.75" stroke-miterlimit="10"/>
<path d="M461.357 773.838C675.697 934.588 1019.45 949.173 1254.2 807.365C1450.91 688.471 1556.89 486.119 1733.73 346.294C1767.54 319.662 1802.88 294.381 1840.52 271.8C1878.15 249.554 1918.84 230.347 1960.25 217.521C1993.15 207.326 2025.23 201.153 2058.87 194.989C2092.11 189.159 2127.67 183.343 2162.09 174.5C2195.36 165.985 2226.34 154.771 2255.37 145.222C2284.4 135.674 2311.88 126.116 2342.42 120.939C2400.4 110.902 2464.45 112.313 2526.1 124.783C2599.29 140.01 2664.99 174.653 2711.25 225.281C2770.12 289.411 2792.18 370.759 2807.28 453.741C2812.79 485.319 2817.53 516.893 2823.05 548.136C2831.49 597.183 2844.56 648.272 2866.53 694.72C2894.95 755.302 2938.1 808.26 3003.83 838.54C3023.44 847.389 3043.45 853.891 3064.26 857.714C3137.85 871.937 3216.71 857.334 3290.28 830.617C3327.83 817.095 3364.65 800.213 3398.77 781.972C3517.81 719.3 3632.76 638.481 3766.85 619.193" stroke="url(#paint2_linear_408_4311)" stroke-width="0.75" stroke-miterlimit="10"/>
<path d="M442.743 784.466C655.976 939.513 993.193 951.709 1225.6 812.562C1419.98 695.995 1526.69 497.997 1701.96 360.839C1738.1 332.542 1775.39 305.594 1815.74 281.686C1856.08 258.113 1899.87 238.254 1943.97 227.122C1979.17 218.283 2013.16 214.471 2048.32 210.33C2083.48 206.189 2121.72 202.068 2158.09 192.229C2193.68 182.722 2224.68 168.487 2252.96 156.584C2281.24 144.345 2307.21 131.421 2337.77 123.895C2393.85 110.154 2458.7 109.557 2521.51 121.363C2596.26 135.594 2662.31 172.926 2707.79 224.895C2765.11 290.361 2785.62 371.705 2799.56 455.02C2804.69 486.598 2809.04 518.506 2814.17 549.749C2822.23 599.132 2834.52 650.22 2856.1 697.339C2884.13 758.258 2927.66 811.892 2993.39 841.839C3013 850.688 3033.01 857.191 3054.21 861.016C3128.19 875.242 3207.06 859.631 3281.01 832.579C3318.96 818.724 3355.38 801.839 3389.51 783.596C3508.94 719.581 3623.51 638.419 3755.71 615.426" stroke="url(#paint3_linear_408_4311)" stroke-width="0.75" stroke-miterlimit="10"/>
<path d="M424.511 795.095C636.634 944.78 967.315 954.25 1197.38 817.424C1389.43 703.181 1496.88 509.532 1670.19 375.033C1708.66 345.405 1747.9 316.453 1790.57 291.55C1833.24 266.648 1880.51 246.137 1927.68 236.366C1965.19 228.548 2001.1 227.096 2038.17 224.981C2075.24 222.865 2115.79 220.1 2154.48 208.933C2192.01 198.43 2223.42 181.511 2250.95 166.582C2278.87 151.655 2302.95 135.026 2333.52 125.15C2387.71 107.704 2453.35 105.097 2517.32 116.241C2593.23 129.809 2659.65 169.497 2704.34 223.143C2759.72 289.611 2779.08 371.29 2791.47 454.939C2796.21 486.518 2800.17 518.763 2804.53 550.003C2811.81 599.722 2824.1 651.15 2845.3 698.271C2872.94 759.53 2916.46 813.505 2982.58 843.792C3002.19 852.642 3022.59 859.148 3043.39 863.307C3117.76 877.537 3197.02 861.256 3270.59 833.863C3308.54 819.671 3344.97 802.448 3379.09 784.204C3498.53 719.846 3613.11 637.669 3743.41 610.97" stroke="url(#paint4_linear_408_4311)" stroke-width="0.75" stroke-miterlimit="10"/>
<path d="M405.898 805.384C616.913 949.367 941.441 956.45 1168.79 822.281C1358.89 710.031 1467.07 521.07 1638.43 389.234C1679.23 357.94 1720.79 327.322 1765.79 301.09C1811.18 274.86 1861.54 253.696 1911.79 245.622C1951.6 239.16 1989.03 240.067 2028.01 239.642C2067 239.217 2110.24 237.811 2150.86 225.984C2190.33 214.486 2222.16 194.547 2249.33 176.929C2276.5 159.311 2298.67 139.312 2330.04 127.091C2382.33 106.61 2448.76 101.323 2513.89 112.14C2590.97 124.709 2658.14 166.754 2702.04 222.078C2755.87 289.548 2773.68 371.559 2784.91 455.543C2789.26 487.457 2792.46 519.364 2796.81 550.943C2803.71 600.998 2815.22 652.426 2836.03 699.884C2863.29 761.144 2907.19 815.797 2972.92 846.42C2992.53 855.607 3012.93 861.777 3034.12 865.939C3108.87 880.172 3188.14 863.218 3261.72 835.152C3299.67 820.623 3336.1 803.399 3370.23 784.818C3490.06 719.786 3604.25 636.93 3732.27 606.858" stroke="url(#paint5_linear_408_4311)" stroke-width="0.75" stroke-miterlimit="10"/>
<path d="M387.282 816.012C597.19 954.293 915.181 958.649 1140.19 827.141C1327.96 717.217 1436.87 532.611 1606.66 403.44C1649.79 370.816 1693.3 338.194 1741.02 310.634C1788.73 283.074 1842.57 261.595 1895.5 254.88C1937.62 249.439 1976.96 253.044 2017.85 254.645C2058.75 256.246 2104.68 256.2 2147.63 243.379C2189.04 230.885 2221.27 208.262 2247.7 187.953C2274.12 167.643 2294.78 144.612 2326.17 129.705C2376.55 106.189 2443.78 98.2218 2510.07 108.375C2588.7 120.284 2656.24 164.684 2698.98 221.347C2750.87 289.817 2767.51 372.498 2777.2 456.142C2780.78 488.054 2783.97 520.299 2787.94 551.878C2794.06 601.932 2805.19 653.697 2825.61 701.491C2852.47 763.09 2896.38 818.082 2962.49 848.71C2982.1 857.897 3002.5 864.403 3023.69 868.23C3098.83 882.466 3178.49 864.843 3252.07 836.439C3290.02 821.909 3326.46 804.348 3360.97 785.432C3480.81 719.724 3594.62 636.523 3721.13 602.411" stroke="url(#paint6_linear_408_4311)" stroke-width="0.75" stroke-miterlimit="10"/>
<path d="M369.054 826.306C577.855 958.885 889.308 960.85 1111.98 832.001C1297.41 724.402 1407.44 544.15 1574.9 417.638C1620.36 383.347 1666.2 349.058 1716.24 320.167C1766.67 291.279 1823.6 269.146 1879.61 263.792C1924.03 259.708 1964.89 265.337 2008.09 268.967C2050.9 272.594 2099.52 273.908 2144.41 259.756C2187.76 246.266 2220.4 220.622 2246.46 197.623C2272.53 174.288 2290.9 148.218 2322.7 130.962C2371.17 104.412 2439.2 93.7625 2506.66 103.252C2586.45 114.498 2654.36 161.254 2696.69 219.263C2747.03 288.736 2762.13 371.751 2770.65 455.732C2773.85 487.644 2776.26 520.223 2779.85 551.802C2785.58 602.194 2795.93 654.294 2816.35 702.429C2842.83 764.366 2887.11 820.038 2953.23 850.668C2972.83 859.856 2993.62 866.366 3014.81 870.192C3090.34 884.097 3170 866.136 3243.59 837.394C3281.54 822.526 3317.97 804.964 3352.49 785.711C3472.72 719.328 3586.16 635.445 3710.38 597.959" stroke="url(#paint7_linear_408_4311)" stroke-width="0.75" stroke-miterlimit="10"/>
<path d="M350.436 836.937C558.13 963.813 863.43 963.389 1083.38 836.861C1266.48 731.252 1377.62 556.028 1543.13 431.842C1590.92 395.884 1638.71 359.926 1691.46 329.707C1744.22 299.488 1804.63 276.703 1863.71 273.047C1910.44 269.985 1953.21 278.312 1997.93 283.631C2042.66 288.949 2093.97 291.959 2140.8 276.81C2186.08 262.323 2219.14 233.994 2244.45 207.967C2269.77 181.939 2286.62 152.836 2318.83 132.895C2365.4 103.644 2434.22 90.3134 2502.85 98.8041C2584.19 109.054 2652.47 158.166 2693.62 218.187C2742.02 288.661 2755.96 372.012 2763.33 456.328C2766.13 488.577 2768.17 520.82 2771.36 553.071C2776.32 603.798 2786.28 655.9 2806.31 704.373C2832.4 766.649 2876.68 822.66 2943.18 853.632C2962.78 862.821 2983.57 869.331 3004.76 873.493C3080.67 887.402 3160.34 868.767 3233.93 839.351C3271.89 824.147 3308.33 806.247 3342.84 787.328C3463.08 720.268 3576.13 635.704 3698.84 594.511" stroke="url(#paint8_linear_408_4311)" stroke-width="0.75" stroke-miterlimit="10"/>
<path d="M332.204 847.575C538.788 969.082 837.552 965.931 1055.16 842.063C1236.31 738.783 1348.19 567.913 1511.75 446.391C1561.86 409.101 1611.98 371.14 1667.07 339.59C1722.53 308.378 1786.04 284.603 1847.81 282.307C1896.85 280.602 1941.52 291.293 1988.16 298.638C2034.8 305.983 2088.8 310.017 2137.57 294.208C2184.79 278.725 2218.26 247.375 2242.83 218.654C2267.78 189.935 2282.72 158.132 2314.96 135.168C2360.01 103.218 2429.24 86.8669 2499.03 94.6941C2581.55 104.28 2650.57 155.752 2690.94 217.116C2737.79 288.594 2749.79 372.275 2756 456.927C2758.42 489.176 2760.06 521.756 2762.87 554.007C2767.44 605.072 2776.63 657.174 2796.66 705.986C2822.36 768.601 2867.02 824.955 2933.13 856.263C2952.74 865.452 2973.52 872.299 2995.1 876.128C3071.4 890.04 3151.47 870.399 3225.06 840.981C3263.01 825.775 3299.84 807.54 3334.36 788.284C3454.6 720.546 3567.66 635.304 3688.09 590.735" stroke="url(#paint9_linear_408_4311)" stroke-width="0.75" stroke-miterlimit="10"/>
<path d="M313.589 857.87C519.066 973.673 811.29 968.129 1026.56 846.586C1205.38 745.632 1318.38 579.454 1479.6 460.256C1532.04 421.635 1584.11 381.668 1641.91 348.788C1699.7 316.245 1766.69 291.819 1831.53 291.221C1883.26 290.54 1929.07 303.589 1977.62 312.962C2026.17 322.335 2082.86 327.729 2133.57 310.588C2182.74 294.108 2216.61 260.071 2240.82 228.658C2265.02 197.246 2278.45 162.408 2310.71 136.755C2354.24 102.443 2423.89 82.7346 2494.84 89.8982C2578.52 98.821 2648.29 152.653 2687.5 215.358C2732.79 287.84 2743.25 371.855 2748.29 456.844C2749.94 489.091 2751.2 522.007 2753.62 554.258C2757.41 605.323 2766.22 658.099 2785.86 706.913C2811.17 769.867 2855.83 826.563 2922.33 857.875C2941.93 867.066 2962.71 873.913 2984.68 877.745C3061.36 891.661 3141.44 871.347 3215.03 841.253C3252.99 825.71 3289.82 807.474 3324.34 787.88C3444.97 719.803 3557.66 633.878 3676.19 585.264" stroke="url(#paint10_linear_408_4311)" stroke-width="0.75" stroke-miterlimit="10"/>
<path d="M294.971 868.504C499.341 978.601 785.415 970.331 997.963 851.783C1174.44 752.82 1288.56 591.672 1447.83 474.802C1502.6 434.512 1556.62 392.875 1617.13 358.667C1677.63 324.794 1747.71 299.713 1815.25 300.475C1869.28 301.152 1917.01 316.565 1967.47 327.63C2017.93 338.695 2077.31 345.786 2129.96 327.648C2181.06 310.171 2215.35 273.111 2238.81 239.005C2262.27 204.899 2274.18 167.025 2306.46 138.684C2348.47 102.008 2418.14 78.9399 2490.26 85.7756C2575.49 93.7015 2645.63 149.891 2683.66 214.61C2727.4 288.096 2736.31 372.444 2740.19 457.769C2741.45 490.352 2742.32 522.932 2744.36 555.52C2747.76 606.923 2755.79 659.698 2775.43 709.189C2800.35 772.146 2845.39 829.856 2911.89 861.171C2931.49 870.362 2952.66 877.212 2974.24 881.043C3051.31 894.962 3131.78 873.977 3204.99 843.543C3242.96 827.663 3279.78 809.424 3314.31 789.493C3434.95 720.738 3547.25 634.132 3663.88 582.143" stroke="url(#paint11_linear_408_4311)" stroke-width="0.75" stroke-miterlimit="10"/>
<path d="M276.738 878.806C480.387 983.198 759.536 972.532 969.363 856.307C1143.51 759.672 1258.74 603.219 1416.06 488.678C1473.55 447.059 1529.51 403.415 1592.34 368.211C1655.18 333.007 1728.74 307.61 1799.35 309.735C1855.69 311.434 1904.93 329.545 1957.7 342.304C2010.07 355.397 2071.76 363.847 2126.73 344.714C2179.77 326.241 2214.47 286.493 2237.57 249.359C2260.66 212.225 2270.67 171.986 2303.36 140.622C2343.84 101.582 2413.94 75.1561 2487.22 81.3279C2573.61 88.5901 2644.5 147.14 2681.75 213.203C2723.94 287.693 2731.3 372.71 2733.64 458.032C2734.51 490.615 2735 523.532 2736.64 556.12C2739.27 607.858 2746.92 660.636 2766.17 710.464C2790.7 773.759 2835.73 831.81 2902.23 863.464C2921.83 872.992 2943 879.506 2964.97 883.675C3042.42 897.598 3122.89 875.939 3196.5 844.834C3234.47 828.952 3271.3 810.041 3305.82 790.107C3426.47 720.675 3538.78 633.39 3653.51 577.69" stroke="url(#paint12_linear_408_4311)" stroke-width="0.75" stroke-miterlimit="10"/>
<path d="M258.123 889.448C460.662 988.468 733.274 975.073 940.763 861.51C1112.96 767.206 1229.31 615.449 1383.91 503.231C1443.73 459.944 1501.63 414.629 1567.18 378.095C1632.73 341.562 1708.99 315.508 1783.07 319.334C1841.71 322.391 1892.86 342.531 1947.15 357.652C2001.45 372.438 2065.82 382.249 2122.73 362.119C2177.71 342.649 2212.82 299.877 2235.17 260.384C2257.52 220.555 2266.38 177.618 2298.72 143.226C2337.68 101.822 2408.19 72.373 2482.63 77.545C2570.58 83.8099 2641.84 144.718 2677.91 212.459C2718.55 287.953 2724.36 373.304 2725.54 458.962C2726.03 491.546 2725.74 524.796 2726.99 557.385C2729.24 609.461 2736.49 662.576 2754.97 712.404C2779.12 776.038 2824.53 834.432 2891.03 866.089C2911.02 875.62 2931.8 882.469 2953.77 886.302C3031.61 900.228 3112.47 877.899 3185.7 846.452C3223.66 830.233 3260.5 811.32 3295.41 791.051C3416.45 720.943 3527.99 632.974 3640.83 573.563" stroke="url(#paint13_linear_408_4311)" stroke-width="0.75" stroke-miterlimit="10"/>
<path d="M239.504 900.086C440.939 993.061 707.398 977.275 912.548 866.374C1082.41 774.062 1199.88 627.338 1352.52 517.45C1414.67 472.829 1474.91 425.51 1542.79 387.644C1610.66 349.778 1690.41 323.072 1767.17 328.26C1828.12 332.339 1881.18 355.18 1937.39 371.994C1993.59 388.808 2060.65 399.981 2119.89 378.856C2176.81 358.389 2212.33 312.929 2234.32 270.407C2255.92 227.882 2263.65 182.247 2295.63 144.826C2333.45 101.06 2403.99 68.2498 2479.6 72.7578C2568.71 78.3586 2640.72 141.293 2676 211.049C2715.09 287.548 2719.36 373.233 2718.99 459.224C2718.7 492.141 2718.41 525.395 2719.28 557.984C2720.75 610.395 2727.62 663.513 2746.09 713.68C2769.85 777.654 2815.27 836.389 2882.15 868.387C2902.13 877.918 2922.92 884.768 2945.27 888.604C3023.5 902.534 3104.37 879.53 3177.98 847.747C3215.95 831.191 3252.78 812.276 3287.7 792.006C3408.74 721.22 3520.29 632.571 3630.84 569.781" stroke="url(#paint14_linear_408_4311)" stroke-width="0.75" stroke-miterlimit="10"/>
<path d="M221.274 910.396C421.599 997.997 681.519 979.816 883.948 871.24C1051.48 781.256 1170.06 639.227 1320.76 531.668C1385.23 485.714 1447.42 436.387 1518.01 397.191C1588.6 357.995 1671.44 330.634 1751.27 337.521C1814.53 342.959 1869.11 368.163 1927.23 386.671C1985.35 405.514 2055.1 418.048 2116.28 395.926C2175.14 374.461 2211.07 325.976 2232.31 280.757C2253.55 235.539 2259.76 186.866 2291.77 146.419C2328.45 100.29 2399.02 64.1172 2475.79 67.961C2566.45 72.9002 2638.83 138.194 2672.95 209.294C2710.48 286.798 2713.2 372.816 2711.67 459.144C2711 492.063 2709.93 525.315 2710.8 558.243C2711.89 610.657 2717.98 664.11 2736.06 714.952C2759.43 779.265 2805.23 838.68 2871.72 870.678C2891.71 880.21 2912.88 887.063 2934.84 890.897C3013.46 904.831 3094.72 880.819 3167.95 848.695C3205.93 831.801 3242.76 812.885 3277.68 792.276C3399.11 720.815 3509.9 631.816 3618.94 564.98" stroke="url(#paint15_linear_408_4311)" stroke-width="0.75" stroke-miterlimit="10"/>
<path d="M202.654 921.042C401.872 1002.93 655.638 982.359 855.346 876.108C1020.54 788.453 1140.62 651.126 1288.6 545.892C1355.79 498.272 1419.93 447.272 1492.84 406.744C1565.76 366.215 1652.08 338.202 1734.99 346.452C1800.55 352.913 1857.05 380.484 1917.08 401.357C1977.11 421.894 2049.55 436.126 2112.67 412.67C2173.46 390.207 2209.81 339.032 2230.3 291.118C2250.79 243.203 2255.87 191.831 2287.51 148.354C2323.07 99.5263 2393.66 60.3268 2471.59 63.8422C2563.42 67.7813 2636.55 135.437 2669.88 208.218C2705.86 286.39 2707.03 373.079 2704.34 459.743C2703.28 492.661 2701.83 526.25 2701.93 559.176C2702.24 611.925 2707.94 665.717 2726.02 716.563C2749 781.215 2794.8 840.971 2861.67 873.31C2881.66 882.844 2902.83 889.697 2925.18 893.869C3004.18 907.807 3085.45 883.121 3158.69 850.658C3196.66 833.763 3233.5 814.173 3268.8 793.565C3390.24 721.761 3501.04 631.747 3607.79 561.531" stroke="url(#paint16_linear_408_4311)" stroke-width="0.75" stroke-miterlimit="10"/>
<path d="M184.423 931.353C382.534 1007.53 629.764 984.227 827.131 880.975C990.378 795.317 1111.19 663.023 1257.22 560.12C1326.74 511.166 1392.82 458.159 1468.45 416.3C1544.08 374.777 1633.49 345.773 1719.09 355.721C1786.96 363.541 1844.98 393.475 1907.31 416.044C1969.25 438.611 2044.39 453.869 2109.44 429.751C2172.56 406.293 2208.93 352.091 2229.06 301.481C2249.19 250.872 2252.75 196.799 2284.04 150.292C2318.45 99.1007 2389.07 56.5381 2468.17 59.3891C2561.16 62.6638 2635.04 132.682 2667.2 207.141C2701.63 286.319 2701.25 373.34 2697.02 460.338C2695.57 493.593 2693.73 527.181 2693.44 560.444C2693.36 613.531 2698.29 667.323 2715.99 718.506C2738.58 783.161 2784.75 843.597 2851.63 875.939C2871.62 885.473 2892.78 892.662 2915.52 896.502C2994.91 910.443 3076.57 885.086 3149.81 851.948C3187.79 834.715 3224.63 815.124 3259.94 794.178C3381.38 721.696 3492.18 631.003 3597.04 557.072" stroke="url(#paint17_linear_408_4311)" stroke-width="0.75" stroke-miterlimit="10"/>
<path d="M165.803 942.004C362.804 1012.81 603.498 986.769 798.53 885.845C959.441 802.516 1081.76 674.923 1225.45 574.347C1297.3 524.06 1365.71 469.046 1443.67 425.853C1521.63 382.997 1614.52 353.676 1703.2 364.652C1773.37 373.496 1833.3 406.133 1897.16 430.394C1961.02 454.655 2038.84 471.612 2105.83 446.496C2170.89 422.04 2207.67 365.146 2227.05 311.503C2246.44 257.86 2249.25 201.424 2280.17 151.887C2313.45 98.3311 2384.1 52.4043 2464.37 54.5908C2558.91 57.2034 2633.16 129.247 2664.53 205.388C2697.4 285.571 2695.1 372.926 2690.09 459.927C2687.87 493.18 2685.64 526.769 2685.35 560.371C2684.49 613.794 2689.04 667.588 2706.34 719.111C2728.55 784.105 2774.72 844.882 2841.59 877.563C2861.58 887.435 2883.13 894.291 2905.49 898.129C2985.27 911.737 3066.93 886.042 3140.18 852.564C3178.16 834.994 3215.38 815.403 3250.31 794.117C3372.14 720.958 3482.18 629.58 3585.14 552.269" stroke="url(#paint18_linear_408_4311)" stroke-width="0.75" stroke-miterlimit="10"/>
<path d="M147.186 952.656C343.08 1017.74 577.62 989.314 769.928 891.053C928.506 809.719 1051.94 687.164 1193.29 588.918C1267.85 537.299 1337.83 480.274 1418.5 436.087C1499.17 391.9 1595.16 361.924 1686.53 374.598C1759 384.801 1820.84 419.805 1886.61 446.097C1952.38 472.388 2032.89 490.707 2101.83 464.258C2168.83 438.804 2206.02 378.884 2225.04 322.882C2243.67 266.541 2245.73 207.408 2275.91 154.837C2308.05 98.9174 2378.73 49.9624 2460.16 51.1482C2555.87 52.7602 2630.87 127.502 2661.07 204.987C2692.4 286.175 2688.54 374.198 2681.99 461.196C2679.38 494.45 2676.77 528.375 2675.7 561.974C2674.07 615.734 2678.23 669.866 2695.53 721.392C2717.35 786.725 2763.9 848.182 2830.77 880.865C2850.76 890.737 2872.31 897.594 2895.05 901.434C2975.22 915.046 3057.28 888.679 3130.14 854.525C3168.12 836.953 3205.35 817.024 3240.28 795.401C3362.12 721.564 3472.16 629.842 3573.23 548.481" stroke="url(#paint19_linear_408_4311)" stroke-width="0.75" stroke-miterlimit="10"/>
<path d="M128.954 962.976C323.742 1022.35 551.742 991.522 741.714 895.59C897.958 816.587 1022.89 699.071 1161.91 602.818C1238.8 549.865 1310.73 490.83 1394.11 445.312C1477.11 399.791 1576.58 369.163 1671.02 383.538C1746.18 394.767 1809.16 432.134 1876.84 460.457C1944.53 488.779 2027.35 508.122 2098.6 481.012C2167.54 454.56 2205.53 391.951 2223.42 332.912C2241.69 273.875 2242.23 212.038 2272.05 156.436C2303.44 98.1539 2373.76 45.8314 2456.36 46.3524C2553.62 47.302 2629.37 124.072 2658.01 203.57C2687.78 285.764 2682.38 374.121 2674.66 461.456C2671.67 495.046 2668.67 528.972 2667.22 562.572C2665.2 616.334 2668.58 670.802 2685.5 723.002C2706.92 788.675 2753.47 850.473 2820.73 883.162C2840.72 893.035 2862.27 900.229 2885.01 904.069C2965.56 917.685 3047.62 890.643 3120.88 856.152C3158.86 838.242 3196.09 817.976 3231.4 796.689C3353.64 722.176 3462.91 629.768 3562.08 545.027" stroke="url(#paint20_linear_408_4311)" stroke-width="0.75" stroke-miterlimit="10"/>
<path d="M110.335 973.634C304.015 1027.29 525.476 994.066 713.11 900.801C867.404 824.13 993.451 711.317 1130.14 617.394C1209.36 563.107 1283.61 502.065 1368.94 455.211C1454.66 408.359 1557.22 377.074 1654.73 392.815C1732.2 405.404 1797.09 445.139 1866.69 475.156C1936.29 505.174 2021.79 526.216 2094.99 498.108C2165.87 470.657 2204.27 405.02 2221.79 343.285C2239.32 281.55 2239.11 216.678 2268.57 158.379C2298.83 97.3959 2369.18 42.044 2452.94 41.9001C2551.36 41.8487 2627.87 120.983 2655.72 202.163C2684.33 285.029 2676.99 374.054 2668.11 461.725C2664.73 495.316 2660.96 529.24 2659.5 563.179C2656.71 617.276 2660.1 671.749 2676.62 724.288C2697.66 790.3 2744.59 852.441 2811.46 885.467C2831.45 895.34 2853 902.535 2876.12 906.378C2957.06 919.997 3039.52 891.947 3112.39 857.45C3150.38 839.203 3187.61 818.935 3222.92 797.31C3345.16 722.454 3454.44 629.03 3551.71 540.573" stroke="url(#paint21_linear_408_4311)" stroke-width="0.75" stroke-miterlimit="10"/>
<path d="M92.1019 983.959C284.673 1032.23 499.986 995.944 684.896 905.341C836.857 830.666 964.016 723.228 1098.76 631.301C1180.69 575.681 1256.51 512.627 1344.55 464.441C1432.59 416.254 1538.63 384.317 1638.84 401.756C1718.62 415.369 1785.02 457.807 1856.92 489.858C1928.43 521.908 2016.63 544.314 2092.15 514.873C2164.97 486.423 2203.78 418.093 2220.56 353.322C2237.34 288.888 2236.38 221.315 2265.1 159.981C2294.6 96.6351 2364.21 37.9119 2449.51 37.4416C2549.11 36.7252 2626.36 118.225 2653.04 200.749C2680.1 284.621 2671.21 373.981 2660.79 461.986C2656.64 495.575 2652.86 529.839 2650.64 563.776C2647.46 618.212 2650.07 673.02 2666.2 725.561C2686.85 791.913 2733.78 854.397 2801.04 887.764C2821.02 897.638 2842.96 904.836 2865.7 908.677C2947.02 922.3 3029.49 893.575 3102.36 858.403C3140.74 839.82 3177.59 819.548 3212.9 797.584C3335.15 722.05 3444.44 627.945 3539.42 536.103" stroke="url(#paint22_linear_408_4311)" stroke-width="0.75" stroke-miterlimit="10"/>
<path d="M73.4823 994.623C264.947 1037.18 473.72 998.492 656.291 910.557C805.917 838.214 934.58 735.483 1066.6 646.221C1150.86 589.266 1229.01 524.205 1319.38 474.684C1410.14 425.167 1519.27 392.573 1622.55 411.378C1704.64 426.352 1772.95 470.822 1846.38 504.903C1919.8 538.983 2010.69 562.753 2088.15 532.313C2162.91 502.865 2202.13 431.507 2218.16 364.373C2234.58 296.905 2232.49 226.967 2260.45 162.598C2289.21 96.5522 2358.46 34.7963 2444.93 33.6608C2546.07 32.2817 2624.08 115.809 2649.59 200.351C2675.09 285.228 2664.66 374.921 2653.08 463.262C2648.53 497.188 2643.99 531.449 2641.76 565.389C2637.81 620.161 2640.03 674.971 2656.16 727.853C2676.42 794.207 2723.73 857.707 2790.99 890.74C2810.97 900.615 2832.91 907.813 2856.04 911.657C2937.75 925.283 3020.61 895.886 3093.49 860.375C3131.86 841.791 3168.71 821.181 3204.42 798.882C3327.06 722.671 3435.58 628.218 3529.05 532.325" stroke="url(#paint23_linear_408_4311)" stroke-width="0.75" stroke-miterlimit="10"/>
<path d="M54.8628 1005.29C245.22 1042.13 447.454 1001.04 627.69 915.439C774.981 845.428 904.761 747.401 1034.83 660.472C1121.8 602.184 1201.52 535.109 1294.6 484.256C1387.69 433.404 1500.3 400.157 1606.65 420.664C1691.05 436.662 1761.27 483.838 1836.61 519.615C1911.95 555.392 2005.53 580.525 2084.93 549.422C2161.62 518.975 2201.26 444.923 2216.92 374.755C2232.59 304.586 2229.76 231.947 2256.98 164.541C2284.6 96.1291 2353.87 31.3417 2441.51 29.2049C2543.82 26.8243 2622.58 112.718 2646.92 198.94C2671.25 284.827 2658.88 374.853 2646.14 463.531C2641.21 497.457 2636.28 531.719 2633.67 565.996C2629.33 620.77 2630.77 676.253 2646.51 729.474C2666.39 796.168 2713.69 860.01 2780.95 893.382C2800.93 903.258 2822.87 910.793 2845.99 914.637C2928.09 928.267 3010.96 898.195 3083.84 862.008C3122.22 843.086 3159.07 822.138 3194.78 799.837C3317.43 722.947 3425.95 627.812 3517.15 528.197" stroke="url(#paint24_linear_408_4311)" stroke-width="0.75" stroke-miterlimit="10"/>
<path d="M36.6291 1015.63C225.88 1046.75 421.96 1003.26 599.086 920.319C744.43 852.307 875.321 759.657 1003.06 674.722C1092.74 615.1 1174.41 546.013 1269.82 493.825C1365.61 441.976 1481.32 408.073 1590.37 429.608C1677.07 446.967 1748.82 496.51 1826.07 533.984C1903.33 571.794 1999.59 598.292 2080.94 565.853C2159.57 534.406 2199.61 457.324 2214.53 384.453C2229.45 311.583 2225.87 235.907 2252.73 165.802C2279.6 94.6881 2348.52 26.8659 2437.32 24.0636C2541.18 21.02 2620.7 109.28 2643.86 196.849C2666.64 283.743 2652.73 374.44 2638.44 463.118C2633.12 497.044 2627.8 531.644 2624.41 566.255C2619.3 621.366 2620.36 676.853 2635.71 730.412C2655.2 797.446 2702.88 861.633 2770.14 895.345C2790.51 905.561 2812.06 912.758 2835.57 916.605C2918.05 930.238 3000.93 899.491 3074.2 862.966C3112.58 843.707 3149.43 822.756 3185.14 800.453C3307.79 722.882 3415.94 627.063 3505.24 524.064" stroke="url(#paint25_linear_408_4311)" stroke-width="0.75" stroke-miterlimit="10"/>
<path d="M18.0083 1026.3C206.152 1051.7 395.693 1005.82 570.484 925.207C713.492 859.528 845.887 771.588 970.902 688.981C1062.92 628.024 1146.53 556.926 1244.65 503.742C1342.78 450.558 1461.97 416.001 1574.09 439.238C1663.09 457.622 1736.75 509.536 1815.91 549.379C1895.08 588.885 1994.04 617.084 2077.32 583.646C2157.89 551.199 2198.35 471.422 2212.91 395.853C2227.46 320.285 2222.75 241.904 2248.87 168.426C2274.99 94.9472 2343.54 23.7541 2433.51 20.2863C2538.54 16.241 2618.8 106.868 2640.79 196.454C2662.41 284.357 2646.56 375.386 2631.11 464.4C2625.02 498.661 2619.32 533.261 2615.92 567.875C2610.42 623.325 2610.71 678.811 2626.06 732.711C2645.16 800.086 2692.84 864.614 2760.48 898.668C2780.85 908.884 2802.78 916.084 2826.3 919.932C2909.17 933.569 2992.43 902.148 3065.32 864.946C3103.71 845.684 3140.56 824.395 3176.27 801.754C3299.32 723.507 3407.09 627.005 3494.48 520.286" stroke="url(#paint26_linear_408_4311)" stroke-width="0.75" stroke-miterlimit="10"/>
<path d="M3482.97 515.824C3372.87 658.395 3225.52 778.871 3055.69 865.912C2982.79 903.118 2899.13 935.548 2816.26 921.91C2714.12 905.459 2640.35 821.591 2616.42 733.664C2592.1 645.736 2607.57 553.686 2624.18 464.334C2640.79 374.982 2658.58 283.62 2638.51 194.709C2617.69 103.776 2536.67 10.7811 2430.1 15.4898C2339.35 19.6257 2270.77 93.5162 2245.78 170.036C2220.41 246.217 2225.87 327.301 2212.06 405.909C2198.25 484.18 2157.38 566.989 2074.87 600.436C1989.26 634.871 1888 605.647 1806.92 563.77C1725.84 522.23 1650.66 467.947 1558.96 448.199C1443.77 423.259 1321.49 458.472 1221.03 513.329C1120.19 567.847 1035.02 641.296 940.289 703.251C666.973 882.795 340.294 1073.1 0.547717 1036.65" stroke="url(#paint27_linear_408_4311)" stroke-width="0.75" stroke-miterlimit="10"/>
</g>
<defs>
<linearGradient id="paint0_linear_408_4311" x1="492.002" y1="525.656" x2="3786.14" y2="456.857" gradientUnits="userSpaceOnUse">
<stop stop-color="#1D4BEF"/>
<stop offset="1" stop-color="#791DEF"/>
</linearGradient>
<linearGradient id="paint1_linear_408_4311" x1="473.446" y1="527.708" x2="3774.57" y2="459.189" gradientUnits="userSpaceOnUse">
<stop stop-color="#1D4BEF"/>
<stop offset="1" stop-color="#791DEF"/>
</linearGradient>
<linearGradient id="paint2_linear_408_4311" x1="455.279" y1="528.835" x2="3763.79" y2="460.757" gradientUnits="userSpaceOnUse">
<stop stop-color="#1D4BEF"/>
<stop offset="1" stop-color="#791DEF"/>
</linearGradient>
<linearGradient id="paint3_linear_408_4311" x1="436.725" y1="530.62" x2="3752.61" y2="462.914" gradientUnits="userSpaceOnUse">
<stop stop-color="#1D4BEF"/>
<stop offset="1" stop-color="#791DEF"/>
</linearGradient>
<linearGradient id="paint4_linear_408_4311" x1="418.564" y1="531.454" x2="3740.3" y2="464.458" gradientUnits="userSpaceOnUse">
<stop stop-color="#1D4BEF"/>
<stop offset="1" stop-color="#791DEF"/>
</linearGradient>
<linearGradient id="paint5_linear_408_4311" x1="400.014" y1="532.363" x2="3729.14" y2="465.874" gradientUnits="userSpaceOnUse">
<stop stop-color="#1D4BEF"/>
<stop offset="1" stop-color="#791DEF"/>
</linearGradient>
<linearGradient id="paint6_linear_408_4311" x1="381.463" y1="533.512" x2="3717.97" y2="467.512" gradientUnits="userSpaceOnUse">
<stop stop-color="#1D4BEF"/>
<stop offset="1" stop-color="#791DEF"/>
</linearGradient>
<linearGradient id="paint7_linear_408_4311" x1="363.305" y1="533.854" x2="3707.2" y2="468.501" gradientUnits="userSpaceOnUse">
<stop stop-color="#1D4BEF"/>
<stop offset="1" stop-color="#791DEF"/>
</linearGradient>
<linearGradient id="paint8_linear_408_4311" x1="344.755" y1="534.679" x2="3695.66" y2="469.944" gradientUnits="userSpaceOnUse">
<stop stop-color="#1D4BEF"/>
<stop offset="1" stop-color="#791DEF"/>
</linearGradient>
<linearGradient id="paint9_linear_408_4311" x1="326.59" y1="535.646" x2="3684.89" y2="471.519" gradientUnits="userSpaceOnUse">
<stop stop-color="#1D4BEF"/>
<stop offset="1" stop-color="#791DEF"/>
</linearGradient>
<linearGradient id="paint10_linear_408_4311" x1="308.045" y1="536.001" x2="3672.96" y2="472.541" gradientUnits="userSpaceOnUse">
<stop stop-color="#1D4BEF"/>
<stop offset="1" stop-color="#791DEF"/>
</linearGradient>
<linearGradient id="paint11_linear_408_4311" x1="289.499" y1="536.748" x2="3660.65" y2="473.943" gradientUnits="userSpaceOnUse">
<stop stop-color="#1D4BEF"/>
<stop offset="1" stop-color="#791DEF"/>
</linearGradient>
<linearGradient id="paint12_linear_408_4311" x1="271.332" y1="537.259" x2="3650.26" y2="475.038" gradientUnits="userSpaceOnUse">
<stop stop-color="#1D4BEF"/>
<stop offset="1" stop-color="#791DEF"/>
</linearGradient>
<linearGradient id="paint13_linear_408_4311" x1="252.786" y1="538.395" x2="3637.56" y2="476.825" gradientUnits="userSpaceOnUse">
<stop stop-color="#1D4BEF"/>
<stop offset="1" stop-color="#791DEF"/>
</linearGradient>
<linearGradient id="paint14_linear_408_4311" x1="234.235" y1="538.822" x2="3627.56" y2="477.85" gradientUnits="userSpaceOnUse">
<stop stop-color="#1D4BEF"/>
<stop offset="1" stop-color="#791DEF"/>
</linearGradient>
<linearGradient id="paint15_linear_408_4311" x1="216.075" y1="539.383" x2="3615.64" y2="479.131" gradientUnits="userSpaceOnUse">
<stop stop-color="#1D4BEF"/>
<stop offset="1" stop-color="#791DEF"/>
</linearGradient>
<linearGradient id="paint16_linear_408_4311" x1="197.521" y1="540.318" x2="3604.47" y2="480.678" gradientUnits="userSpaceOnUse">
<stop stop-color="#1D4BEF"/>
<stop offset="1" stop-color="#791DEF"/>
</linearGradient>
<linearGradient id="paint17_linear_408_4311" x1="179.357" y1="540.95" x2="3593.7" y2="481.912" gradientUnits="userSpaceOnUse">
<stop stop-color="#1D4BEF"/>
<stop offset="1" stop-color="#791DEF"/>
</linearGradient>
<linearGradient id="paint18_linear_408_4311" x1="160.807" y1="541.783" x2="3581.78" y2="483.469" gradientUnits="userSpaceOnUse">
<stop stop-color="#1D4BEF"/>
<stop offset="1" stop-color="#791DEF"/>
</linearGradient>
<linearGradient id="paint19_linear_408_4311" x1="142.254" y1="543.257" x2="3569.84" y2="485.529" gradientUnits="userSpaceOnUse">
<stop stop-color="#1D4BEF"/>
<stop offset="1" stop-color="#791DEF"/>
</linearGradient>
<linearGradient id="paint20_linear_408_4311" x1="124.088" y1="543.991" x2="3558.68" y2="486.932" gradientUnits="userSpaceOnUse">
<stop stop-color="#1D4BEF"/>
<stop offset="1" stop-color="#791DEF"/>
</linearGradient>
<linearGradient id="paint21_linear_408_4311" x1="105.532" y1="545.169" x2="3548.29" y2="488.736" gradientUnits="userSpaceOnUse">
<stop stop-color="#1D4BEF"/>
<stop offset="1" stop-color="#791DEF"/>
</linearGradient>
<linearGradient id="paint22_linear_408_4311" x1="87.3652" y1="546.326" x2="3535.97" y2="490.599" gradientUnits="userSpaceOnUse">
<stop stop-color="#1D4BEF"/>
<stop offset="1" stop-color="#791DEF"/>
</linearGradient>
<linearGradient id="paint23_linear_408_4311" x1="68.8036" y1="548.077" x2="3525.57" y2="492.935" gradientUnits="userSpaceOnUse">
<stop stop-color="#1D4BEF"/>
<stop offset="1" stop-color="#791DEF"/>
</linearGradient>
<linearGradient id="paint24_linear_408_4311" x1="50.2474" y1="549.658" x2="3513.64" y2="495.236" gradientUnits="userSpaceOnUse">
<stop stop-color="#1D4BEF"/>
<stop offset="1" stop-color="#791DEF"/>
</linearGradient>
<linearGradient id="paint25_linear_408_4311" x1="32.0776" y1="550.934" x2="3501.71" y2="497.288" gradientUnits="userSpaceOnUse">
<stop stop-color="#1D4BEF"/>
<stop offset="1" stop-color="#791DEF"/>
</linearGradient>
<linearGradient id="paint26_linear_408_4311" x1="13.511" y1="553.225" x2="3490.93" y2="500.228" gradientUnits="userSpaceOnUse">
<stop stop-color="#1D4BEF"/>
<stop offset="1" stop-color="#791DEF"/>
</linearGradient>
<linearGradient id="paint27_linear_408_4311" x1="-3.89049" y1="555.191" x2="3479.38" y2="503.005" gradientUnits="userSpaceOnUse">
<stop stop-color="#1D4BEF"/>
<stop offset="1" stop-color="#791DEF"/>
</linearGradient>
</defs>
</svg>
