<svg width="3802" height="1100" viewBox="0 0 3802 1100" fill="none" xmlns="http://www.w3.org/2000/svg">
<g opacity="0.4">
<path d="M3302.45 741.302C3086.01 912.105 2729.15 936.426 2488.69 796.572C2286.76 679.786 2180.85 476.052 2000.69 336.268C1851.34 220.691 1651.12 152.896 1447.38 148.907C1313.23 146.431 1168.24 175.554 1079.94 262.018C993.933 346.473 979.434 464.759 957.492 574.374C935.16 683.67 890.148 803.889 774.021 856.606C650.976 912.733 499.355 869.434 380.409 810.43C261.081 751.76 145.036 676.028 6.9413 666.443" stroke="url(#paint0_linear_406_5508)" stroke-width="0.75" stroke-miterlimit="10"/>
<path d="M3321.11 751.553C3105.77 916.803 2755.44 938.377 2517.33 801.395C2317.74 686.505 2211.88 486.66 2032.91 350.099C2001.33 325.903 1968.22 303.701 1932.82 283.507C1897.8 263.631 1860.11 246.099 1821.69 232.832C1791.04 222.347 1760.41 214.149 1729.02 206.948C1697.63 199.747 1664.71 193.559 1632.15 186.055C1600.77 179.18 1570.14 171.31 1540.7 165.377C1510.87 159.124 1481.82 153.837 1451.64 151.187C1392.06 145.873 1328.32 149.796 1267.8 163.787C1195.71 180.304 1130.76 212.692 1083.38 261.39C1022.64 323.765 999.577 403.019 983.49 483.764C977.267 514.292 972.211 545.45 966.371 575.644C957.25 623.23 943.905 673.192 922.002 718.425C893.3 777.527 850.214 829.406 784.463 859.522C764.852 868.424 744.825 874.719 724.002 879.069C650.734 893.976 572.129 881.533 498.023 856.903C460.387 844.273 423.49 828.686 389.67 811.729C270.333 752.396 154.666 675.99 18.4613 662.769" stroke="url(#paint1_linear_406_5508)" stroke-width="0.75" stroke-miterlimit="10"/>
<path d="M3339.39 761.462C3125.14 921.167 2780.97 940.331 2545.59 805.551C2348.33 692.55 2241.74 496.927 2064.35 363.246C2030.43 337.786 1994.99 313.664 1957.25 292.206C1919.52 271.074 1878.72 252.948 1837.23 241.049C1804.27 231.59 1772.12 226.037 1738.43 220.517C1705.13 215.315 1669.51 210.161 1635.02 202.041C1601.69 194.225 1570.65 183.746 1541.56 174.861C1512.47 165.976 1484.92 157.06 1454.34 152.457C1396.26 143.513 1332.12 145.811 1270.42 158.848C1197.17 174.739 1131.47 209.437 1085.27 259.43C1026.46 322.76 1004.57 402.334 989.642 483.399C984.195 514.245 979.522 545.075 974.072 575.594C965.727 623.502 952.768 673.466 930.869 719.036C902.557 778.47 859.475 830.687 793.726 861.137C774.115 870.04 754.091 876.664 733.265 880.688C659.609 895.606 580.61 882.514 506.886 857.544C469.249 844.911 432.348 828.994 398.137 811.714C278.799 752.368 163.51 675.284 29.1946 658.424" stroke="url(#paint2_linear_406_5508)" stroke-width="0.75" stroke-miterlimit="10"/>
<path d="M3358.05 771.714C3144.9 925.867 2807.27 942.611 2574.23 810.374C2379.32 699.591 2272 508.198 2096.18 377.075C2059.93 350.023 2022.53 324.302 1982.07 301.587C1941.62 279.199 1897.73 260.479 1853.55 250.268C1818.28 242.162 1784.23 238.937 1749.02 235.409C1713.8 231.881 1675.5 228.416 1639.06 219.353C1603.4 210.602 1572.32 197.178 1543.98 185.988C1515.63 174.47 1489.6 162.251 1458.98 155.358C1402.79 142.777 1337.86 143.129 1275 155.538C1200.18 170.483 1134.12 207.811 1088.71 259.105C1031.47 323.723 1011.12 403.28 997.356 484.664C992.296 515.508 988.013 546.663 982.949 577.18C974.995 625.416 962.809 675.373 941.303 721.598C913.381 781.362 869.92 834.251 804.167 864.379C784.555 873.285 764.531 879.909 743.318 883.942C669.275 898.871 590.264 884.796 516.149 859.502C478.122 846.548 441.607 830.62 407.396 813.336C287.654 752.679 172.747 675.246 40.3213 654.746" stroke="url(#paint3_linear_406_5508)" stroke-width="0.75" stroke-miterlimit="10"/>
<path d="M3376.33 781.971C3164.28 930.914 2833.18 944.911 2602.48 814.875C2409.91 706.301 2301.87 519.118 2128.01 390.532C2089.42 362.211 2050.07 334.56 2007.28 310.904C1964.49 287.249 1917.12 267.941 1869.86 259.098C1832.28 252.019 1796.33 251.121 1759.2 249.594C1722.08 248.067 1681.47 245.957 1642.7 235.631C1605.09 225.935 1573.6 209.899 1545.99 195.746C1518 181.6 1493.86 165.74 1463.22 156.556C1408.92 140.334 1343.19 138.74 1279.16 150.523C1203.17 164.841 1136.76 204.478 1092.13 257.407C1036.83 322.985 1017.64 402.87 1005.43 484.573C1000.76 515.419 996.866 546.902 992.575 577.412C985.398 625.974 973.215 676.273 952.096 722.504C924.564 782.605 881.105 835.837 814.969 866.309C795.357 875.217 774.946 881.851 754.123 886.204C679.693 901.145 600.286 886.42 526.553 860.784C488.521 847.499 452.002 831.238 417.79 813.949C298.043 752.948 183.122 674.509 52.5858 650.366" stroke="url(#paint4_linear_406_5508)" stroke-width="0.75" stroke-miterlimit="10"/>
<path d="M3395 791.883C3184.03 935.276 2859.09 946.859 2631.12 819.354C2440.51 712.677 2331.74 530.044 2159.84 404.005C2118.92 374.089 2077.22 344.843 2032.1 319.922C1986.59 295.008 1936.12 275.104 1885.78 267.958C1845.91 262.233 1808.43 263.658 1769.39 263.805C1730.35 263.953 1687.05 263.206 1646.34 252.263C1606.79 241.624 1574.88 222.647 1547.63 205.866C1520.38 189.084 1498.13 169.909 1466.69 158.449C1414.29 139.239 1347.76 135.043 1282.56 146.526C1205.41 159.89 1138.24 201.842 1094.41 256.403C1040.67 322.947 1023.03 403.145 1011.98 485.172C1007.69 516.343 1004.57 547.492 1000.28 578.336C993.495 627.228 982.085 677.524 961.356 724.085C934.21 784.192 890.372 838.099 824.625 868.897C805.017 878.134 784.602 884.443 763.392 888.806C688.574 903.758 609.159 888.375 535.417 862.078C497.381 848.462 460.861 832.198 426.645 814.578C306.503 752.915 191.96 673.796 63.7027 646.328" stroke="url(#paint5_linear_406_5508)" stroke-width="0.75" stroke-miterlimit="10"/>
<path d="M3413.66 802.134C3203.79 939.974 2885.38 948.807 2659.76 823.842C2471.49 719.383 2362 540.977 2191.67 417.495C2148.41 386.311 2104.76 355.135 2056.92 328.954C2009.08 302.773 1955.12 282.609 1902.1 276.826C1859.91 272.129 1820.53 276.211 1779.58 278.361C1738.63 280.512 1692.64 281.129 1649.6 269.25C1608.11 257.666 1575.78 236.076 1549.27 216.656C1522.76 197.237 1502.03 175.082 1470.55 161.001C1420.05 138.802 1352.72 132.004 1286.35 142.858C1207.64 155.603 1140.12 199.863 1097.46 255.721C1045.66 323.222 1029.19 404.07 1019.68 485.756C1016.17 516.919 1013.05 548.402 1009.15 579.246C1003.13 628.133 992.113 678.759 971.774 725.65C945.018 786.091 901.183 840.337 835.049 871.151C815.44 880.39 795.029 887.027 773.815 891.063C698.61 906.027 618.799 889.994 545.053 863.363C507.017 849.745 470.493 833.15 435.886 815.206C315.734 752.875 201.572 673.402 74.8147 641.97" stroke="url(#paint6_linear_406_5508)" stroke-width="0.75" stroke-miterlimit="10"/>
<path d="M3431.94 812.053C3223.16 944.344 2911.29 950.753 2688.02 828.323C2502.08 726.077 2391.48 551.899 2223.5 430.952C2177.9 398.17 2131.91 365.396 2081.74 337.946C2031.17 310.505 1974.11 289.744 1918.01 285.331C1873.52 281.99 1832.62 288.068 1789.37 292.231C1746.51 296.385 1697.83 298.368 1652.84 285.216C1609.4 272.686 1576.65 248.152 1550.51 226.101C1524.35 203.723 1505.9 178.567 1474.01 162.199C1425.41 137.009 1357.27 127.606 1289.74 137.833C1209.86 149.95 1141.97 196.522 1099.72 253.697C1049.47 322.168 1034.55 403.334 1026.2 485.347C1023.08 516.511 1020.74 548.314 1017.22 579.159C1011.6 628.379 1001.36 679.332 981.02 726.563C954.653 787.34 910.439 842.264 844.304 873.087C824.695 882.328 803.897 888.976 782.683 893.013C707.086 907.661 627.271 891.296 553.519 864.331C515.479 850.381 478.954 833.781 444.343 815.505C323.795 752.509 210.01 672.351 85.5323 637.589" stroke="url(#paint7_linear_406_5508)" stroke-width="0.75" stroke-miterlimit="10"/>
<path d="M3450.61 822.313C3242.92 949.051 2937.2 953.043 2716.66 832.815C2533.06 732.458 2421.35 563.167 2255.33 444.438C2207.39 410.058 2159.45 375.679 2106.56 346.967C2053.66 318.256 1993.11 296.906 1933.94 294.193C1887.14 291.88 1844.33 300.619 1799.56 306.451C1754.78 312.284 1703.41 315.959 1656.48 301.861C1611.1 288.386 1577.93 261.234 1552.52 236.214C1527.11 211.195 1510.17 183.055 1477.87 164.071C1431.16 136.215 1362.22 124.206 1293.52 133.477C1212.08 144.648 1143.83 193.532 1102.76 252.663C1054.46 322.094 1040.7 403.586 1033.52 485.925C1030.78 517.417 1028.82 548.893 1025.7 580.393C1020.85 629.939 1011 680.897 991.05 728.461C965.074 789.574 920.863 844.84 854.344 876.006C834.734 885.25 813.936 891.9 792.725 896.265C716.741 910.925 636.917 893.901 563.157 866.273C525.112 851.992 488.583 835.061 453.975 817.107C333.418 753.439 220.01 672.596 97.0351 634.192" stroke="url(#paint8_linear_406_5508)" stroke-width="0.75" stroke-miterlimit="10"/>
<path d="M3468.89 832.588C3262.31 954.097 2963.12 955.334 2744.92 837.646C2563.28 739.514 2450.84 574.45 2286.78 458.27C2236.51 422.618 2186.23 386.312 2130.99 356.331C2075.38 326.685 2011.73 304.41 1949.86 303.062C1900.76 302.106 1856.04 313.179 1809.36 321.017C1762.68 328.855 1708.61 333.57 1659.74 318.853C1612.41 304.431 1578.83 274.332 1554.16 246.671C1529.1 219.017 1514.06 188.209 1481.73 166.274C1436.54 135.758 1367.17 120.807 1297.31 129.45C1214.7 139.992 1145.7 191.197 1105.42 251.638C1058.67 322.039 1046.85 403.84 1040.83 486.505C1038.48 517.998 1036.91 549.802 1034.18 581.302C1029.72 631.181 1020.64 682.137 1000.69 730.041C975.107 791.49 930.512 847.107 864.383 878.601C844.773 887.847 823.978 894.826 802.377 898.873C726.005 913.545 645.782 895.541 572.021 867.906C533.975 853.621 497.056 836.366 462.443 818.08C341.877 753.739 228.46 672.22 107.764 630.482" stroke="url(#paint9_linear_406_5508)" stroke-width="0.75" stroke-miterlimit="10"/>
<path d="M3487.56 842.52C3282.06 958.471 2989.42 957.28 2773.56 841.804C2594.26 745.889 2480.71 585.387 2318.99 471.418C2266.38 434.494 2214.15 396.252 2156.19 365.007C2098.24 334.09 2031.11 311.226 1966.17 311.578C1914.37 311.66 1868.52 325.053 1819.92 334.899C1771.33 344.744 1714.57 350.826 1663.75 334.834C1614.48 319.465 1580.48 286.745 1556.17 256.447C1531.85 226.149 1518.33 192.353 1485.96 167.79C1442.29 134.942 1372.5 116.718 1301.46 124.732C1217.69 134.645 1147.95 188.174 1108.83 249.919C1063.64 321.291 1053.37 403.411 1048.51 486.404C1046.94 517.889 1045.76 550.022 1043.41 581.524C1039.73 631.4 1031.04 683.018 1011.48 730.928C986.285 792.714 941.694 848.675 875.177 880.185C855.567 889.435 834.772 896.415 812.784 900.471C736.024 915.155 655.792 896.491 582.022 868.193C543.972 853.577 507.052 836.316 472.435 817.697C351.476 753.018 238.436 670.812 119.626 625.092" stroke="url(#paint10_linear_406_5508)" stroke-width="0.75" stroke-miterlimit="10"/>
<path d="M3506.23 852.797C3301.83 963.185 3015.33 959.245 2802.21 846.63C2625.24 752.606 2510.59 596.999 2350.83 485.252C2295.88 446.727 2241.69 406.876 2181.02 374.367C2120.35 342.187 2050.11 318.724 1982.48 320.443C1928.37 321.883 1880.62 337.613 1830.11 349.14C1779.6 360.666 1720.15 368.443 1667.39 351.503C1616.17 335.187 1581.75 299.517 1558.18 266.573C1534.61 233.63 1522.59 196.844 1490.2 169.653C1448.05 134.47 1378.22 112.965 1306.02 120.677C1220.69 129.642 1150.58 185.487 1112.65 249.191C1069.02 321.533 1060.29 403.973 1056.6 487.292C1055.42 519.106 1054.62 550.912 1052.66 582.742C1049.37 632.952 1041.45 684.568 1021.9 733.146C997.091 794.942 952.124 851.908 885.605 883.428C865.995 892.68 844.813 899.67 823.211 903.719C746.064 918.415 665.436 899.099 592.048 870.457C553.994 855.509 517.073 838.243 482.452 819.291C361.483 753.939 248.82 671.047 131.903 621.998" stroke="url(#paint11_linear_406_5508)" stroke-width="0.75" stroke-miterlimit="10"/>
<path d="M3524.51 862.74C3320.82 967.569 3041.25 961.191 2830.85 850.784C2656.23 758.983 2540.47 607.946 2382.66 498.425C2324.99 458.634 2268.85 416.845 2205.84 383.393C2142.84 349.941 2069.12 326.216 1998.41 329.309C1941.99 331.781 1892.72 350.169 1839.91 363.385C1787.49 376.92 1725.74 386.058 1670.64 368.178C1617.48 350.914 1582.64 312.621 1559.43 276.711C1536.21 240.801 1526.1 201.671 1493.28 171.532C1452.65 134.013 1382.4 109.233 1309.03 116.315C1222.53 124.651 1151.68 182.821 1114.53 247.836C1072.45 321.149 1065.28 404.234 1063.14 487.543C1062.34 519.357 1061.93 551.491 1060.36 583.322C1057.84 633.857 1050.31 685.479 1031.16 734.389C1006.73 796.521 961.771 853.83 895.255 885.685C875.648 895.268 854.462 901.932 832.477 906.318C754.942 921.025 674.306 901.048 600.522 871.752C562.467 856.799 525.538 838.874 490.917 819.917C369.939 753.892 257.266 670.323 142.239 617.616" stroke="url(#paint12_linear_406_5508)" stroke-width="0.75" stroke-miterlimit="10"/>
<path d="M3543.18 873.04C3340.58 972.628 3067.55 963.491 2859.5 855.628C2686.83 766.056 2569.96 619.593 2414.88 512.28C2354.88 470.887 2296.78 427.487 2231.05 392.77C2165.32 358.053 2088.89 333.722 2014.72 338.527C1956 342.358 1904.82 362.758 1850.49 378.303C1796.15 393.521 1731.71 404.028 1674.67 385.2C1619.56 366.987 1584.3 325.741 1561.83 287.511C1539.36 248.953 1530.38 207.166 1497.91 174.06C1458.8 134.204 1388.13 106.475 1313.59 112.6C1225.53 119.986 1154.31 180.474 1118.34 247.123C1077.83 321.407 1072.2 404.81 1071.22 488.446C1070.81 520.261 1071.18 552.716 1070 584.547C1067.87 635.416 1060.73 687.372 1042.34 736.28C1018.31 798.748 972.964 856.408 906.447 888.272C886.454 897.865 865.657 904.851 843.668 908.91C765.745 923.63 684.714 902.999 611.312 873.359C573.252 858.075 536.323 840.144 501.31 820.862C379.936 754.172 268.027 669.908 154.889 613.541" stroke="url(#paint13_linear_406_5508)" stroke-width="0.75" stroke-miterlimit="10"/>
<path d="M3561.85 883.314C3360.34 977.002 3093.46 965.439 2887.76 860.123C2717.43 772.447 2599.45 630.886 2446.33 525.8C2383.99 483.132 2323.55 437.801 2255.49 401.81C2187.42 365.82 2107.5 340.897 2030.64 347.071C1969.61 351.935 1916.53 375.003 1860.28 392.232C1804.03 409.461 1736.9 421.339 1677.53 401.569C1620.48 382.407 1584.8 338.535 1562.68 297.335C1540.95 256.127 1533.1 211.682 1500.99 175.607C1463.01 133.422 1392.3 102.406 1316.59 107.9C1227.36 114.656 1155.39 177.144 1120.22 245.762C1081.26 321.018 1077.18 404.74 1077.75 488.695C1078.12 520.83 1078.49 553.294 1077.69 585.125C1076.34 636.32 1069.59 688.282 1051.2 737.531C1027.56 800.336 982.219 858.34 915.318 890.548C895.324 900.143 874.528 907.131 852.152 911.2C773.841 925.931 692.801 904.639 619.007 874.671C580.943 859.054 544.013 841.119 509 821.832C387.616 754.468 275.697 669.525 164.839 609.816" stroke="url(#paint14_linear_406_5508)" stroke-width="0.75" stroke-miterlimit="10"/>
<path d="M3580.13 893.289C3379.72 981.733 3119.38 967.735 2916.4 864.627C2748.42 779.173 2629.33 642.186 2478.16 539.325C2413.49 495.38 2351.09 448.107 2280.31 410.849C2209.52 373.592 2126.5 348.069 2046.56 355.948C1983.23 362.173 1928.62 387.576 1870.46 406.49C1812.3 425.732 1742.48 438.981 1681.16 418.261C1622.17 398.15 1586.07 351.32 1564.69 307.467C1543.32 263.615 1536.98 216.173 1504.83 177.136C1467.99 132.618 1397.24 98.3122 1320.36 103.176C1229.58 109.309 1157.25 174.12 1123.25 244.047C1085.84 320.277 1083.32 404.32 1085.05 488.604C1085.8 520.741 1086.95 553.198 1086.15 585.367C1085.19 636.569 1079.21 688.859 1061.22 738.77C1037.97 801.914 992.247 860.599 925.732 892.809C905.738 902.407 884.554 909.405 862.564 913.466C783.866 928.21 702.426 905.936 629.014 875.622C590.945 859.673 554.014 841.732 518.997 822.112C397.217 754.079 286.065 668.767 176.706 605.072" stroke="url(#paint15_linear_406_5508)" stroke-width="0.75" stroke-miterlimit="10"/>
<path d="M3598.81 903.592C3399.49 986.458 3145.3 970.032 2945.05 869.138C2779.41 785.91 2658.83 653.511 2510.39 552.864C2442.98 507.322 2378.64 458.436 2305.52 419.903C2232.4 381.371 2145.89 355.257 2062.87 364.515C1997.23 371.773 1940.72 399.519 1880.65 420.775C1820.57 441.702 1748.06 456.65 1684.8 434.652C1623.86 413.591 1587.34 364.132 1566.71 317.627C1546.08 271.122 1540.87 221.019 1509.07 179.01C1473.36 131.832 1402.57 94.5641 1324.53 99.1245C1232.57 104.299 1159.5 171.439 1126.29 243.009C1090.43 319.885 1089.47 404.574 1092.36 489.184C1093.5 521.322 1095.03 554.109 1095.01 586.27C1094.83 637.798 1089.24 690.421 1071.25 740.347C1048.39 803.827 1002.67 862.856 935.768 895.41C915.774 905.011 894.59 912.011 872.217 916.409C793.13 931.165 711.682 908.228 638.264 877.578C600.195 861.625 563.256 843.023 527.852 823.405C406.066 755.026 294.901 668.707 187.821 601.666" stroke="url(#paint16_linear_406_5508)" stroke-width="0.75" stroke-miterlimit="10"/>
<path d="M3617.09 913.567C3418.86 990.851 3171.21 971.66 2973.31 873.645C2809.62 792.324 2688.32 664.83 2541.84 566.413C2472.1 519.595 2405.8 468.766 2329.95 428.967C2254.12 389.496 2164.5 362.454 2078.8 373.41C2010.85 382.031 1952.81 412.113 1890.44 435.063C1828.46 458.005 1753.25 473.997 1688.04 451.377C1624.78 429.373 1588.22 376.947 1567.95 327.797C1547.67 278.647 1543.98 225.872 1512.54 180.891C1477.95 131.379 1407.13 90.8202 1327.92 94.7492C1234.79 99.2929 1160.97 168.764 1128.94 241.969C1094.64 319.817 1095.22 404.825 1099.67 489.754C1101.2 522.22 1103.12 555.007 1103.49 587.498C1103.69 639.359 1098.88 691.98 1081.28 742.238C1058.8 805.728 1012.7 865.436 945.802 897.999C925.807 907.602 904.627 914.932 881.863 919.011C802.388 933.778 720.545 910.188 647.118 878.873C609.045 862.588 572.105 843.981 536.696 824.029C414.901 754.976 303.726 667.978 198.536 597.27" stroke="url(#paint17_linear_406_5508)" stroke-width="0.75" stroke-miterlimit="10"/>
<path d="M3635.77 923.889C3438.64 995.92 3197.52 973.961 3001.96 878.167C2840.62 799.071 2717.82 676.167 2573.67 579.971C2501.6 531.873 2432.96 479.107 2354.78 438.03C2276.6 397.282 2183.5 369.975 2094.72 381.983C2024.46 391.639 1964.52 424.397 1900.62 449.026C1836.73 473.656 1758.83 491.35 1691.68 467.778C1626.46 444.822 1589.49 389.762 1569.96 337.627C1550.42 285.492 1547.47 230.388 1516.38 182.431C1482.93 130.582 1412.07 86.7277 1331.69 90.0251C1237.01 93.9454 1162.82 165.414 1131.58 240.267C1098.84 319.092 1101.36 404.414 1106.58 489.352C1108.88 521.812 1111.18 554.601 1111.56 587.429C1112.54 639.618 1108.11 692.247 1090.9 742.841C1068.82 806.67 1022.72 866.724 955.821 899.625C935.83 909.559 914.259 916.571 891.881 920.643C812.015 935.095 730.166 911.168 656.734 879.516C618.656 862.897 581.329 844.293 546.302 823.999C424.11 754.276 313.699 666.58 210.402 592.528" stroke="url(#paint18_linear_406_5508)" stroke-width="0.75" stroke-miterlimit="10"/>
<path d="M3654.45 934.22C3458.41 1000.66 3223.45 976.271 3030.62 883.025C2871.61 805.832 2747.71 687.846 2605.91 593.877C2531.11 544.509 2460.9 489.792 2380 447.775C2299.1 405.759 2202.9 377.853 2111.43 391.561C2038.87 402.581 1977.02 437.684 1911.21 464.33C1845.4 490.976 1764.81 510.044 1695.71 485.192C1628.55 461.285 1591.16 403.264 1571.98 348.81C1553.19 294.018 1550.98 236.258 1520.63 185.318C1488.31 131.134 1417.42 84.313 1335.86 86.6499C1240.01 89.6098 1165.08 163.739 1135.01 239.901C1103.83 319.698 1107.9 405.666 1114.67 490.593C1117.36 523.054 1120.05 556.171 1121.2 588.991C1122.96 641.506 1118.92 694.469 1101.71 745.075C1080.02 809.24 1033.54 869.974 966.639 902.882C946.647 912.819 925.076 919.832 902.311 923.914C822.057 938.377 739.812 913.796 666.758 881.471C628.68 864.848 591.348 845.911 556.317 825.283C434.115 754.887 323.698 666.84 222.287 588.789" stroke="url(#paint19_linear_406_5508)" stroke-width="0.75" stroke-miterlimit="10"/>
<path d="M3672.73 944.221C3477.79 1005.07 3249.37 978.242 3058.88 887.22C2902.21 812.257 2776.82 699.197 2637.36 607.124C2560.23 556.476 2488.05 499.812 2404.43 456.526C2321.2 413.232 2221.51 384.732 2126.96 400.15C2051.71 412.214 1988.72 449.651 1921 478.315C1853.28 506.979 1770.38 527.084 1698.95 501.616C1629.85 476.758 1591.65 416.109 1573.6 358.658C1555.16 301.216 1554.48 240.78 1524.48 186.861C1492.91 130.347 1422.35 80.2206 1339.63 81.9251C1242.23 84.2607 1166.54 160.398 1138.04 238.519C1108.42 319.292 1114.04 405.581 1121.97 490.837C1125.05 523.627 1128.13 556.745 1129.66 589.567C1131.81 642.088 1128.55 695.378 1111.73 746.648C1090.43 811.151 1043.95 872.23 976.667 905.156C956.675 915.096 935.107 922.439 912.342 926.522C831.7 940.997 749.446 915.752 676 883.097C637.917 866.141 600.581 846.87 565.166 826.574C442.568 755.508 332.914 666.763 233.397 585.366" stroke="url(#paint20_linear_406_5508)" stroke-width="0.75" stroke-miterlimit="10"/>
<path d="M3691.41 954.557C3497.56 1009.82 3275.68 980.542 3087.54 892.076C2932.83 819.352 2806.32 710.885 2669.2 621.039C2589.74 569.111 2515.22 510.508 2429.65 465.936C2343.7 421.371 2240.91 392.271 2143.28 409.071C2065.72 422.5 2000.83 462.286 1931.19 492.64C1861.55 522.994 1775.97 544.804 1702.59 518.383C1631.54 492.572 1592.93 428.958 1575.23 368.855C1557.53 308.753 1557.59 245.328 1527.94 188.758C1497.5 129.576 1426.91 76.4794 1343.03 77.5511C1244.45 78.9254 1168.01 157.399 1140.31 237.168C1111.85 318.596 1119.41 405.525 1128.5 491.109C1131.97 523.9 1135.82 557.011 1137.36 590.171C1140.28 643.019 1137.02 696.323 1120.6 747.927C1099.68 812.768 1052.82 874.201 985.926 907.456C965.933 917.398 944.365 924.744 921.213 928.836C840.183 943.322 757.529 917.092 684.469 884.421C646.382 867.132 609.045 847.855 573.626 827.225C451.021 755.811 341.354 666.057 243.726 580.983" stroke="url(#paint21_linear_406_5508)" stroke-width="0.75" stroke-miterlimit="10"/>
<path d="M3709.7 964.586C3516.94 1014.58 3301.21 982.21 3115.8 896.292C2963.43 825.472 2835.82 722.255 2700.65 634.316C2618.47 581.114 2542.38 520.555 2454.09 474.711C2365.8 428.866 2259.52 399.172 2159.2 417.676C2079.33 432.142 2012.92 474.601 1940.99 506.983C1869.44 539.357 1781.16 562.544 1705.45 534.849C1632.45 508.084 1593.42 441.83 1576.46 378.737C1559.51 315.973 1560.3 249.884 1531.4 190.324C1501.7 128.809 1431.85 72.3946 1346.41 73.1697C1246.66 73.911 1169.48 154.723 1142.95 235.806C1116.05 318.211 1125.16 405.462 1135.8 491.367C1140.04 524.151 1143.9 557.601 1146.21 590.753C1149.52 643.937 1147.04 697.569 1131 749.18C1110.48 814.36 1063.62 876.139 996.338 909.74C976.346 919.685 954.39 927.041 931.624 931.126C850.206 945.625 767.544 918.73 694.474 885.392C655.996 867.777 619.044 848.487 583.621 827.522C461.006 755.431 351.329 664.993 255.981 576.561" stroke="url(#paint22_linear_406_5508)" stroke-width="0.75" stroke-miterlimit="10"/>
<path d="M3728.38 974.942C3536.72 1019.34 3327.53 984.522 3144.46 901.164C2994.44 832.579 2865.33 733.97 2732.9 648.582C2648.37 594.099 2569.94 531.6 2479.32 484.477C2388.3 437.362 2278.92 407.066 2175.52 426.953C2093.34 442.786 2025.03 487.268 1951.56 521.662C1878.1 556.057 1787.13 580.62 1709.48 551.971C1634.54 524.253 1595.08 455.032 1578.87 389.606C1562.27 323.859 1564.2 255.429 1536.04 192.88C1507.08 128.703 1437.58 69.3075 1350.97 69.4492C1249.67 69.565 1171.73 152.386 1146.38 235.437C1121.04 318.818 1131.7 406.388 1143.51 492.619C1148.14 525.733 1152.77 559.175 1155.08 592.336C1159.17 645.846 1157.07 699.484 1141.04 751.437C1120.9 816.626 1073.67 879.414 1006.38 912.695C986.387 922.643 964.431 930 941.278 934.094C859.472 948.604 776.414 921.053 703.339 887.378C664.86 869.759 627.904 850.135 592.089 828.844C469.078 756.084 360.169 665.279 266.32 572.848" stroke="url(#paint23_linear_406_5508)" stroke-width="0.75" stroke-miterlimit="10"/>
<path d="M3747.07 985.319C3556.5 1024.11 3353.85 986.85 3173.12 905.721C3025.44 839.37 2895.22 745.359 2764.74 662.208C2677.5 606.45 2597.5 541.991 2504.15 493.595C2410.8 445.199 2297.93 414.308 2191.45 435.909C2106.96 452.78 2036.74 499.945 1961.36 536.034C1885.99 572.122 1792.32 598.063 1712.72 568.789C1635.84 540.116 1595.97 468.251 1580.11 399.839C1564.25 331.426 1566.92 260.33 1539.5 194.787C1511.68 128.266 1442.14 65.8934 1354.36 65.0725C1251.88 64.2257 1173.2 149.388 1149.03 234.084C1124.85 318.452 1137.45 406.336 1150.42 492.898C1155.44 526.013 1160.46 559.457 1163.16 592.949C1167.63 646.467 1166.32 700.762 1150.67 753.05C1130.92 818.579 1083.69 881.715 1016.41 915.334C996.417 925.285 974.465 932.973 951.311 937.068C869.116 951.59 786.049 923.374 712.966 889.031C674.482 871.078 637.521 851.119 601.706 829.822C478.685 756.383 369.765 664.894 278.192 568.771" stroke="url(#paint24_linear_406_5508)" stroke-width="0.75" stroke-miterlimit="10"/>
<path d="M3765.37 995.375C3575.89 1028.56 3379.39 988.86 3201.79 910.274C3056.05 845.835 2924.73 757.082 2796.59 675.83C2706.62 618.795 2624.67 552.383 2528.98 502.704C2432.91 453.361 2316.94 421.867 2207.77 444.516C2120.97 462.757 2049.23 512.271 1971.93 550.055C1894.64 588.168 1798.29 615.488 1716.74 584.929C1637.91 555.3 1597.61 480.461 1582.5 409.38C1567.38 338.299 1570.8 264.204 1543.73 196.001C1516.65 126.812 1447.46 61.452 1358.51 59.9968C1254.48 58.5237 1175.04 146.031 1152.05 232.045C1129.43 317.393 1143.58 405.931 1158.1 492.488C1163.5 525.605 1168.92 559.38 1172.39 593.196C1177.65 647.043 1176.72 701.347 1161.46 753.973C1142.1 819.843 1094.49 883.335 1027.21 917.293C1006.83 927.584 985.261 934.938 961.72 939.042C879.137 953.577 796.06 924.693 722.585 890.019C684.096 871.731 647.135 851.766 611.319 830.462C488.287 756.343 379.744 664.159 290.064 564.677" stroke="url(#paint25_linear_406_5508)" stroke-width="0.75" stroke-miterlimit="10"/>
<path d="M3784.05 1005.77C3595.67 1033.35 3405.71 991.2 3230.45 914.847C3087.06 852.646 2954.24 768.506 2828.83 689.48C2736.52 631.161 2652.61 562.796 2554.2 512.172C2455.8 461.548 2336.34 429.458 2224.09 453.823C2134.98 473.103 2061.33 524.973 1982.13 565.111C1902.93 604.919 1803.88 633.948 1720.38 602.432C1639.6 571.848 1598.9 494.365 1584.14 420.624C1569.38 346.884 1573.92 270.112 1547.59 198.585C1521.25 127.058 1452.41 58.3824 1362.29 56.2926C1257.09 53.8559 1176.91 143.706 1155.09 231.694C1133.65 318.028 1149.74 406.879 1165.42 493.764C1171.6 527.204 1177.4 560.981 1180.87 594.805C1186.52 648.988 1186.36 703.291 1171.11 756.26C1152.14 822.469 1104.53 886.307 1036.86 920.612C1016.49 930.905 994.529 938.269 970.988 942.375C888.016 956.921 804.544 927.38 731.446 892.03C692.956 873.737 655.99 853.438 620.17 831.799C496.741 757.009 388.574 664.134 300.785 560.966" stroke="url(#paint26_linear_406_5508)" stroke-width="0.75" stroke-miterlimit="10"/>
<path d="M312.263 556.563C422.878 694.517 570.75 810.304 741.062 893.038C814.162 928.4 898.035 958.93 981.008 944.379C1083.28 926.797 1156.97 843.636 1180.73 757.226C1204.89 670.808 1189.17 580.933 1172.33 493.716C1155.48 406.498 1137.45 317.329 1157.34 230.012C1177.98 140.703 1258.91 48.5051 1365.67 51.5691C1456.58 54.3019 1525.45 125.632 1550.66 200.168C1576.25 274.367 1570.96 353.812 1584.98 430.554C1599 506.967 1640.13 587.429 1722.85 618.97C1808.68 651.435 1910.04 621.362 1991.15 579.198C2072.27 537.362 2147.44 483.14 2239.24 462.481C2354.57 436.4 2477.13 469.094 2577.88 521.332C2679.01 573.233 2764.5 643.891 2859.53 703.16C3133.71 874.938 3461.37 1056.47 3801.58 1015.88" stroke="url(#paint27_linear_406_5508)" stroke-width="0.75" stroke-miterlimit="10"/>
</g>
<defs>
<linearGradient id="paint0_linear_406_5508" x1="3308.12" y1="519.846" x2="10.3702" y2="456.949" gradientUnits="userSpaceOnUse">
<stop stop-color="#1D4BEF"/>
<stop offset="1" stop-color="#791DEF"/>
</linearGradient>
<linearGradient id="paint1_linear_406_5508" x1="3326.71" y1="521.721" x2="21.9385" y2="459.136" gradientUnits="userSpaceOnUse">
<stop stop-color="#1D4BEF"/>
<stop offset="1" stop-color="#791DEF"/>
</linearGradient>
<linearGradient id="paint2_linear_406_5508" x1="3344.9" y1="522.671" x2="32.7076" y2="460.567" gradientUnits="userSpaceOnUse">
<stop stop-color="#1D4BEF"/>
<stop offset="1" stop-color="#791DEF"/>
</linearGradient>
<linearGradient id="paint3_linear_406_5508" x1="3363.49" y1="524.277" x2="43.8745" y2="462.582" gradientUnits="userSpaceOnUse">
<stop stop-color="#1D4BEF"/>
<stop offset="1" stop-color="#791DEF"/>
</linearGradient>
<linearGradient id="paint4_linear_406_5508" x1="3381.67" y1="524.939" x2="56.156" y2="464" gradientUnits="userSpaceOnUse">
<stop stop-color="#1D4BEF"/>
<stop offset="1" stop-color="#791DEF"/>
</linearGradient>
<linearGradient id="paint5_linear_406_5508" x1="3400.25" y1="525.666" x2="67.2997" y2="465.278" gradientUnits="userSpaceOnUse">
<stop stop-color="#1D4BEF"/>
<stop offset="1" stop-color="#791DEF"/>
</linearGradient>
<linearGradient id="paint6_linear_406_5508" x1="3418.83" y1="526.635" x2="78.4462" y2="466.777" gradientUnits="userSpaceOnUse">
<stop stop-color="#1D4BEF"/>
<stop offset="1" stop-color="#791DEF"/>
</linearGradient>
<linearGradient id="paint7_linear_406_5508" x1="3437.01" y1="526.798" x2="89.1804" y2="467.635" gradientUnits="userSpaceOnUse">
<stop stop-color="#1D4BEF"/>
<stop offset="1" stop-color="#791DEF"/>
</linearGradient>
<linearGradient id="paint8_linear_406_5508" x1="3455.59" y1="527.443" x2="100.696" y2="468.944" gradientUnits="userSpaceOnUse">
<stop stop-color="#1D4BEF"/>
<stop offset="1" stop-color="#791DEF"/>
</linearGradient>
<linearGradient id="paint9_linear_406_5508" x1="3473.79" y1="528.231" x2="111.444" y2="470.385" gradientUnits="userSpaceOnUse">
<stop stop-color="#1D4BEF"/>
<stop offset="1" stop-color="#791DEF"/>
</linearGradient>
<linearGradient id="paint10_linear_406_5508" x1="3492.36" y1="528.407" x2="123.334" y2="471.275" gradientUnits="userSpaceOnUse">
<stop stop-color="#1D4BEF"/>
<stop offset="1" stop-color="#791DEF"/>
</linearGradient>
<linearGradient id="paint11_linear_406_5508" x1="3510.93" y1="528.976" x2="135.619" y2="472.543" gradientUnits="userSpaceOnUse">
<stop stop-color="#1D4BEF"/>
<stop offset="1" stop-color="#791DEF"/>
</linearGradient>
<linearGradient id="paint12_linear_406_5508" x1="3529.13" y1="529.307" x2="145.978" y2="473.504" gradientUnits="userSpaceOnUse">
<stop stop-color="#1D4BEF"/>
<stop offset="1" stop-color="#791DEF"/>
</linearGradient>
<linearGradient id="paint13_linear_406_5508" x1="3547.7" y1="530.267" x2="158.653" y2="475.156" gradientUnits="userSpaceOnUse">
<stop stop-color="#1D4BEF"/>
<stop offset="1" stop-color="#791DEF"/>
</linearGradient>
<linearGradient id="paint14_linear_406_5508" x1="3566.28" y1="530.509" x2="168.618" y2="476.044" gradientUnits="userSpaceOnUse">
<stop stop-color="#1D4BEF"/>
<stop offset="1" stop-color="#791DEF"/>
</linearGradient>
<linearGradient id="paint15_linear_406_5508" x1="3584.47" y1="530.892" x2="180.507" y2="477.194" gradientUnits="userSpaceOnUse">
<stop stop-color="#1D4BEF"/>
<stop offset="1" stop-color="#791DEF"/>
</linearGradient>
<linearGradient id="paint16_linear_406_5508" x1="3603.06" y1="531.646" x2="191.64" y2="478.604" gradientUnits="userSpaceOnUse">
<stop stop-color="#1D4BEF"/>
<stop offset="1" stop-color="#791DEF"/>
</linearGradient>
<linearGradient id="paint17_linear_406_5508" x1="3621.25" y1="532.1" x2="202.381" y2="479.704" gradientUnits="userSpaceOnUse">
<stop stop-color="#1D4BEF"/>
<stop offset="1" stop-color="#791DEF"/>
</linearGradient>
<linearGradient id="paint18_linear_406_5508" x1="3639.84" y1="532.752" x2="214.273" y2="481.126" gradientUnits="userSpaceOnUse">
<stop stop-color="#1D4BEF"/>
<stop offset="1" stop-color="#791DEF"/>
</linearGradient>
<linearGradient id="paint19_linear_406_5508" x1="3658.43" y1="534.048" x2="226.188" y2="483.049" gradientUnits="userSpaceOnUse">
<stop stop-color="#1D4BEF"/>
<stop offset="1" stop-color="#791DEF"/>
</linearGradient>
<linearGradient id="paint20_linear_406_5508" x1="3676.62" y1="534.604" x2="237.312" y2="484.318" gradientUnits="userSpaceOnUse">
<stop stop-color="#1D4BEF"/>
<stop offset="1" stop-color="#791DEF"/>
</linearGradient>
<linearGradient id="paint21_linear_406_5508" x1="3695.22" y1="535.598" x2="247.674" y2="485.984" gradientUnits="userSpaceOnUse">
<stop stop-color="#1D4BEF"/>
<stop offset="1" stop-color="#791DEF"/>
</linearGradient>
<linearGradient id="paint22_linear_406_5508" x1="3713.42" y1="536.58" x2="259.957" y2="487.715" gradientUnits="userSpaceOnUse">
<stop stop-color="#1D4BEF"/>
<stop offset="1" stop-color="#791DEF"/>
</linearGradient>
<linearGradient id="paint23_linear_406_5508" x1="3732.02" y1="538.147" x2="270.331" y2="489.91" gradientUnits="userSpaceOnUse">
<stop stop-color="#1D4BEF"/>
<stop offset="1" stop-color="#791DEF"/>
</linearGradient>
<linearGradient id="paint24_linear_406_5508" x1="3750.62" y1="539.548" x2="282.233" y2="492.075" gradientUnits="userSpaceOnUse">
<stop stop-color="#1D4BEF"/>
<stop offset="1" stop-color="#791DEF"/>
</linearGradient>
<linearGradient id="paint25_linear_406_5508" x1="3768.83" y1="540.647" x2="294.129" y2="493.996" gradientUnits="userSpaceOnUse">
<stop stop-color="#1D4BEF"/>
<stop offset="1" stop-color="#791DEF"/>
</linearGradient>
<linearGradient id="paint26_linear_406_5508" x1="3787.45" y1="542.754" x2="304.888" y2="496.798" gradientUnits="userSpaceOnUse">
<stop stop-color="#1D4BEF"/>
<stop offset="1" stop-color="#791DEF"/>
</linearGradient>
<linearGradient id="paint27_linear_406_5508" x1="3804.9" y1="544.551" x2="316.4" y2="499.45" gradientUnits="userSpaceOnUse">
<stop stop-color="#1D4BEF"/>
<stop offset="1" stop-color="#791DEF"/>
</linearGradient>
</defs>
</svg>
