<svg width="3865" height="1084" viewBox="0 0 3865 1084" fill="none" xmlns="http://www.w3.org/2000/svg">
<g opacity="0.5">
<path d="M3357.02 766.706C3136.5 942.011 2773.53 962.068 2529.33 812.247C2324.26 687.122 2217.06 472.543 2034.18 323.702C1882.58 200.63 1679.13 126.746 1471.95 119.511C1335.53 114.905 1188.01 143.17 1098 232.232C1010.33 319.229 995.3 442.669 972.72 556.931C949.744 670.854 903.677 795.856 785.453 849.22C660.186 906.045 506.1 858.5 385.281 795.027C264.072 731.899 146.245 650.982 5.83227 638.885" stroke="url(#paint0_linear_404_5161)" stroke-width="0.75" stroke-miterlimit="10"/>
<path d="M3375.97 777.528C3156.58 947.025 2800.27 964.308 2558.46 817.539C2355.76 694.442 2248.59 483.953 2066.92 338.513C2034.86 312.747 2001.25 289.041 1965.29 267.399C1929.73 246.097 1891.45 227.204 1852.41 212.758C1821.26 201.337 1790.13 192.307 1758.23 184.308C1726.33 176.309 1692.86 169.344 1659.77 161.011C1627.87 153.353 1596.75 144.666 1566.82 138.021C1536.5 131.037 1506.97 125.072 1476.28 121.849C1415.7 115.398 1350.88 118.54 1289.3 132.255C1215.95 148.436 1149.81 181.314 1101.52 231.505C1039.59 295.793 1015.95 378.29 999.392 462.45C992.99 494.268 987.772 526.762 981.759 558.235C972.368 607.84 958.675 659.864 936.291 706.817C906.959 768.165 863.018 821.746 796.079 852.237C776.114 861.247 755.732 867.527 734.546 871.761C660 886.24 580.093 872.052 504.792 845.192C466.548 831.424 429.064 814.576 394.712 796.341C273.497 732.526 156.057 650.919 17.5757 635.05" stroke="url(#paint1_linear_404_5161)" stroke-width="0.75" stroke-miterlimit="10"/>
<path d="M3394.54 788.004C3176.27 951.697 2826.22 966.549 2587.18 822.145C2386.86 701.075 2278.94 495.018 2098.87 352.633C2064.44 325.513 2028.45 299.77 1990.13 276.775C1951.81 254.122 1910.37 234.564 1868.2 221.503C1834.7 211.121 1802.03 204.835 1767.78 198.559C1733.93 192.621 1697.72 186.699 1662.66 177.694C1628.79 169.023 1597.25 157.604 1567.68 147.88C1538.12 138.157 1510.13 128.424 1479.04 123.153C1420 112.932 1354.77 114.369 1292 127.067C1217.46 142.573 1150.56 177.85 1103.46 229.405C1043.51 294.709 1021.04 377.546 1005.67 462.047C1000.06 494.203 995.227 526.355 989.611 558.17C981.009 608.115 967.709 660.14 945.328 707.438C916.392 769.129 872.453 823.056 805.517 853.891C785.552 862.902 765.173 869.523 743.984 873.416C669.044 887.899 588.738 873.028 513.827 845.822C475.583 832.053 438.096 814.862 403.348 796.287C282.132 732.468 165.078 650.169 28.5289 630.528" stroke="url(#paint2_linear_404_5161)" stroke-width="0.75" stroke-miterlimit="10"/>
<path d="M3413.49 798.827C3196.35 956.713 2852.96 969.132 2616.3 827.437C2418.36 708.737 2309.7 507.114 2131.22 367.445C2094.42 338.63 2056.45 311.189 2015.36 286.843C1974.28 262.839 1929.69 242.616 1884.78 231.28C1848.94 222.279 1814.32 218.397 1778.52 214.18C1742.72 209.964 1703.77 205.767 1666.74 195.748C1630.5 186.067 1598.93 171.571 1570.13 159.451C1541.33 146.988 1514.89 133.827 1483.77 126.164C1426.66 112.171 1360.63 111.562 1296.67 123.585C1220.55 138.077 1153.29 176.092 1106.98 229.012C1048.61 295.677 1027.72 378.509 1013.53 463.35C1008.31 495.506 1003.88 527.999 998.652 559.813C990.446 610.1 977.932 662.123 955.95 710.105C927.409 772.14 883.084 826.755 816.144 857.251C796.179 866.262 775.8 872.884 754.218 876.779C678.885 891.265 598.57 875.369 523.262 847.822C484.623 833.713 447.528 816.518 412.78 797.942C291.159 732.754 174.495 650.106 39.8772 626.693" stroke="url(#paint3_linear_404_5161)" stroke-width="0.75" stroke-miterlimit="10"/>
<path d="M3432.06 809.651C3216.05 962.076 2879.32 971.72 2645.03 832.389C2449.47 716.054 2340.06 518.86 2163.57 381.899C2124.4 351.728 2084.44 322.246 2040.99 296.888C1997.53 271.529 1949.4 250.643 1901.37 240.693C1863.17 232.732 1826.61 231.254 1788.86 229.1C1751.11 226.945 1709.82 224.13 1670.42 212.758C1632.2 202.063 1600.22 184.835 1572.18 169.632C1543.75 154.432 1519.23 137.498 1488.1 127.441C1432.92 109.676 1366.08 107.021 1300.94 118.369C1223.63 132.186 1156 172.6 1110.49 227.228C1054.1 294.913 1034.39 378.087 1021.77 463.268C1016.94 495.425 1012.91 528.26 1008.47 560.073C1001.05 610.701 988.54 663.071 966.951 711.055C938.807 773.435 894.484 828.398 827.154 859.24C807.189 868.252 786.417 874.877 765.231 879.112C689.505 893.602 608.791 877.023 533.872 849.129C495.23 834.677 458.132 817.139 423.384 798.561C301.759 733.025 185.085 649.344 52.399 622.156" stroke="url(#paint4_linear_404_5161)" stroke-width="0.75" stroke-miterlimit="10"/>
<path d="M3451.01 820.128C3236.13 966.747 2905.66 973.96 2674.16 837.335C2480.57 723.029 2370.42 530.609 2195.92 396.359C2154.37 364.493 2112.04 333.314 2066.22 306.602C2020 279.891 1968.72 258.34 1917.56 250.118C1877.02 243.538 1838.9 244.462 1799.2 244.029C1759.5 243.596 1715.47 242.165 1674.1 230.121C1633.91 218.412 1601.5 198.109 1573.83 180.168C1546.17 162.227 1523.58 141.862 1491.64 129.417C1438.4 108.562 1370.75 103.178 1304.43 114.192C1225.94 126.992 1157.53 169.807 1112.83 226.143C1058.01 294.848 1039.88 378.361 1028.45 463.882C1024.01 496.381 1020.76 528.872 1016.33 561.029C1009.31 612.001 997.58 664.369 976.387 712.696C948.636 775.078 903.926 830.732 836.992 861.916C817.03 871.27 796.254 877.554 774.675 881.791C698.556 896.285 617.835 879.021 542.911 850.441C504.265 835.646 467.167 818.107 432.415 799.185C310.392 732.963 194.104 648.59 63.7455 617.967" stroke="url(#paint5_linear_404_5161)" stroke-width="0.75" stroke-miterlimit="10"/>
<path d="M3469.97 830.951C3256.22 971.763 2932.4 976.199 2703.28 842.284C2512.07 730.347 2401.17 542.362 2228.26 410.826C2184.35 377.604 2140.04 344.386 2091.45 316.321C2042.86 288.256 1988.04 266.384 1934.14 259.546C1891.25 254.005 1851.19 257.676 1809.54 259.306C1767.9 260.937 1721.13 260.89 1677.39 247.835C1635.22 235.112 1602.4 212.075 1575.49 191.394C1548.59 170.712 1527.55 147.259 1495.58 132.079C1444.28 108.133 1375.82 100.02 1308.31 110.359C1228.24 122.486 1159.47 167.698 1115.95 225.399C1063.11 295.122 1046.16 379.317 1036.3 464.493C1032.65 496.989 1029.4 529.824 1025.36 561.981C1019.13 612.952 1007.8 665.664 987 714.334C959.645 777.06 914.938 833.059 847.611 864.248C827.648 873.603 806.876 880.228 785.294 884.124C708.781 898.622 627.661 880.676 552.733 851.752C514.087 836.955 476.987 819.073 441.839 799.811C319.808 732.9 203.91 648.176 75.0875 613.439" stroke="url(#paint6_linear_404_5161)" stroke-width="0.75" stroke-miterlimit="10"/>
<path d="M3488.53 841.432C3275.91 976.439 2958.75 978.44 2732.01 847.232C2543.18 737.663 2431.13 554.111 2260.61 425.283C2214.32 390.364 2167.64 355.448 2116.68 326.028C2065.33 296.611 2007.36 274.073 1950.32 268.621C1905.09 264.462 1863.48 270.195 1819.49 273.891C1775.9 277.584 1726.39 278.922 1680.67 264.511C1636.53 250.774 1603.29 224.661 1576.75 201.24C1550.21 177.478 1531.5 150.931 1499.12 133.359C1449.76 106.323 1380.49 95.4787 1311.79 105.142C1230.54 116.594 1161.39 164.206 1118.28 223.277C1067.02 294.022 1051.65 378.557 1042.96 464.075C1039.71 496.571 1037.25 529.746 1033.6 561.904C1027.76 613.218 1017.22 666.272 996.429 715.288C969.47 778.359 924.375 835.05 857.048 866.241C837.086 875.597 815.92 882.226 794.338 886.123C717.429 900.282 636.306 881.992 561.374 852.723C522.725 837.584 485.624 819.7 450.473 800.094C328.043 732.496 212.532 647.078 86.0364 608.905" stroke="url(#paint7_linear_404_5161)" stroke-width="0.75" stroke-miterlimit="10"/>
<path d="M3507.49 852.258C3295.99 981.457 2985.1 981.026 2761.13 852.182C2574.68 744.639 2461.5 566.207 2292.96 439.748C2244.3 403.132 2195.63 366.515 2141.91 335.743C2088.19 304.971 2026.67 281.769 1966.51 278.046C1918.93 274.927 1875.37 283.407 1829.83 288.823C1784.29 294.238 1732.04 297.303 1684.35 281.877C1638.24 267.126 1604.58 238.278 1578.8 211.774C1553.02 185.269 1535.86 155.634 1503.06 135.328C1455.63 105.541 1385.56 91.9665 1315.67 100.613C1232.84 111.05 1163.32 161.062 1121.4 222.181C1072.12 293.946 1057.93 378.822 1050.42 464.682C1047.57 497.521 1045.5 530.355 1042.25 563.196C1037.2 614.852 1027.05 667.908 1006.65 717.268C980.089 780.684 934.997 837.721 867.28 869.259C847.317 878.616 826.152 885.245 804.572 889.484C727.27 903.647 646.14 884.672 571.203 854.717C532.55 839.234 495.446 821.007 460.298 801.741C337.862 733.454 222.737 647.342 97.7796 605.395" stroke="url(#paint8_linear_404_5161)" stroke-width="0.75" stroke-miterlimit="10"/>
<path d="M3526.05 863.091C3315.69 986.823 3011.45 983.614 2789.86 857.479C2605.39 752.308 2491.47 578.309 2324.92 454.562C2273.88 416.59 2222.84 377.934 2166.75 345.806C2110.27 314.023 2045.6 289.813 1982.7 287.475C1932.77 285.738 1887.27 296.625 1839.78 304.105C1792.29 311.584 1737.3 315.692 1687.64 299.594C1639.55 283.827 1605.47 251.903 1580.45 222.656C1555.04 193.412 1539.82 161.026 1507 137.642C1461.12 105.107 1390.62 88.4566 1319.56 96.4271C1235.53 106.189 1165.25 158.603 1124.13 221.09C1076.43 293.877 1064.2 379.09 1057.88 465.292C1055.42 498.131 1053.75 531.307 1050.89 564.149C1046.24 616.149 1036.87 669.204 1016.48 718.91C990.312 782.671 944.83 840.057 877.508 871.938C857.546 881.296 836.383 888.267 814.408 892.167C736.712 906.334 655.18 886.333 580.242 856.376C541.59 840.892 504.09 822.323 468.938 802.714C346.495 733.737 231.364 646.934 108.734 601.549" stroke="url(#paint9_linear_404_5161)" stroke-width="0.75" stroke-miterlimit="10"/>
<path d="M3545.01 873.575C3335.77 991.498 3038.2 985.853 2818.98 862.085C2636.89 759.282 2521.83 590.062 2357.65 468.682C2304.25 429.354 2251.23 388.655 2192.37 355.174C2133.52 322.035 2065.31 297.161 1999.28 296.552C1946.6 295.858 1899.95 309.147 1850.51 318.691C1801.07 328.235 1743.34 333.729 1691.71 316.274C1641.64 299.492 1607.15 264.832 1582.5 232.844C1557.85 200.857 1544.18 165.381 1511.33 139.259C1467 104.318 1396.08 84.249 1323.83 91.5437C1238.62 100.63 1167.57 155.447 1127.64 219.301C1081.52 293.11 1070.87 378.663 1065.73 465.207C1064.05 498.044 1062.78 531.563 1060.31 564.405C1056.44 616.405 1047.48 670.147 1027.48 719.855C1001.71 783.961 956.23 841.695 888.515 873.581C868.552 882.939 847.389 889.911 825.021 893.814C746.932 907.984 665.393 887.298 590.449 856.654C551.793 840.827 514.293 822.256 479.138 802.304C356.299 732.98 241.554 645.483 120.853 595.978" stroke="url(#paint10_linear_404_5161)" stroke-width="0.75" stroke-miterlimit="10"/>
<path d="M3563.97 884.404C3355.86 996.517 3064.55 988.095 2848.11 867.376C2668.39 766.602 2552.19 602.504 2390.01 483.494C2334.23 442.467 2279.23 400.067 2217.61 365.233C2155.99 330.74 2084.63 305.2 2015.86 305.976C1960.84 306.665 1912.24 322.361 1860.85 333.628C1809.46 344.896 1749 352.116 1695.38 333.646C1643.35 315.85 1608.43 278.111 1584.54 243.38C1560.66 208.65 1548.53 170.083 1515.66 141.223C1472.88 103.876 1401.93 80.385 1328.49 87.3459C1241.7 95.4169 1170.28 152.635 1131.55 218.539C1087.01 293.37 1077.94 379.263 1073.98 466.149C1072.7 499.329 1071.81 532.506 1069.74 565.69C1066.27 618.034 1058.1 671.776 1038.1 722.172C1012.72 786.281 966.857 845.048 899.142 876.937C879.179 886.296 857.624 893.272 835.648 897.172C757.166 911.346 675.228 889.977 600.673 858.986C562.014 842.815 524.513 824.243 489.356 803.946C366.509 733.932 252.151 645.741 133.384 592.8" stroke="url(#paint11_linear_404_5161)" stroke-width="0.75" stroke-miterlimit="10"/>
<path d="M3582.54 894.894C3375.16 1001.2 3090.9 990.337 2877.23 871.984C2699.9 773.58 2582.56 614.263 2422.36 497.624C2363.82 455.243 2306.83 410.801 2242.84 374.952C2178.86 339.103 2103.95 313.242 2032.05 315.406C1974.68 317.136 1924.53 335.578 1870.8 348.571C1817.47 361.904 1754.66 370.508 1698.67 351.025C1644.66 332.214 1609.33 291.738 1585.81 253.924C1562.29 216.11 1552.1 175.134 1518.81 143.196C1477.59 103.442 1406.21 76.532 1331.59 82.8168C1243.61 90.2119 1171.43 149.834 1133.5 217.106C1090.53 292.959 1083.04 379.533 1080.66 466.417C1079.77 499.597 1079.27 533.116 1077.6 566.301C1074.92 618.987 1067.13 672.73 1047.53 723.47C1022.55 787.924 976.691 847.038 908.978 879.272C889.018 888.974 867.46 895.608 845.094 899.853C766.218 914.031 684.274 891.975 609.32 860.3C570.661 844.128 533.154 824.87 497.996 804.572C375.143 733.868 260.778 644.985 143.943 588.266" stroke="url(#paint12_linear_404_5161)" stroke-width="0.75" stroke-miterlimit="10"/>
<path d="M3601.49 905.732C3395.24 1006.56 3117.64 992.924 2906.35 877.282C2731 781.251 2612.53 626.716 2455.1 512.444C2394.18 468.364 2335.22 422.22 2268.47 385.017C2201.72 347.815 2124.06 321.284 2048.63 325.18C1988.92 328.293 1936.82 348.802 1881.54 364.2C1826.25 379.256 1760.7 389.247 1702.75 368.748C1646.76 348.922 1611.01 305.367 1588.25 265.151C1565.49 224.593 1556.46 180.869 1523.54 145.848C1483.86 103.686 1412.07 73.698 1336.26 78.9647C1246.7 85.3443 1174.14 147.368 1137.4 216.348C1096.02 293.225 1090.1 380.138 1088.9 467.364C1088.41 500.544 1088.7 534.404 1087.42 567.589C1085.13 620.619 1077.75 674.706 1058.93 725.446C1034.35 790.245 988.095 849.709 920.383 881.945C900.03 891.65 878.867 898.624 856.498 902.528C777.229 916.709 694.885 893.971 620.321 861.948C581.659 845.432 544.152 826.173 508.598 805.533C385.345 734.142 271.759 644.562 156.856 584.063" stroke="url(#paint13_linear_404_5161)" stroke-width="0.75" stroke-miterlimit="10"/>
<path d="M3620.45 916.564C3415.33 1011.24 3143.99 995.165 2935.09 882.235C2762.11 788.233 2642.5 638.822 2487.05 526.922C2423.77 481.485 2362.43 433.299 2293.31 394.74C2224.19 356.181 2142.99 328.987 2064.82 334.269C2002.75 338.423 1948.72 361.682 1891.48 378.804C1834.25 395.926 1765.96 407.303 1705.64 385.791C1647.68 364.949 1611.51 318.657 1589.12 275.356C1567.12 232.053 1559.25 185.583 1526.68 147.477C1488.17 102.91 1416.34 69.4988 1339.35 74.0893C1248.61 79.7927 1175.28 143.879 1139.35 214.912C1099.55 292.812 1095.2 380.065 1095.57 467.63C1095.87 501.151 1096.16 535.013 1095.28 568.199C1093.78 621.57 1086.78 675.66 1067.97 726.745C1043.78 791.89 997.534 851.701 929.431 884.284C909.078 893.99 887.914 900.965 865.152 904.871C785.49 919.056 703.14 895.632 628.179 863.266C589.514 846.407 552.007 827.146 516.452 806.505C393.193 734.423 279.601 644.151 167.025 580.212" stroke="url(#paint14_linear_404_5161)" stroke-width="0.75" stroke-miterlimit="10"/>
<path d="M3639.01 927.062C3435.02 1016.27 3170.34 997.753 2964.21 887.189C2793.61 795.558 2672.86 650.929 2519.4 541.401C2453.75 494.606 2390.42 444.376 2318.54 404.462C2246.66 364.548 2162.3 336.687 2081 343.699C2016.59 349.237 1961.01 374.903 1901.82 393.749C1842.64 412.938 1771.61 425.701 1709.32 403.174C1649.38 381.316 1612.79 331.943 1591.16 285.897C1569.54 239.851 1563.21 190.287 1530.62 149.099C1493.26 102.126 1421.4 65.2906 1343.22 69.2047C1250.9 74.2344 1177.2 140.724 1142.46 213.125C1104.24 292.048 1101.47 379.641 1103.03 467.55C1103.71 501.071 1104.79 534.931 1103.91 568.462C1102.8 621.836 1096.6 676.268 1078.19 728.04C1054.39 793.53 1007.76 854.033 940.047 886.617C919.694 896.324 898.138 903.302 875.769 907.206C795.713 921.395 712.96 896.944 638.389 864.232C599.721 847.029 562.213 827.766 526.656 806.78C402.997 734.01 290.187 643.383 179.146 575.322" stroke="url(#paint15_linear_404_5161)" stroke-width="0.75" stroke-miterlimit="10"/>
<path d="M3657.98 937.904C3455.11 1021.29 3196.7 1000.34 2993.34 892.147C2825.12 802.887 2702.84 663.046 2552.15 555.885C2483.73 507.393 2418.42 455.46 2344.17 414.19C2269.91 372.919 2182.02 344.393 2097.59 352.794C2030.83 359.374 1973.29 387.449 1912.17 408.704C1851.03 429.617 1777.27 444.109 1712.99 420.224C1651.09 397.35 1614.08 345.239 1593.21 296.447C1572.35 247.655 1567.17 195.342 1534.95 151.07C1498.75 101.348 1426.86 61.4308 1347.5 65.0106C1253.99 69.0217 1179.52 137.916 1145.58 212.029C1108.94 291.633 1107.75 379.908 1110.49 468.159C1111.57 501.68 1113.05 535.883 1112.95 569.412C1112.63 623.128 1106.82 677.904 1088.41 729.681C1065.01 795.516 1018.38 856.366 950.278 889.298C929.925 899.006 908.369 905.984 885.61 910.233C805.161 924.426 722.402 899.288 647.827 866.231C609.158 849.026 571.645 829.078 535.694 808.093C412.031 734.974 299.212 643.313 190.499 571.81" stroke="url(#paint16_linear_404_5161)" stroke-width="0.75" stroke-miterlimit="10"/>
<path d="M3676.54 948.403C3474.8 1025.98 3223.05 1002.24 3022.07 897.103C2855.83 809.877 2732.81 675.16 2584.11 570.373C2513.31 520.524 2446.02 466.546 2369.01 423.921C2291.99 381.637 2200.94 352.102 2113.77 362.233C2044.67 370.196 1985.59 400.678 1922.11 423.66C1859.03 446.64 1782.53 462.178 1716.28 437.618C1652.01 413.731 1614.97 358.536 1594.47 307C1573.98 255.465 1570.35 200.401 1538.49 153.043C1503.45 100.915 1431.53 57.5729 1350.98 60.4761C1256.29 63.8107 1181.06 135.111 1148.31 210.933C1113.25 291.56 1113.63 380.175 1117.95 468.765C1119.42 502.629 1121.3 536.832 1121.59 570.704C1121.67 624.763 1116.65 679.539 1098.63 731.66C1075.63 797.498 1028.61 859.04 960.506 891.974C940.153 901.683 918.6 909.004 895.444 912.914C814.602 927.11 731.443 901.289 656.862 867.544C618.19 849.996 580.677 830.046 544.723 808.717C421.054 734.908 308.227 642.554 201.446 567.27" stroke="url(#paint17_linear_404_5161)" stroke-width="0.75" stroke-miterlimit="10"/>
<path d="M3695.5 959.249C3494.89 1031.35 3249.79 1004.83 3051.19 902.063C2887.33 817.208 2762.78 687.279 2616.45 584.862C2543.29 533.654 2473.63 477.632 2394.24 433.649C2314.85 390.008 2220.26 360.15 2129.96 371.328C2058.5 380.333 1997.48 413.568 1932.45 438.273C1867.42 462.979 1788.18 480.246 1719.96 454.67C1653.71 429.766 1616.25 371.831 1596.51 317.206C1576.78 262.581 1573.91 205.112 1542.42 154.667C1508.54 100.131 1436.59 53.3634 1354.86 55.5899C1258.58 58.2503 1182.98 131.613 1151.03 209.148C1117.55 290.799 1119.9 379.753 1125 468.346C1127.27 502.208 1129.53 536.413 1129.83 570.629C1130.7 625.031 1126.07 679.81 1108.45 732.275C1085.84 798.46 1038.82 860.35 970.724 893.629C950.373 903.681 928.424 910.663 905.662 914.571C824.422 928.428 741.26 902.262 666.676 868.172C628.001 850.28 590.094 830.331 554.53 808.655C430.461 734.157 318.414 641.105 213.567 562.38" stroke="url(#paint18_linear_404_5161)" stroke-width="0.75" stroke-miterlimit="10"/>
<path d="M3714.46 970.097C3514.98 1036.38 3276.14 1007.43 3080.32 907.366C2918.83 824.542 2793.15 699.744 2649.2 599.699C2573.27 547.135 2502.02 489.066 2419.87 444.07C2337.72 399.074 2239.98 368.55 2146.94 381.456C2073.14 391.846 2010.17 427.491 1943.19 454.264C1876.21 481.037 1794.23 499.691 1724.03 472.757C1655.81 446.837 1617.93 385.82 1598.57 328.793C1579.59 271.421 1577.49 211.205 1546.76 157.671C1514.03 100.728 1442.06 50.8772 1359.14 52.0848C1261.68 53.7262 1185.3 129.837 1154.55 208.74C1122.65 291.414 1126.58 381.048 1133.25 469.639C1135.91 503.502 1138.57 538.048 1139.66 572.262C1141.31 627.006 1137.08 682.129 1119.46 734.598C1097.25 801.128 1049.84 863.709 981.743 896.991C961.393 907.044 939.443 914.026 916.288 917.937C834.655 931.798 751.094 904.948 676.896 870.168C638.221 852.275 600.31 831.982 564.743 809.962C440.668 734.774 328.617 641.372 225.699 558.522" stroke="url(#paint19_linear_404_5161)" stroke-width="0.75" stroke-miterlimit="10"/>
<path d="M3733.03 980.606C3534.67 1041.06 3302.5 1009.67 3109.05 911.986C2949.94 831.536 2822.73 711.869 2681.16 613.854C2602.86 559.931 2529.62 499.816 2444.71 453.465C2360.19 407.111 2258.9 375.921 2162.73 390.559C2086.19 401.994 2022.06 440.045 1953.14 468.886C1884.21 497.727 1799.88 517.425 1727.32 489.818C1657.12 462.882 1618.43 399.127 1600.22 339.007C1581.61 278.889 1581.06 215.92 1550.69 159.3C1518.73 99.9509 1447.12 46.6705 1363.01 47.2011C1263.97 48.168 1186.83 126.344 1157.67 207.297C1127.35 290.995 1132.86 380.971 1140.71 469.904C1143.76 504.109 1146.82 538.656 1148.3 572.871C1150.35 627.617 1146.9 683.082 1129.68 736.239C1107.86 803.113 1060.46 866.043 991.97 899.33C971.619 909.384 949.672 916.709 926.517 920.62C844.491 934.485 760.923 906.948 686.329 871.825C647.65 853.588 609.737 832.951 573.779 811.274C449.304 735.397 338.033 641.297 237.049 555.005" stroke="url(#paint20_linear_404_5161)" stroke-width="0.75" stroke-miterlimit="10"/>
<path d="M3751.99 991.458C3554.76 1046.1 3329.24 1012.26 3138.18 917.292C2981.06 839.218 2852.7 724.339 2713.51 628.697C2632.84 573.415 2557.23 511.256 2470.34 463.544C2383.05 415.834 2278.62 383.977 2179.31 400.006C2100.42 412.825 2034.35 453.288 1963.48 483.855C1892.6 514.422 1805.53 535.85 1731 507.227C1658.82 479.274 1619.72 412.435 1601.87 349.569C1584.03 286.704 1584.23 220.644 1554.24 161.278C1523.43 99.1787 1451.79 42.8134 1366.5 42.6669C1266.27 42.6145 1188.36 123.198 1160 205.864C1130.87 290.247 1138.35 380.902 1147.38 470.178C1150.83 504.383 1154.67 538.929 1156.15 573.489C1158.99 628.577 1155.54 684.046 1138.72 737.547C1117.3 804.768 1069.5 868.047 1001.41 901.677C981.057 911.731 959.111 919.057 935.562 922.971C853.142 936.839 769.172 908.276 694.971 873.148C656.289 854.567 618.375 833.927 582.414 811.906C457.935 735.68 346.654 640.546 247.602 550.469" stroke="url(#paint21_linear_404_5161)" stroke-width="0.75" stroke-miterlimit="10"/>
<path d="M3770.55 1001.97C3574.45 1051.13 3355.2 1014.18 3166.91 921.916C3012.16 845.874 2882.67 736.469 2745.47 642.858C2662.03 586.22 2584.83 522.012 2495.17 472.943C2405.52 423.875 2297.54 391.352 2195.5 409.111C2114.26 422.973 2046.64 466.188 1973.42 498.826C1900.6 531.462 1810.79 554.278 1733.88 524.298C1659.74 495.328 1620.21 425.747 1603.13 359.791C1586.05 294.176 1587.02 225.367 1557.78 162.91C1527.73 98.4042 1456.85 38.606 1369.98 38.127C1268.57 37.3975 1189.9 120.389 1162.73 204.425C1135.17 289.832 1144.23 380.828 1154.84 470.444C1159.07 504.648 1162.91 539.538 1165.18 574.097C1168.42 629.529 1165.76 685.342 1149.33 738.844C1128.3 806.411 1080.51 870.038 1012.03 904.016C991.675 914.071 969.335 921.401 946.179 925.312C863.366 939.184 779.389 909.934 705.181 874.117C666.103 855.195 628.582 834.551 592.618 812.186C468.133 735.268 356.845 639.441 260.121 545.917" stroke="url(#paint22_linear_404_5161)" stroke-width="0.75" stroke-miterlimit="10"/>
<path d="M3789.51 1012.83C3594.54 1056.17 3381.95 1016.77 3196.03 927.226C3043.67 853.559 2912.65 748.948 2778.21 658.051C2692.41 600.054 2612.83 533.801 2520.81 483.374C2428.39 432.95 2317.26 399.76 2212.08 418.909C2128.5 434.157 2058.93 479.441 1984.16 514.146C1909.39 548.85 1816.84 573.055 1737.96 542.058C1661.84 512.071 1621.89 439.406 1605.57 371.043C1588.86 302.34 1590.98 231.122 1562.5 165.574C1533.22 98.3194 1462.7 35.4329 1374.65 34.2766C1271.66 32.8723 1192.22 117.929 1166.24 204.018C1140.27 290.449 1150.9 381.784 1162.69 471.743C1167.32 506.289 1171.95 541.178 1174.22 575.739C1178.24 631.514 1175.98 687.328 1159.55 741.177C1138.92 808.747 1090.74 873.409 1022.25 907.047C1001.9 917.103 979.564 924.433 956.015 928.347C872.808 942.223 788.432 912.287 714.221 876.126C675.143 857.202 637.618 836.214 601.258 813.507C476.373 735.901 365.868 639.719 270.679 542.07" stroke="url(#paint23_linear_404_5161)" stroke-width="0.75" stroke-miterlimit="10"/>
<path d="M3808.47 1023.69C3614.63 1061.21 3408.69 1019.37 3225.16 932.197C3075.17 860.905 2943.01 761.084 2810.56 672.562C2722 613.208 2640.82 544.905 2546.04 493.121C2451.25 441.337 2336.57 407.482 2228.27 428.365C2142.33 444.655 2070.83 492.695 1994.11 529.127C1917.38 565.559 1822.1 591.152 1741.24 559.48C1663.14 528.475 1622.78 453.068 1606.83 381.615C1590.87 310.161 1593.76 236.193 1566.04 167.553C1537.92 97.8883 1467.38 31.9148 1378.13 29.7388C1273.95 27.3147 1193.75 114.781 1168.97 202.582C1144.18 290.041 1156.78 381.714 1169.75 472.016C1174.77 506.563 1179.8 541.453 1182.46 576.357C1186.88 632.134 1185.41 688.633 1169.37 742.828C1149.14 810.743 1100.97 875.753 1032.48 909.737C1012.13 919.794 989.792 927.467 966.243 931.381C882.643 945.261 798.26 914.638 724.042 877.788C684.961 858.52 647.433 837.188 611.073 814.479C486.181 736.181 375.669 639.305 282.805 537.867" stroke="url(#paint24_linear_404_5161)" stroke-width="0.75" stroke-miterlimit="10"/>
<path d="M3827.04 1034.22C3634.32 1065.91 3434.65 1021.63 3254.29 937.167C3106.28 867.91 2972.99 773.564 2842.92 687.073C2751.59 626.361 2668.43 556.009 2571.27 502.866C2473.72 450.067 2355.9 415.543 2244.85 437.472C2156.57 455.149 2083.51 505.6 2004.84 543.76C1926.17 582.262 1828.14 609.245 1745.31 576.212C1665.24 544.19 1624.46 465.695 1609.26 391.491C1594.07 317.287 1597.72 240.225 1570.36 168.837C1543 96.4211 1472.83 27.3573 1382.4 24.5037C1276.64 21.4044 1195.67 111.281 1172.08 200.452C1148.88 288.937 1163.05 381.295 1177.6 471.595C1183.01 506.143 1188.43 541.376 1191.88 576.621C1197.09 632.741 1196.01 689.243 1180.37 743.783C1160.53 812.045 1111.97 877.407 1043.49 911.736C1022.75 922.139 1000.8 929.467 976.857 933.385C892.864 947.268 808.474 915.957 733.86 878.764C694.775 859.152 657.248 837.818 620.887 815.106C495.988 736.116 385.862 638.543 294.933 533.658" stroke="url(#paint25_linear_404_5161)" stroke-width="0.75" stroke-miterlimit="10"/>
<path d="M3846 1045.09C3654.41 1070.95 3461.4 1024.23 3283.41 942.145C3137.79 875.263 3002.97 785.713 2875.66 701.594C2781.96 639.521 2696.82 567.122 2596.9 512.964C2496.98 458.806 2375.61 423.617 2261.44 447.279C2170.8 466 2095.8 518.864 2015.18 559.436C1934.56 599.666 1833.8 628.38 1748.99 594.33C1666.94 561.29 1625.75 480.052 1610.92 403.1C1596.1 326.148 1600.9 246.332 1574.3 171.509C1547.71 96.6851 1477.89 24.1887 1386.28 20.6574C1279.33 16.538 1197.59 108.824 1175.2 200.05C1153.19 289.562 1169.33 382.258 1185.06 472.902C1191.26 507.79 1197.07 543.023 1200.53 578.271C1206.13 634.736 1205.84 691.238 1190.2 746.125C1170.76 814.733 1122.2 880.443 1053.33 915.12C1032.59 925.523 1010.24 932.855 986.302 936.773C901.915 950.66 817.126 918.664 742.898 880.78C703.813 861.166 666.282 839.488 629.918 816.432C504.619 736.752 394.88 638.483 305.882 529.811" stroke="url(#paint26_linear_404_5161)" stroke-width="0.75" stroke-miterlimit="10"/>
<path d="M317.61 525.267C429.727 670.448 579.773 793.13 752.713 881.764C826.941 919.651 912.133 952.675 996.52 938.787C1100.54 922.035 1175.65 836.631 1200.02 747.095C1224.79 657.557 1209.03 563.822 1192.12 472.835C1175.2 381.847 1157.09 288.812 1177.53 198.273C1198.73 105.675 1281.23 10.9785 1389.76 15.7734C1482.16 19.985 1552 95.2282 1577.45 173.149C1603.28 250.724 1597.72 333.292 1611.78 413.339C1625.85 493.044 1667.46 577.369 1751.48 611.428C1838.66 646.494 1941.77 616.734 2024.34 574.091C2106.9 531.79 2183.46 476.514 2276.83 456.404C2394.14 431.007 2518.66 466.865 2620.96 522.726C2723.64 578.242 2810.38 653.036 2906.84 716.126C3185.16 898.956 3517.82 1092.75 3863.78 1055.63" stroke="url(#paint27_linear_404_5161)" stroke-width="0.75" stroke-miterlimit="10"/>
</g>
<defs>
<linearGradient id="paint0_linear_404_5161" x1="3363.33" y1="535.279" x2="8.88273" y2="465.221" gradientUnits="userSpaceOnUse">
<stop stop-color="#1D4BEF"/>
<stop offset="1" stop-color="#791DEF"/>
</linearGradient>
<linearGradient id="paint1_linear_404_5161" x1="3382.23" y1="537.368" x2="20.6656" y2="467.596" gradientUnits="userSpaceOnUse">
<stop stop-color="#1D4BEF"/>
<stop offset="1" stop-color="#791DEF"/>
</linearGradient>
<linearGradient id="paint2_linear_404_5161" x1="3400.73" y1="538.516" x2="31.6484" y2="469.192" gradientUnits="userSpaceOnUse">
<stop stop-color="#1D4BEF"/>
<stop offset="1" stop-color="#791DEF"/>
</linearGradient>
<linearGradient id="paint3_linear_404_5161" x1="3419.62" y1="540.334" x2="43.0298" y2="471.389" gradientUnits="userSpaceOnUse">
<stop stop-color="#1D4BEF"/>
<stop offset="1" stop-color="#791DEF"/>
</linearGradient>
<linearGradient id="paint4_linear_404_5161" x1="3438.11" y1="541.184" x2="55.5659" y2="472.961" gradientUnits="userSpaceOnUse">
<stop stop-color="#1D4BEF"/>
<stop offset="1" stop-color="#791DEF"/>
</linearGradient>
<linearGradient id="paint5_linear_404_5161" x1="3457" y1="542.109" x2="66.9348" y2="474.403" gradientUnits="userSpaceOnUse">
<stop stop-color="#1D4BEF"/>
<stop offset="1" stop-color="#791DEF"/>
</linearGradient>
<linearGradient id="paint6_linear_404_5161" x1="3475.89" y1="543.279" x2="78.3053" y2="476.071" gradientUnits="userSpaceOnUse">
<stop stop-color="#1D4BEF"/>
<stop offset="1" stop-color="#791DEF"/>
</linearGradient>
<linearGradient id="paint7_linear_404_5161" x1="3494.38" y1="543.627" x2="89.2686" y2="477.078" gradientUnits="userSpaceOnUse">
<stop stop-color="#1D4BEF"/>
<stop offset="1" stop-color="#791DEF"/>
</linearGradient>
<linearGradient id="paint8_linear_404_5161" x1="3513.27" y1="544.468" x2="101.023" y2="478.548" gradientUnits="userSpaceOnUse">
<stop stop-color="#1D4BEF"/>
<stop offset="1" stop-color="#791DEF"/>
</linearGradient>
<linearGradient id="paint9_linear_404_5161" x1="3531.77" y1="545.452" x2="111.994" y2="480.15" gradientUnits="userSpaceOnUse">
<stop stop-color="#1D4BEF"/>
<stop offset="1" stop-color="#791DEF"/>
</linearGradient>
<linearGradient id="paint10_linear_404_5161" x1="3550.65" y1="545.814" x2="124.136" y2="481.192" gradientUnits="userSpaceOnUse">
<stop stop-color="#1D4BEF"/>
<stop offset="1" stop-color="#791DEF"/>
</linearGradient>
<linearGradient id="paint11_linear_404_5161" x1="3569.54" y1="546.574" x2="136.675" y2="482.619" gradientUnits="userSpaceOnUse">
<stop stop-color="#1D4BEF"/>
<stop offset="1" stop-color="#791DEF"/>
</linearGradient>
<linearGradient id="paint12_linear_404_5161" x1="3588.04" y1="547.095" x2="147.254" y2="483.734" gradientUnits="userSpaceOnUse">
<stop stop-color="#1D4BEF"/>
<stop offset="1" stop-color="#791DEF"/>
</linearGradient>
<linearGradient id="paint13_linear_404_5161" x1="3606.93" y1="548.252" x2="160.187" y2="485.554" gradientUnits="userSpaceOnUse">
<stop stop-color="#1D4BEF"/>
<stop offset="1" stop-color="#791DEF"/>
</linearGradient>
<linearGradient id="paint14_linear_404_5161" x1="3625.82" y1="548.686" x2="170.37" y2="486.598" gradientUnits="userSpaceOnUse">
<stop stop-color="#1D4BEF"/>
<stop offset="1" stop-color="#791DEF"/>
</linearGradient>
<linearGradient id="paint15_linear_404_5161" x1="3644.31" y1="549.257" x2="182.51" y2="487.902" gradientUnits="userSpaceOnUse">
<stop stop-color="#1D4BEF"/>
<stop offset="1" stop-color="#791DEF"/>
</linearGradient>
<linearGradient id="paint16_linear_404_5161" x1="3663.2" y1="550.209" x2="193.878" y2="489.477" gradientUnits="userSpaceOnUse">
<stop stop-color="#1D4BEF"/>
<stop offset="1" stop-color="#791DEF"/>
</linearGradient>
<linearGradient id="paint17_linear_404_5161" x1="3681.7" y1="550.853" x2="204.848" y2="490.734" gradientUnits="userSpaceOnUse">
<stop stop-color="#1D4BEF"/>
<stop offset="1" stop-color="#791DEF"/>
</linearGradient>
<linearGradient id="paint18_linear_404_5161" x1="3700.59" y1="551.701" x2="216.991" y2="492.319" gradientUnits="userSpaceOnUse">
<stop stop-color="#1D4BEF"/>
<stop offset="1" stop-color="#791DEF"/>
</linearGradient>
<linearGradient id="paint19_linear_404_5161" x1="3719.48" y1="553.202" x2="229.148" y2="494.417" gradientUnits="userSpaceOnUse">
<stop stop-color="#1D4BEF"/>
<stop offset="1" stop-color="#791DEF"/>
</linearGradient>
<linearGradient id="paint20_linear_404_5161" x1="3737.98" y1="553.95" x2="240.511" y2="495.846" gradientUnits="userSpaceOnUse">
<stop stop-color="#1D4BEF"/>
<stop offset="1" stop-color="#791DEF"/>
</linearGradient>
<linearGradient id="paint21_linear_404_5161" x1="3756.88" y1="555.15" x2="251.092" y2="497.683" gradientUnits="userSpaceOnUse">
<stop stop-color="#1D4BEF"/>
<stop offset="1" stop-color="#791DEF"/>
</linearGradient>
<linearGradient id="paint22_linear_404_5161" x1="3775.37" y1="556.327" x2="263.635" y2="499.58" gradientUnits="userSpaceOnUse">
<stop stop-color="#1D4BEF"/>
<stop offset="1" stop-color="#791DEF"/>
</linearGradient>
<linearGradient id="paint23_linear_404_5161" x1="3794.28" y1="558.111" x2="274.222" y2="501.959" gradientUnits="userSpaceOnUse">
<stop stop-color="#1D4BEF"/>
<stop offset="1" stop-color="#791DEF"/>
</linearGradient>
<linearGradient id="paint24_linear_404_5161" x1="3813.17" y1="559.72" x2="286.374" y2="504.301" gradientUnits="userSpaceOnUse">
<stop stop-color="#1D4BEF"/>
<stop offset="1" stop-color="#791DEF"/>
</linearGradient>
<linearGradient id="paint25_linear_404_5161" x1="3831.67" y1="561.02" x2="298.523" y2="506.392" gradientUnits="userSpaceOnUse">
<stop stop-color="#1D4BEF"/>
<stop offset="1" stop-color="#791DEF"/>
</linearGradient>
<linearGradient id="paint26_linear_404_5161" x1="3850.58" y1="563.352" x2="309.504" y2="509.386" gradientUnits="userSpaceOnUse">
<stop stop-color="#1D4BEF"/>
<stop offset="1" stop-color="#791DEF"/>
</linearGradient>
<linearGradient id="paint27_linear_404_5161" x1="3868.3" y1="565.354" x2="321.262" y2="512.214" gradientUnits="userSpaceOnUse">
<stop stop-color="#1D4BEF"/>
<stop offset="1" stop-color="#791DEF"/>
</linearGradient>
</defs>
</svg>
