<svg width="3865" height="1084" viewBox="0 0 3865 1084" fill="none" xmlns="http://www.w3.org/2000/svg">
<g opacity="0.2">
<path d="M3356.99 770.879C3137.18 946.946 2774.54 966.566 2530.05 815.42C2324.73 689.185 2216.93 473.086 2033.72 323.021C1881.84 198.937 1678.32 124.269 1471.26 116.667C1334.93 111.82 1187.6 140.034 1097.94 229.518C1010.61 316.928 995.975 441.123 973.769 556.071C951.167 670.677 905.525 796.396 787.555 849.913C662.557 906.902 508.435 858.817 387.505 794.756C266.187 731.041 148.192 649.43 7.84416 637.038" stroke="url(#paint0_linear_403_4230)" stroke-width="0.75" stroke-miterlimit="10"/>
<path d="M3375.96 781.755C3157.26 951.976 2801.26 968.813 2559.17 820.746C2356.23 696.561 2248.48 484.582 2066.49 337.946C2034.37 311.968 2000.71 288.06 1964.71 266.227C1929.11 244.735 1890.8 225.664 1851.74 211.066C1820.58 199.525 1789.45 190.391 1757.54 182.291C1725.64 174.192 1692.17 167.132 1659.08 158.695C1627.18 150.939 1596.05 142.149 1566.13 135.415C1535.8 128.34 1506.28 122.293 1475.61 119.001C1415.05 112.415 1350.29 115.477 1288.79 129.182C1215.54 145.35 1149.56 178.332 1101.46 228.764C1039.78 293.359 1016.41 376.337 1000.13 461.001C993.835 493.009 988.723 525.699 982.814 557.361C973.585 607.262 960.065 659.592 937.845 706.805C908.726 768.493 864.985 822.343 798.191 852.921C778.269 861.957 757.921 868.244 736.764 872.471C662.318 886.926 582.426 872.524 507.095 845.378C468.837 831.464 431.327 814.452 396.943 796.049C275.617 731.645 158.007 649.343 19.5776 633.158" stroke="url(#paint1_linear_403_4230)" stroke-width="0.75" stroke-miterlimit="10"/>
<path d="M3394.54 792.287C3176.95 956.663 2827.21 971.064 2587.89 825.386C2387.34 703.247 2278.85 495.735 2098.47 352.182C2063.98 324.839 2027.94 298.879 1989.57 275.68C1951.21 252.826 1909.74 233.082 1867.56 219.874C1834.05 209.375 1801.38 202.998 1767.14 196.629C1733.3 190.602 1697.09 184.587 1662.03 175.471C1628.16 166.693 1596.6 155.153 1567.03 145.323C1537.46 135.494 1509.46 125.656 1478.37 120.304C1419.34 109.927 1354.17 111.271 1291.48 123.951C1217.05 139.438 1150.31 174.831 1103.4 226.635C1043.7 292.254 1021.51 375.573 1006.42 460.578C1000.91 492.927 996.184 525.272 990.671 557.277C982.232 607.52 969.105 659.849 946.889 707.408C918.167 769.44 874.43 823.635 807.64 854.559C787.718 863.594 767.375 870.225 746.214 874.109C671.375 888.566 591.081 873.478 516.14 845.985C477.881 832.071 440.368 814.714 405.587 795.969C284.261 731.563 167.035 648.568 30.5252 628.592" stroke="url(#paint2_linear_403_4230)" stroke-width="0.75" stroke-miterlimit="10"/>
<path d="M3413.52 803.164C3197.04 961.693 2853.94 973.655 2617.01 830.713C2418.84 710.967 2309.63 507.922 2130.85 367.107C2093.98 338.056 2055.95 310.385 2014.82 285.824C1973.69 261.607 1929.07 241.189 1884.17 229.713C1848.32 220.601 1813.71 216.641 1777.93 212.342C1742.14 208.043 1703.21 203.76 1666.17 193.622C1629.93 183.823 1598.34 169.189 1569.52 156.948C1540.7 144.363 1514.24 131.079 1483.12 123.32C1426.01 109.152 1360.02 108.437 1296.15 120.434C1220.13 134.898 1153.04 173.045 1106.93 226.221C1048.81 293.21 1028.2 376.524 1014.28 461.87C1009.17 494.217 1004.84 526.905 999.72 558.909C991.677 609.496 979.336 661.823 957.52 710.069C929.196 772.444 885.074 827.33 818.28 857.911C798.358 866.947 778.015 873.578 756.461 877.464C681.23 891.924 600.924 875.803 525.586 847.968C486.931 833.711 449.81 816.352 415.029 797.606C293.294 731.824 176.457 648.482 41.866 624.713" stroke="url(#paint3_linear_403_4230)" stroke-width="0.75" stroke-miterlimit="10"/>
<path d="M3432.1 814.042C3216.73 967.07 2880.28 976.25 2645.74 835.696C2449.95 718.34 2340 519.761 2163.22 381.681C2123.98 351.264 2083.97 321.538 2040.46 295.956C1996.96 270.374 1948.8 249.284 1900.77 239.198C1862.58 231.128 1826.04 229.584 1788.31 227.358C1750.59 225.132 1709.32 222.235 1669.91 210.732C1631.69 199.911 1599.67 182.527 1571.61 167.187C1543.15 151.848 1518.6 134.772 1487.45 124.605C1432.26 106.644 1365.47 103.87 1300.41 115.186C1223.21 128.968 1155.74 169.526 1110.44 224.42C1054.3 292.434 1034.87 376.09 1022.53 461.776C1017.81 494.123 1013.88 527.154 1009.54 559.156C1002.29 610.085 989.952 662.758 968.53 711.004C940.602 773.725 896.484 828.957 829.302 859.885C809.38 868.921 788.644 875.554 767.487 879.783C691.863 894.244 611.157 877.438 536.208 849.255C497.549 834.654 460.424 816.95 425.643 798.204C303.904 732.075 187.055 647.697 54.3831 620.135" stroke="url(#paint4_linear_403_4230)" stroke-width="0.75" stroke-miterlimit="10"/>
<path d="M3451.07 824.572C3236.82 971.755 2906.62 978.497 2674.86 840.676C2481.06 725.37 2370.38 531.601 2195.6 396.258C2153.98 364.132 2111.59 332.697 2065.72 305.75C2019.45 278.804 1968.14 257.041 1916.99 248.689C1876.46 242.006 1838.37 242.876 1798.7 242.379C1759.03 241.881 1715.03 240.373 1673.65 228.191C1633.45 216.348 1601.01 195.87 1573.31 177.776C1545.6 159.683 1522.97 139.158 1491.01 126.587C1437.75 105.521 1370.14 99.9994 1303.9 110.978C1225.5 123.734 1157.28 166.704 1112.79 223.316C1058.23 292.356 1040.37 376.352 1029.22 462.379C1024.89 495.069 1021.74 527.754 1017.41 560.101C1010.56 611.374 999.003 664.045 977.978 712.635C950.443 775.355 905.941 831.28 839.155 862.55C819.237 871.931 798.498 878.221 776.948 882.451C700.931 896.915 620.217 879.42 545.26 850.548C506.597 835.602 469.472 817.898 434.687 798.807C312.548 731.99 196.083 646.919 65.727 615.906" stroke="url(#paint5_linear_403_4230)" stroke-width="0.75" stroke-miterlimit="10"/>
<path d="M3470.05 835.45C3256.9 976.786 2933.35 980.745 2703.98 845.659C2512.57 732.745 2401.15 543.444 2227.97 410.839C2183.98 377.347 2139.6 343.858 2090.96 315.547C2042.32 287.236 1987.48 265.145 1933.59 258.182C1890.72 252.541 1850.7 256.172 1809.09 257.747C1767.48 259.323 1720.75 259.203 1677 246C1634.83 233.134 1601.96 209.906 1575.01 189.058C1548.06 168.209 1526.96 144.58 1494.97 129.258C1443.63 105.087 1375.2 96.8179 1307.78 107.115C1227.81 119.191 1159.22 164.571 1115.92 222.555C1063.34 292.62 1046.67 377.301 1037.08 462.979C1033.54 495.667 1030.39 528.697 1026.46 561.043C1020.38 612.314 1009.23 665.329 988.601 714.262C961.463 777.327 916.965 833.597 849.787 864.87C829.869 874.251 809.133 880.885 787.579 884.771C711.17 899.238 630.055 881.056 555.094 851.84C516.431 836.894 479.302 818.845 444.121 799.411C321.973 731.904 205.898 646.484 77.0635 611.336" stroke="url(#paint6_linear_403_4230)" stroke-width="0.75" stroke-miterlimit="10"/>
<path d="M3488.63 845.985C3276.59 981.474 2959.69 982.994 2732.7 850.642C2543.68 740.119 2431.14 555.286 2260.35 425.416C2213.98 390.215 2167.22 355.015 2116.21 325.339C2064.81 295.664 2006.81 272.9 1949.8 267.327C1904.59 263.073 1863.03 268.775 1819.09 272.425C1775.54 276.073 1726.07 277.342 1680.34 262.773C1636.2 248.884 1602.9 222.562 1576.3 198.959C1549.71 175.012 1530.94 148.276 1498.52 130.548C1449.11 103.271 1379.86 92.2543 1311.25 101.869C1230.09 113.264 1161.15 161.055 1118.26 220.415C1067.26 291.507 1052.16 376.528 1043.75 462.548C1040.6 495.236 1038.25 528.607 1034.7 560.952C1029.03 612.568 1018.66 665.925 998.04 715.204C971.299 778.614 926.417 835.576 859.239 866.851C839.321 876.232 818.193 882.868 796.639 886.754C719.834 900.88 638.715 882.353 563.749 852.792C525.082 837.501 487.954 819.451 452.768 799.673C330.22 731.476 214.529 645.364 88.0109 606.764" stroke="url(#paint7_linear_403_4230)" stroke-width="0.75" stroke-miterlimit="10"/>
<path d="M3507.61 856.863C3296.68 986.505 2986.03 985.588 2761.82 855.625C2575.18 747.149 2461.52 567.473 2292.72 439.995C2243.98 403.084 2195.24 366.173 2141.46 335.133C2087.69 304.093 2026.15 280.657 1966.02 276.818C1918.46 273.607 1874.97 282.07 1829.48 287.447C1783.98 292.824 1731.79 295.826 1684.09 280.234C1637.96 265.322 1604.24 236.249 1578.4 209.546C1552.55 182.844 1535.31 153.004 1502.48 132.526C1455 102.487 1384.93 88.7219 1315.13 97.3111C1232.39 107.682 1163.08 157.885 1121.39 219.305C1072.37 291.422 1058.45 376.784 1051.22 463.146C1048.47 496.177 1046.51 529.204 1043.36 562.237C1038.48 614.194 1028.51 667.552 1008.28 717.175C981.933 780.929 937.055 838.237 869.489 869.859C849.571 879.241 828.443 885.877 806.893 890.108C729.695 904.235 648.569 885.02 573.595 854.77C534.924 839.134 497.791 820.74 462.61 801.305C340.054 732.418 224.748 645.612 99.7557 603.219" stroke="url(#paint8_linear_403_4230)" stroke-width="0.75" stroke-miterlimit="10"/>
<path d="M3526.19 867.746C3316.38 991.885 3012.37 988.184 2790.55 860.955C2605.9 754.873 2491.51 579.665 2324.71 454.924C2273.59 416.647 2222.47 377.683 2166.33 345.277C2109.79 313.217 2045.09 288.763 1982.23 286.313C1932.33 284.488 1886.91 295.369 1839.48 302.819C1792.05 310.269 1737.11 314.316 1687.44 298.045C1639.34 282.11 1605.19 249.943 1580.1 220.484C1554.62 191.027 1539.31 158.425 1506.43 134.85C1460.49 102.052 1390 85.1926 1319.01 93.0999C1235.08 102.789 1165.01 155.405 1124.13 218.199C1076.69 291.344 1064.74 377.044 1058.7 463.747C1056.34 496.778 1054.77 530.148 1052.02 563.18C1047.53 615.482 1038.34 668.838 1018.12 718.807C992.17 782.905 946.904 840.562 879.734 872.527C859.817 881.909 838.693 888.889 816.746 892.778C739.156 906.908 657.624 886.662 582.651 856.41C543.98 840.774 506.45 822.037 471.265 802.257C348.701 732.68 233.387 645.182 110.711 599.338" stroke="url(#paint9_linear_403_4230)" stroke-width="0.75" stroke-miterlimit="10"/>
<path d="M3545.16 878.279C3336.46 996.571 3039.1 990.43 2819.67 865.592C2637.4 761.902 2521.89 591.507 2357.47 469.157C2303.99 429.514 2250.88 388.493 2191.97 354.723C2133.06 321.297 2064.82 296.171 1998.83 295.456C1946.2 294.677 1899.63 307.971 1850.26 317.494C1800.89 327.018 1743.22 332.454 1691.57 314.816C1641.49 297.858 1606.91 262.939 1582.18 230.725C1557.46 198.512 1543.68 162.806 1510.77 136.478C1466.37 101.263 1395.45 80.9656 1323.27 88.1909C1238.16 97.1981 1167.34 152.228 1127.64 216.395C1081.79 290.567 1071.42 376.607 1066.55 463.653C1064.98 496.681 1063.81 530.394 1061.45 563.426C1057.75 615.726 1048.96 669.77 1029.13 719.74C1003.58 784.183 958.316 842.186 890.754 874.154C870.837 883.537 849.713 890.517 827.374 894.408C749.391 908.541 667.851 887.606 592.87 856.665C554.195 840.684 516.666 821.946 481.476 801.821C358.516 731.899 243.586 643.708 122.825 593.724" stroke="url(#paint10_linear_403_4230)" stroke-width="0.75" stroke-miterlimit="10"/>
<path d="M3564.14 889.158C3356.55 1001.6 3065.44 992.678 2848.79 870.917C2668.91 769.275 2552.28 604.038 2389.85 484.081C2333.99 442.728 2278.9 399.995 2217.22 364.862C2155.54 330.072 2084.16 304.272 2015.44 304.945C1960.47 305.553 1911.96 321.265 1860.65 332.518C1809.33 343.771 1748.94 350.94 1695.31 332.279C1643.26 314.297 1608.25 276.284 1584.27 241.314C1560.3 206.343 1548.06 167.532 1515.12 138.452C1472.26 100.821 1401.29 77.0825 1327.94 83.9698C1241.24 91.953 1170.05 149.394 1131.56 215.622C1087.29 290.821 1078.49 377.202 1074.81 464.589C1073.64 497.96 1072.85 531.33 1070.89 564.705C1067.59 617.349 1059.58 671.392 1039.76 722.051C1014.6 786.495 968.962 845.534 901.4 877.504C881.483 886.887 859.966 893.869 838.02 897.758C759.644 911.893 677.704 890.272 603.111 858.983C564.432 842.658 526.903 823.919 491.71 803.449C368.741 732.836 254.196 643.952 135.358 590.517" stroke="url(#paint11_linear_403_4230)" stroke-width="0.75" stroke-miterlimit="10"/>
<path d="M3582.73 899.697C3375.85 1006.29 3091.78 994.928 2877.91 875.557C2700.41 776.307 2582.67 615.885 2422.23 498.322C2363.6 455.604 2306.52 410.815 2242.47 374.66C2178.43 338.504 2103.5 312.376 2031.66 314.44C1974.34 316.091 1924.3 334.563 1870.65 347.547C1817.4 360.874 1754.66 369.431 1698.67 349.748C1644.64 330.744 1609.21 289.979 1585.59 251.909C1561.97 213.84 1551.66 172.61 1518.29 140.435C1476.98 100.387 1405.57 73.2098 1331.03 79.4151C1243.15 86.7162 1171.21 146.571 1133.52 214.174C1090.83 290.4 1083.61 377.464 1081.5 464.848C1080.72 498.218 1080.33 531.931 1078.76 565.306C1076.25 618.292 1068.64 672.335 1049.21 723.338C1024.45 788.127 978.812 847.512 911.255 879.827C891.341 889.554 869.82 896.193 847.486 900.428C768.717 914.565 686.769 892.255 611.776 860.28C573.097 843.954 535.56 824.526 500.366 804.056C377.39 732.752 262.837 643.176 145.918 585.946" stroke="url(#paint12_linear_403_4230)" stroke-width="0.75" stroke-miterlimit="10"/>
<path d="M3601.7 910.579C3395.94 1011.67 3118.51 997.521 2907.03 880.885C2731.52 784.03 2612.66 628.422 2455 513.249C2393.99 468.821 2334.93 422.32 2268.12 384.8C2201.31 347.28 2123.62 320.476 2048.27 324.277C1988.61 327.316 1936.62 347.861 1881.43 363.262C1826.24 378.319 1760.77 388.264 1702.8 367.558C1646.8 347.531 1610.94 303.67 1588.07 263.187C1565.21 222.361 1556.05 178.372 1523.03 143.098C1483.26 100.632 1411.43 70.3604 1335.7 75.5396C1246.23 81.8166 1173.92 144.084 1137.44 213.403C1096.33 290.657 1090.69 378.061 1089.76 465.786C1089.37 499.156 1089.77 533.211 1088.59 566.585C1086.47 619.915 1079.26 674.303 1060.62 725.305C1036.26 790.438 990.232 850.171 922.675 882.487C902.369 892.217 881.245 899.198 858.906 903.089C779.745 917.229 697.397 894.231 622.792 861.909C584.109 845.238 546.572 825.81 510.982 804.996C387.605 733.003 273.829 642.732 158.829 581.707" stroke="url(#paint13_linear_403_4230)" stroke-width="0.75" stroke-miterlimit="10"/>
<path d="M3620.68 921.461C3416.02 1016.36 3144.85 999.77 2935.76 885.871C2762.63 791.064 2642.65 640.616 2486.98 527.837C2423.6 482.042 2362.16 433.486 2292.98 394.6C2223.79 355.714 2142.57 328.238 2064.48 333.429C2002.48 337.51 1948.56 360.818 1891.43 377.948C1834.29 395.079 1766.1 406.415 1705.75 384.687C1647.78 363.636 1611.49 317.023 1588.98 273.441C1566.87 229.857 1558.85 183.109 1526.2 144.736C1487.58 99.8548 1415.7 66.1416 1338.78 70.6386C1248.13 76.2334 1175.07 140.571 1139.39 211.954C1099.86 290.235 1095.79 377.979 1096.44 466.044C1096.84 499.756 1097.24 533.811 1096.46 567.185C1095.13 620.858 1088.31 675.245 1069.68 726.593C1045.71 792.071 999.686 852.151 931.74 884.814C911.434 894.544 890.31 901.526 867.578 905.419C788.025 919.561 705.668 895.874 630.667 863.208C591.98 846.193 554.443 826.764 518.853 805.95C395.468 733.266 281.685 642.302 169 577.823" stroke="url(#paint14_linear_403_4230)" stroke-width="0.75" stroke-miterlimit="10"/>
<path d="M3639.26 932.003C3435.71 1021.39 3171.19 1002.36 2964.88 890.855C2794.14 798.441 2673.03 652.808 2519.36 542.423C2453.61 495.261 2390.18 444.649 2318.23 404.398C2246.28 364.147 2161.91 335.997 2080.7 342.923C2016.36 348.392 1960.89 374.116 1901.82 392.977C1842.75 412.182 1771.82 424.907 1709.5 402.156C1649.55 380.081 1612.83 330.373 1591.07 284.032C1569.32 237.692 1562.84 187.839 1530.15 146.368C1492.67 99.071 1420.76 61.9162 1342.66 65.731C1250.43 70.6455 1176.99 137.396 1142.51 210.152C1104.57 289.461 1102.08 377.545 1103.91 465.953C1104.7 499.664 1105.89 533.717 1105.11 567.436C1104.17 621.11 1098.14 675.84 1079.91 727.876C1056.34 793.699 1009.93 854.471 942.375 887.134C922.069 896.864 900.553 903.848 878.214 907.739C798.268 921.884 715.507 897.166 640.894 864.153C602.203 846.793 564.666 827.363 529.072 806.203C405.286 732.83 292.285 641.515 181.122 572.898" stroke="url(#paint15_linear_403_4230)" stroke-width="0.75" stroke-miterlimit="10"/>
<path d="M3658.24 942.889C3455.8 1026.43 3197.54 1004.96 2994 895.843C2825.64 805.822 2703.02 665.007 2552.12 557.011C2483.61 508.141 2418.19 455.816 2343.87 414.199C2269.55 372.581 2181.63 343.759 2097.3 352.076C2030.62 358.589 1973.22 386.731 1912.21 408.011C1851.19 428.946 1777.54 443.405 1713.24 419.286C1651.31 396.188 1614.17 343.727 1593.17 294.629C1572.17 245.531 1566.83 192.917 1534.49 148.347C1498.17 98.29 1426.22 58.0375 1346.93 61.5139C1253.51 65.4022 1179.32 134.567 1145.64 209.042C1109.28 289.035 1108.37 377.803 1111.38 466.553C1112.56 500.263 1114.15 534.66 1114.15 568.377C1114.01 622.393 1108.38 677.467 1090.14 729.505C1066.97 795.673 1020.56 856.792 952.623 889.802C932.317 899.532 910.8 906.517 888.073 910.754C807.735 924.901 724.965 899.494 650.349 866.135C611.658 848.774 574.113 828.656 538.126 807.498C414.337 733.777 301.323 641.426 192.476 569.355" stroke="url(#paint16_linear_403_4230)" stroke-width="0.75" stroke-miterlimit="10"/>
<path d="M3676.82 953.432C3475.49 1031.12 3223.87 1006.87 3022.73 900.83C2856.36 812.86 2733.01 677.204 2584.11 571.603C2513.22 521.366 2445.81 466.984 2368.73 424.002C2291.65 381.364 2200.58 351.524 2113.51 361.574C2044.49 369.475 1985.55 400.034 1922.21 423.046C1859.25 446.055 1782.86 461.56 1716.59 436.762C1652.29 412.642 1615.11 357.082 1594.47 305.228C1573.83 253.374 1570.04 197.999 1538.05 150.328C1502.88 97.8557 1430.89 54.1612 1350.41 56.9553C1255.81 60.1613 1180.86 131.741 1148.38 207.933C1113.6 288.954 1114.26 378.062 1118.85 467.151C1120.43 501.206 1122.41 535.602 1122.81 569.662C1123.06 624.022 1118.22 679.095 1100.38 731.477C1077.6 797.646 1030.81 859.456 962.868 892.468C942.563 902.199 921.05 909.527 897.926 913.423C817.195 927.572 734.025 901.478 659.401 867.43C620.706 849.724 583.161 829.605 547.17 808.101C423.373 733.69 310.351 640.648 203.423 564.779" stroke="url(#paint17_linear_403_4230)" stroke-width="0.75" stroke-miterlimit="10"/>
<path d="M3695.79 964.319C3495.58 1036.5 3250.6 1009.46 3051.84 905.816C2887.86 820.239 2763 689.401 2616.48 586.193C2543.22 534.589 2473.44 478.151 2393.98 433.802C2314.52 389.798 2219.92 359.628 2129.72 370.727C2058.36 379.671 1997.49 412.994 1932.59 437.734C1867.69 462.474 1788.57 479.713 1720.33 453.891C1654.05 428.747 1616.45 370.434 1596.56 315.478C1576.67 260.521 1573.63 202.731 1542 151.96C1507.97 97.0711 1435.94 49.9342 1354.29 52.0459C1258.1 54.5714 1182.79 128.22 1151.11 206.133C1117.92 288.181 1120.55 377.628 1125.92 466.718C1128.28 500.77 1130.65 535.166 1131.06 569.571C1132.1 624.274 1127.65 679.347 1110.21 732.074C1087.82 798.588 1041.04 860.745 973.102 894.102C952.8 904.178 930.891 911.164 908.16 915.058C827.032 928.866 743.858 902.426 669.23 868.033C630.531 849.982 592.593 829.863 556.991 808.013C432.793 732.912 320.549 639.174 215.544 559.852" stroke="url(#paint18_linear_403_4230)" stroke-width="0.75" stroke-miterlimit="10"/>
<path d="M3714.77 975.206C3515.66 1041.54 3276.94 1012.06 3080.96 911.146C2919.36 827.62 2793.39 701.944 2649.25 601.129C2573.22 548.16 2501.84 489.663 2419.62 444.294C2337.41 398.924 2239.65 368.081 2146.73 380.913C2073.02 391.245 2010.22 426.987 1943.38 453.802C1876.55 480.617 1794.69 499.246 1724.47 472.055C1656.22 445.888 1618.19 384.478 1598.66 327.109C1579.52 269.395 1577.23 208.846 1546.36 154.973C1513.48 97.6679 1441.41 47.4325 1358.56 48.5177C1261.19 50.0166 1185.12 126.424 1154.64 205.71C1123.03 288.787 1127.24 378.917 1134.18 468.002C1136.94 502.054 1139.71 536.793 1140.9 571.196C1142.73 626.241 1138.67 681.659 1121.23 734.388C1099.24 801.246 1052.08 864.096 984.138 897.454C963.837 907.529 941.928 914.516 918.804 918.412C837.284 932.222 753.71 905.096 679.466 870.01C640.767 851.959 602.825 831.496 567.219 809.301C443.013 733.509 330.765 639.423 227.674 555.96" stroke="url(#paint19_linear_403_4230)" stroke-width="0.75" stroke-miterlimit="10"/>
<path d="M3733.35 985.754C3535.35 1046.23 3303.28 1014.31 3109.69 915.793C2950.47 834.66 2822.99 714.147 2681.23 615.381C2602.83 561.045 2529.46 500.491 2444.48 453.756C2359.89 407.019 2258.59 375.504 2162.55 390.072C2086.11 401.449 2022.15 439.607 1953.38 468.497C1884.6 497.387 1800.4 517.06 1727.82 489.192C1657.59 462 1618.74 397.839 1600.36 337.366C1581.58 276.894 1580.83 213.583 1550.31 156.609C1518.19 96.8889 1446.47 43.2086 1362.44 43.6113C1263.49 44.4296 1186.66 122.909 1157.77 204.255C1127.74 288.36 1133.53 378.83 1141.65 468.258C1144.81 502.653 1147.97 537.392 1149.55 571.794C1151.77 626.84 1148.51 682.6 1131.46 736.017C1109.87 803.22 1062.71 866.417 994.383 899.778C974.081 909.854 952.176 917.185 929.052 921.081C847.14 934.894 763.558 907.078 688.917 871.649C650.215 853.253 612.269 832.445 576.274 810.595C451.668 734.114 340.197 639.332 239.029 552.415" stroke="url(#paint20_linear_403_4230)" stroke-width="0.75" stroke-miterlimit="10"/>
<path d="M3752.32 996.645C3555.44 1051.27 3330.01 1016.91 3138.81 921.127C2981.58 842.39 2852.98 726.695 2713.61 630.323C2632.83 574.619 2557.09 512.009 2470.12 463.905C2382.77 415.804 2278.32 383.614 2179.15 399.574C2100.37 412.34 2034.48 452.917 1963.77 483.538C1893.05 514.159 1806.12 535.566 1731.56 506.674C1659.36 478.458 1620.08 411.2 1602.05 347.969C1584.03 284.738 1584.03 218.324 1553.87 158.593C1522.89 96.1124 1451.14 39.3332 1365.92 39.0533C1265.78 38.8449 1188.19 119.74 1160.11 202.806C1131.27 287.596 1139.02 378.749 1148.33 468.519C1151.88 502.913 1155.83 537.65 1157.41 572.398C1160.43 627.786 1157.16 683.548 1140.51 737.31C1119.32 804.858 1071.77 868.403 1003.84 902.107C983.536 912.184 961.631 919.516 938.115 923.413C855.81 937.228 771.823 908.381 697.576 872.949C658.869 854.208 620.923 833.399 584.925 811.204C460.314 734.375 348.831 638.557 249.582 547.842" stroke="url(#paint21_linear_403_4230)" stroke-width="0.75" stroke-miterlimit="10"/>
<path d="M3770.9 1007.19C3575.13 1056.31 3355.95 1018.82 3167.53 925.773C3012.68 849.086 2882.97 738.898 2745.58 644.576C2662.05 587.507 2584.71 522.837 2494.98 473.368C2405.25 423.899 2297.26 391.036 2195.36 408.731C2114.24 422.541 2046.81 465.88 1973.76 498.578C1901.11 531.274 1811.45 554.072 1734.51 523.813C1660.34 494.574 1620.63 424.562 1603.35 358.227C1586.08 292.237 1586.83 223.064 1557.42 160.229C1527.2 95.3333 1456.2 35.1069 1369.4 34.4903C1268.07 33.5993 1189.73 116.91 1162.85 201.35C1135.59 287.169 1144.92 378.663 1155.8 468.773C1160.13 503.165 1164.08 538.247 1166.46 572.993C1169.87 628.725 1167.39 684.83 1151.14 738.592C1130.34 806.485 1082.79 870.377 1014.47 904.429C994.171 914.506 971.873 921.84 948.75 925.736C866.053 939.553 782.057 910.017 707.802 873.895C668.699 854.811 631.146 833.999 595.143 811.459C470.525 733.939 359.034 637.428 262.101 543.257" stroke="url(#paint22_linear_403_4230)" stroke-width="0.75" stroke-miterlimit="10"/>
<path d="M3789.87 1018.09C3595.21 1061.35 3382.68 1021.42 3196.65 931.109C3044.19 856.817 2912.96 751.45 2778.35 659.865C2692.45 601.428 2612.72 534.702 2520.62 483.866C2428.13 433.032 2316.99 399.495 2211.97 418.581C2128.51 433.779 2059.14 479.194 1984.55 513.966C1909.95 548.738 1817.56 572.926 1738.65 541.643C1662.5 511.379 1622.36 438.269 1605.84 369.52C1588.93 300.429 1590.83 228.838 1562.17 162.9C1532.7 95.245 1462.05 31.9172 1374.07 30.618C1271.16 29.0462 1192.06 114.428 1166.38 200.931C1140.7 287.778 1151.6 379.612 1163.67 470.063C1168.4 504.799 1173.14 539.879 1175.51 574.626C1179.71 630.701 1177.62 686.806 1161.37 740.914C1140.97 808.808 1093.04 873.736 1024.72 907.446C1004.42 917.523 982.12 924.857 958.604 928.755C875.514 942.575 791.119 912.35 716.859 875.883C677.756 856.798 640.199 835.641 603.8 812.758C478.781 734.549 368.071 637.687 272.66 539.375" stroke="url(#paint23_linear_403_4230)" stroke-width="0.75" stroke-miterlimit="10"/>
<path d="M3808.85 1028.98C3615.29 1066.39 3409.41 1024.01 3225.76 936.101C3075.69 864.203 2943.33 763.655 2810.72 674.465C2722.05 614.663 2640.73 545.877 2545.87 493.675C2451 441.474 2336.32 407.263 2228.18 428.087C2142.37 444.329 2071.08 492.508 1994.54 529.011C1918 565.515 1822.88 591.094 1742 559.131C1663.87 527.842 1623.31 451.978 1607.15 380.127C1590.98 308.275 1593.64 233.925 1565.72 164.883C1537.41 94.8107 1466.72 28.3829 1377.55 26.0569C1273.45 23.4582 1193.59 111.257 1169.11 199.478C1144.62 287.355 1157.49 379.528 1170.74 470.322C1175.86 505.057 1180.99 540.136 1183.76 575.227C1188.35 631.303 1187.06 688.095 1171.21 742.547C1151.21 810.786 1103.28 876.062 1034.96 910.116C1014.66 920.194 992.367 927.872 968.851 931.771C885.369 945.593 800.965 914.679 726.698 877.522C687.59 858.092 650.029 836.59 613.63 813.706C488.603 734.805 377.886 637.25 284.786 535.138" stroke="url(#paint24_linear_403_4230)" stroke-width="0.75" stroke-miterlimit="10"/>
<path d="M3827.43 1039.54C3634.98 1071.09 3435.35 1026.27 3254.88 941.092C3106.79 871.246 2973.33 776.206 2843.1 689.066C2751.66 627.897 2668.36 557.052 2571.12 503.483C2473.49 450.26 2355.66 415.374 2244.79 437.244C2156.64 454.875 2083.8 505.473 2005.32 543.708C1926.84 582.287 1828.99 609.258 1746.13 575.926C1666.03 543.613 1625.04 464.649 1609.62 390.038C1594.21 315.426 1597.62 237.971 1570.06 166.171C1542.5 93.3385 1472.17 23.8084 1381.81 20.7995C1276.14 17.5198 1195.52 107.735 1172.23 197.331C1149.33 286.238 1163.78 379.095 1178.6 469.886C1184.11 504.621 1189.64 540.044 1193.2 575.477C1198.58 631.895 1197.68 688.688 1182.22 743.485C1162.61 812.07 1114.3 877.694 1045.99 912.094C1025.3 922.519 1003.39 929.851 979.484 933.752C895.61 947.576 811.198 915.973 736.534 878.471C697.423 858.697 659.862 837.194 623.463 814.308C498.428 734.715 388.095 636.466 296.918 530.898" stroke="url(#paint25_linear_403_4230)" stroke-width="0.75" stroke-miterlimit="10"/>
<path d="M3846.4 1050.44C3655.06 1076.14 3462.08 1028.87 3283.99 946.089C3138.29 878.638 3003.31 788.42 2875.86 703.672C2782.05 641.135 2696.76 568.232 2596.76 513.641C2496.76 459.05 2375.39 423.492 2261.39 447.099C2170.9 465.774 2096.13 518.793 2015.71 559.448C1935.29 599.759 1834.71 628.464 1749.87 594.107C1667.79 560.77 1626.38 479.052 1611.33 401.683C1596.28 324.313 1600.83 244.095 1574.02 168.847C1547.21 93.5985 1477.23 20.622 1385.69 16.9303C1278.82 12.6236 1197.45 105.255 1175.37 196.915C1153.65 286.851 1170.07 380.047 1186.07 471.18C1192.38 506.257 1198.29 541.68 1201.85 577.114C1207.63 633.877 1207.52 690.668 1192.07 745.812C1172.85 814.741 1124.55 880.712 1055.84 915.46C1035.15 925.885 1012.86 933.22 988.946 937.12C904.679 950.947 819.867 918.656 745.588 880.463C706.477 860.687 668.912 838.839 632.508 815.609C507.073 735.326 397.125 636.383 307.867 527.015" stroke="url(#paint26_linear_403_4230)" stroke-width="0.75" stroke-miterlimit="10"/>
<path d="M319.597 522.437C432.066 668.528 582.359 792.065 755.418 881.417C829.697 919.612 914.914 952.936 999.181 939.108C1103.05 922.433 1177.83 836.713 1201.9 746.761C1226.36 656.807 1210.32 562.572 1193.14 471.097C1175.96 379.621 1157.57 286.086 1177.7 195.12C1198.59 102.086 1280.72 7.03659 1389.16 12.0244C1481.5 16.401 1551.51 92.1343 1577.18 170.489C1603.23 248.499 1597.93 331.477 1612.23 411.952C1626.53 492.082 1668.38 576.9 1752.43 611.262C1839.63 646.641 1942.56 616.891 2024.91 574.159C2107.27 531.772 2183.59 476.335 2276.81 456.268C2393.93 430.925 2518.45 467.158 2620.82 523.461C2723.59 579.418 2810.48 654.726 2907.05 718.286C3185.69 902.476 3518.65 1097.76 3864.18 1061" stroke="url(#paint27_linear_403_4230)" stroke-width="0.75" stroke-miterlimit="10"/>
</g>
<defs>
<linearGradient id="paint0_linear_403_4230" x1="3362.57" y1="538.001" x2="10.0549" y2="478.915" gradientUnits="userSpaceOnUse">
<stop stop-color="#1D4BEF"/>
<stop offset="1" stop-color="#791DEF"/>
</linearGradient>
<linearGradient id="paint1_linear_403_4230" x1="3381.45" y1="540.096" x2="21.8489" y2="481.315" gradientUnits="userSpaceOnUse">
<stop stop-color="#1D4BEF"/>
<stop offset="1" stop-color="#791DEF"/>
</linearGradient>
<linearGradient id="paint2_linear_403_4230" x1="3399.94" y1="541.25" x2="32.8477" y2="482.936" gradientUnits="userSpaceOnUse">
<stop stop-color="#1D4BEF"/>
<stop offset="1" stop-color="#791DEF"/>
</linearGradient>
<linearGradient id="paint3_linear_403_4230" x1="3418.83" y1="543.075" x2="44.2427" y2="485.158" gradientUnits="userSpaceOnUse">
<stop stop-color="#1D4BEF"/>
<stop offset="1" stop-color="#791DEF"/>
</linearGradient>
<linearGradient id="paint4_linear_403_4230" x1="3437.31" y1="543.93" x2="56.7972" y2="486.747" gradientUnits="userSpaceOnUse">
<stop stop-color="#1D4BEF"/>
<stop offset="1" stop-color="#791DEF"/>
</linearGradient>
<linearGradient id="paint5_linear_403_4230" x1="3456.19" y1="544.861" x2="68.1839" y2="488.213" gradientUnits="userSpaceOnUse">
<stop stop-color="#1D4BEF"/>
<stop offset="1" stop-color="#791DEF"/>
</linearGradient>
<linearGradient id="paint6_linear_403_4230" x1="3475.07" y1="546.038" x2="79.571" y2="489.906" gradientUnits="userSpaceOnUse">
<stop stop-color="#1D4BEF"/>
<stop offset="1" stop-color="#791DEF"/>
</linearGradient>
<linearGradient id="paint7_linear_403_4230" x1="3493.55" y1="546.392" x2="90.5538" y2="490.936" gradientUnits="userSpaceOnUse">
<stop stop-color="#1D4BEF"/>
<stop offset="1" stop-color="#791DEF"/>
</linearGradient>
<linearGradient id="paint8_linear_403_4230" x1="3512.42" y1="547.239" x2="102.329" y2="492.427" gradientUnits="userSpaceOnUse">
<stop stop-color="#1D4BEF"/>
<stop offset="1" stop-color="#791DEF"/>
</linearGradient>
<linearGradient id="paint9_linear_403_4230" x1="3530.91" y1="548.23" x2="113.321" y2="494.054" gradientUnits="userSpaceOnUse">
<stop stop-color="#1D4BEF"/>
<stop offset="1" stop-color="#791DEF"/>
</linearGradient>
<linearGradient id="paint10_linear_403_4230" x1="3549.78" y1="548.598" x2="125.483" y2="495.116" gradientUnits="userSpaceOnUse">
<stop stop-color="#1D4BEF"/>
<stop offset="1" stop-color="#791DEF"/>
</linearGradient>
<linearGradient id="paint11_linear_403_4230" x1="3568.65" y1="549.364" x2="138.041" y2="496.562" gradientUnits="userSpaceOnUse">
<stop stop-color="#1D4BEF"/>
<stop offset="1" stop-color="#791DEF"/>
</linearGradient>
<linearGradient id="paint12_linear_403_4230" x1="3587.14" y1="549.891" x2="148.642" y2="497.703" gradientUnits="userSpaceOnUse">
<stop stop-color="#1D4BEF"/>
<stop offset="1" stop-color="#791DEF"/>
</linearGradient>
<linearGradient id="paint13_linear_403_4230" x1="3606.01" y1="551.054" x2="161.595" y2="499.54" gradientUnits="userSpaceOnUse">
<stop stop-color="#1D4BEF"/>
<stop offset="1" stop-color="#791DEF"/>
</linearGradient>
<linearGradient id="paint14_linear_403_4230" x1="3624.89" y1="551.495" x2="171.799" y2="500.612" gradientUnits="userSpaceOnUse">
<stop stop-color="#1D4BEF"/>
<stop offset="1" stop-color="#791DEF"/>
</linearGradient>
<linearGradient id="paint15_linear_403_4230" x1="3643.36" y1="552.072" x2="183.963" y2="501.935" gradientUnits="userSpaceOnUse">
<stop stop-color="#1D4BEF"/>
<stop offset="1" stop-color="#791DEF"/>
</linearGradient>
<linearGradient id="paint16_linear_403_4230" x1="3662.24" y1="553.031" x2="195.352" y2="503.535" gradientUnits="userSpaceOnUse">
<stop stop-color="#1D4BEF"/>
<stop offset="1" stop-color="#791DEF"/>
</linearGradient>
<linearGradient id="paint17_linear_403_4230" x1="3680.73" y1="553.68" x2="206.343" y2="504.815" gradientUnits="userSpaceOnUse">
<stop stop-color="#1D4BEF"/>
<stop offset="1" stop-color="#791DEF"/>
</linearGradient>
<linearGradient id="paint18_linear_403_4230" x1="3699.6" y1="554.535" x2="218.51" y2="506.421" gradientUnits="userSpaceOnUse">
<stop stop-color="#1D4BEF"/>
<stop offset="1" stop-color="#791DEF"/>
</linearGradient>
<linearGradient id="paint19_linear_403_4230" x1="3718.48" y1="556.042" x2="230.688" y2="508.541" gradientUnits="userSpaceOnUse">
<stop stop-color="#1D4BEF"/>
<stop offset="1" stop-color="#791DEF"/>
</linearGradient>
<linearGradient id="paint20_linear_403_4230" x1="3736.96" y1="556.795" x2="242.074" y2="509.991" gradientUnits="userSpaceOnUse">
<stop stop-color="#1D4BEF"/>
<stop offset="1" stop-color="#791DEF"/>
</linearGradient>
<linearGradient id="paint21_linear_403_4230" x1="3755.84" y1="558.002" x2="252.679" y2="511.856" gradientUnits="userSpaceOnUse">
<stop stop-color="#1D4BEF"/>
<stop offset="1" stop-color="#791DEF"/>
</linearGradient>
<linearGradient id="paint22_linear_403_4230" x1="3774.32" y1="559.185" x2="265.245" y2="513.771" gradientUnits="userSpaceOnUse">
<stop stop-color="#1D4BEF"/>
<stop offset="1" stop-color="#791DEF"/>
</linearGradient>
<linearGradient id="paint23_linear_403_4230" x1="3793.21" y1="560.976" x2="275.857" y2="516.177" gradientUnits="userSpaceOnUse">
<stop stop-color="#1D4BEF"/>
<stop offset="1" stop-color="#791DEF"/>
</linearGradient>
<linearGradient id="paint24_linear_403_4230" x1="3812.09" y1="562.591" x2="288.033" y2="518.54" gradientUnits="userSpaceOnUse">
<stop stop-color="#1D4BEF"/>
<stop offset="1" stop-color="#791DEF"/>
</linearGradient>
<linearGradient id="paint25_linear_403_4230" x1="3830.57" y1="563.897" x2="300.21" y2="520.649" gradientUnits="userSpaceOnUse">
<stop stop-color="#1D4BEF"/>
<stop offset="1" stop-color="#791DEF"/>
</linearGradient>
<linearGradient id="paint26_linear_403_4230" x1="3849.46" y1="566.236" x2="311.216" y2="523.669" gradientUnits="userSpaceOnUse">
<stop stop-color="#1D4BEF"/>
<stop offset="1" stop-color="#791DEF"/>
</linearGradient>
<linearGradient id="paint27_linear_403_4230" x1="3867.16" y1="568.243" x2="323.002" y2="526.514" gradientUnits="userSpaceOnUse">
<stop stop-color="#1D4BEF"/>
<stop offset="1" stop-color="#791DEF"/>
</linearGradient>
</defs>
</svg>
