<svg width="137" height="120" viewBox="0 0 137 120" fill="none" xmlns="http://www.w3.org/2000/svg">
<g clip-path="url(#clip0_401_4262)">
<path d="M0.494141 16.2428L2.27144 10.6317L14.8113 14.717L18.2671 17.1288L17.1316 13.1911V0H23.0066V13.1419L21.8711 17.2272L25.2282 14.8154L37.768 10.8285L39.5453 16.3413L27.0055 20.4266L23.0066 20.6235L26.1662 22.9368L33.9172 33.5685L29.1284 37.0139L21.328 26.3823L19.9457 22.6415L18.4646 26.3823L10.763 37.0139L6.07288 33.5685L13.8239 22.9368L17.0822 20.525L13.0833 20.3281L0.494141 16.2428Z" fill="#1D4BEF"/>
<path d="M1.13574 55.8506H5.92457C7.1588 55.8506 8.14619 56.1951 8.83736 56.835C9.52853 57.4749 9.87412 58.3608 9.87412 59.4929C9.87412 60.2804 9.67664 60.9203 9.28169 61.4125C8.88673 61.9047 8.34367 62.2 7.70187 62.3969V62.4954C8.49178 62.6923 9.13358 63.0368 9.62727 63.529C10.121 64.0704 10.3678 64.7595 10.3678 65.7439C10.3678 66.2854 10.2691 66.8268 10.0716 67.319C9.87412 67.8112 9.62727 68.205 9.28169 68.5495C8.9361 68.8941 8.54115 69.1894 8.04745 69.337C7.55376 69.5339 7.06007 69.6324 6.46763 69.6324H1.13574V55.8506ZM5.43088 61.7571C6.12205 61.7571 6.66511 61.6094 7.0107 61.3633C7.35628 61.1172 7.55376 60.625 7.55376 60.0343V59.3453C7.55376 58.7054 7.35628 58.2624 7.0107 58.0163C6.66511 57.7702 6.12205 57.6225 5.43088 57.6225H3.30799V61.8555H5.43088V61.7571ZM5.77646 67.9096C6.517 67.9096 7.06007 67.762 7.45502 67.4667C7.84998 67.1713 8.04745 66.6791 8.04745 65.99V65.301C8.04745 64.6119 7.84998 64.1689 7.45502 63.8243C7.06007 63.529 6.517 63.3813 5.77646 63.3813H3.30799V67.9096H5.77646V67.9096Z" fill="black"/>
<path d="M17.1806 69.8292C16.3907 69.8292 15.6996 69.6816 15.1071 69.4355C14.4653 69.1894 13.9716 68.8448 13.5273 68.3526C13.083 67.9096 12.7868 67.319 12.5399 66.6791C12.2931 66.0392 12.1943 65.3009 12.1943 64.4642C12.1943 63.6274 12.2931 62.9383 12.5399 62.2492C12.7868 61.6094 13.083 61.0187 13.5273 60.5757C13.9223 60.1328 14.4653 59.739 15.0578 59.4929C15.6502 59.2468 16.292 59.0991 17.0325 59.0991C17.7237 59.0991 18.3655 59.1976 18.9579 59.4437C19.5504 59.6898 20.0441 60.0343 20.439 60.4773C20.834 60.9203 21.1796 61.4617 21.377 62.0524C21.5745 62.643 21.7226 63.3321 21.7226 64.1196V64.9072H14.416V65.2517C14.416 66.0392 14.6628 66.6791 15.1565 67.2205C15.6502 67.7127 16.3414 67.9588 17.23 67.9588C17.8718 67.9588 18.4642 67.8112 18.9086 67.5159C19.3529 67.2205 19.7478 66.876 20.0441 66.3838L21.377 67.5651C21.0315 68.1557 20.4884 68.6479 19.7972 69.0417C19.1554 69.6323 18.2668 69.8292 17.1806 69.8292ZM17.0325 60.8218C16.6376 60.8218 16.292 60.8711 15.9958 61.0187C15.6502 61.1664 15.4033 61.3141 15.1565 61.5602C14.9097 61.8063 14.7615 62.1016 14.6134 62.3969C14.4653 62.7414 14.416 63.086 14.416 63.4798V63.6274H19.5504V63.4305C19.5504 62.643 19.3035 62.0031 18.8592 61.5109C18.4149 61.0679 17.7731 60.8218 17.0325 60.8218Z" fill="black"/>
<path d="M29.1278 69.5834C28.2391 69.5834 27.5973 69.3373 27.153 68.845C26.7087 68.3528 26.5112 67.7622 26.5112 66.9747V61.1174H23.3516V59.3455H25.5732C25.9681 59.3455 26.215 59.247 26.3631 59.0994C26.5112 58.9517 26.6099 58.6564 26.6099 58.2626V55.7031H28.6341V59.2962H32.9786V61.0682H28.6341V67.713H32.9786V69.4849H29.1278V69.5834Z" fill="black"/>
<path d="M40.6805 69.5834C39.7919 69.5834 39.1501 69.3373 38.7057 68.845C38.2614 68.3528 38.0639 67.7622 38.0639 66.9747V61.1174H34.9043V59.3455H37.1259C37.5209 59.3455 37.7677 59.247 37.9158 59.0994C38.0639 58.9517 38.1627 58.6564 38.1627 58.2626V55.7031H40.1868V59.2962H44.5313V61.0682H40.1868V67.713H44.5313V69.4849H40.6805V69.5834Z" fill="black"/>
<path d="M51.8379 69.8292C51.048 69.8292 50.3568 69.6816 49.7644 69.4355C49.1226 69.1894 48.6289 68.8448 48.1845 68.3526C47.7402 67.9096 47.444 67.319 47.1971 66.6791C46.9503 66.0392 46.8516 65.3009 46.8516 64.4642C46.8516 63.6274 46.9503 62.9383 47.1971 62.2492C47.444 61.6094 47.7402 61.0187 48.1845 60.5757C48.5795 60.1328 49.1226 59.739 49.715 59.4929C50.3074 59.2468 50.9492 59.0991 51.6898 59.0991C52.3809 59.0991 53.0227 59.1976 53.6152 59.4437C54.2076 59.6898 54.7013 60.0343 55.0962 60.4773C55.4912 60.9203 55.8368 61.4617 56.0343 62.0524C56.2317 62.643 56.3798 63.3321 56.3798 64.1196V64.9072H49.0732V65.2517C49.0732 66.0392 49.32 66.6791 49.8137 67.2205C50.3074 67.7127 50.9986 67.9588 51.8872 67.9588C52.529 67.9588 53.1215 67.8112 53.5658 67.5159C54.0101 67.2205 54.4051 66.876 54.7013 66.3838L56.0343 67.5651C55.6887 68.1557 55.1456 68.6479 54.4544 69.0417C53.8126 69.6323 52.924 69.8292 51.8379 69.8292ZM51.6898 60.8218C51.2948 60.8218 50.9492 60.8711 50.653 61.0187C50.3074 61.1664 50.0606 61.3141 49.8137 61.5602C49.5669 61.8063 49.4188 62.1016 49.2707 62.3969C49.1226 62.7414 49.0732 63.086 49.0732 63.4798V63.6274H54.2076V63.4305C54.2076 62.643 53.9608 62.0031 53.5164 61.5109C53.0721 61.0679 52.4303 60.8218 51.6898 60.8218Z" fill="black"/>
<path d="M58.75 67.8113H61.4653V61.1665H58.75V59.3945H63.5882V62.1017H63.6869C63.7857 61.7571 63.9338 61.4126 64.0819 61.068C64.23 60.7235 64.4768 60.4774 64.7237 60.2313C64.9705 59.9852 65.3161 59.7883 65.7111 59.6406C66.106 59.493 66.5504 59.3945 67.0441 59.3945H68.2783V61.4618H66.2541C65.4642 61.4618 64.8224 61.7079 64.3287 62.1509C63.835 62.5939 63.5882 63.2337 63.5882 64.0213V67.8113H67.2909V69.5832H58.75V67.8113Z" fill="black"/>
<path d="M70.4996 55.0139H72.6718V61.1665H72.7706C72.8693 60.9204 73.0174 60.6743 73.1655 60.4282C73.3136 60.1821 73.5111 59.9852 73.7579 59.7883C74.0048 59.5914 74.2516 59.493 74.5972 59.3453C74.8934 59.2469 75.2884 59.1977 75.6834 59.1977C76.7201 59.1977 77.5594 59.5422 78.1518 60.1821C78.7936 60.8712 79.0898 61.8064 79.0898 63.0369V69.5832H76.9176V63.3814C76.9176 61.7571 76.2264 60.9696 74.7947 60.9696C74.4985 60.9696 74.2516 61.0188 74.0048 61.0681C73.7579 61.1173 73.5111 61.2649 73.3136 61.4126C73.1161 61.5603 72.9187 61.7571 72.8199 61.954C72.6718 62.2001 72.6225 62.4462 72.6225 62.7416V69.6324H70.4502V55.0139H70.4996Z" fill="black"/>
<path d="M90.0989 69.5832C89.4571 69.5832 89.0128 69.4356 88.7166 69.091C88.4204 68.7957 88.2229 68.3527 88.1735 67.8605H88.0748C87.8773 68.5004 87.5317 68.9433 86.9887 69.2879C86.4456 69.6324 85.8038 69.7801 85.0139 69.7801C83.9771 69.7801 83.1379 69.4848 82.5454 68.9433C81.9036 68.4019 81.6074 67.6636 81.6074 66.6792C81.6074 65.6948 81.953 64.9565 82.6935 64.415C83.4341 63.8736 84.5696 63.6275 86.0507 63.6275H88.0254V62.84C88.0254 61.4618 87.2849 60.7727 85.8532 60.7727C85.2114 60.7727 84.6683 60.9204 84.2734 61.1665C83.8784 61.4126 83.5328 61.7571 83.2366 62.2001L81.953 61.1665C82.2492 60.6251 82.7429 60.1329 83.4341 59.7391C84.1253 59.3453 85.0139 59.1484 86.1 59.1484C87.3836 59.1484 88.4204 59.4438 89.1609 60.0836C89.9015 60.7235 90.2471 61.6095 90.2471 62.7415V67.8605H91.5307V69.534H90.0989V69.5832ZM85.6063 68.2543C86.2975 68.2543 86.8899 68.1066 87.3343 67.7621C87.7786 67.4667 88.0254 67.0237 88.0254 66.5315V65.0549H86.1C84.5696 65.0549 83.7797 65.4979 83.7797 66.4331V66.8269C83.7797 67.2698 83.9278 67.6144 84.2734 67.8605C84.5696 68.1558 85.0139 68.2543 85.6063 68.2543Z" fill="black"/>
<path d="M93.6045 69.5833V59.4439H95.7767V61.1666H95.8755C95.9742 60.9205 96.1223 60.6744 96.2704 60.4283C96.4185 60.1822 96.616 59.9853 96.8629 59.7884C97.1097 59.5915 97.3566 59.4931 97.7021 59.3454C97.9984 59.247 98.3933 59.1978 98.7883 59.1978C99.825 59.1978 100.664 59.5423 101.257 60.1822C101.899 60.8713 102.195 61.8064 102.195 63.037V69.5833H100.023V63.3815C100.023 61.7572 99.3313 60.9697 97.8996 60.9697C97.6034 60.9697 97.3566 61.0189 97.1097 61.0681C96.8629 61.1174 96.616 61.265 96.4185 61.4127C96.2211 61.5603 96.0236 61.7572 95.9248 61.9541C95.7767 62.2002 95.7274 62.4463 95.7274 62.7416V69.6325H93.6045V69.5833Z" fill="black"/>
<path d="M111.624 67.8605H111.525C111.229 68.5004 110.834 68.9434 110.34 69.2879C109.847 69.6325 109.205 69.8293 108.464 69.8293C107.279 69.8293 106.292 69.3864 105.601 68.5004C104.91 67.6144 104.515 66.2855 104.515 64.5135C104.515 62.7416 104.86 61.4126 105.601 60.5266C106.292 59.6407 107.279 59.1977 108.464 59.1977C109.205 59.1977 109.847 59.3946 110.34 59.7391C110.834 60.0836 111.229 60.5759 111.525 61.1665H111.624V55.0139H113.796V69.5832H111.624V67.8605ZM109.303 68.0574C109.6 68.0574 109.896 68.0082 110.192 67.959C110.488 67.8605 110.735 67.7621 110.933 67.6144C111.13 67.4667 111.328 67.2699 111.426 67.0238C111.574 66.7777 111.624 66.5316 111.624 66.187V62.7908C111.624 62.4955 111.574 62.2001 111.426 61.954C111.278 61.7079 111.13 61.511 110.933 61.3634C110.735 61.2157 110.488 61.0681 110.192 61.0188C109.896 60.9204 109.6 60.9204 109.303 60.9204C108.464 60.9204 107.872 61.1665 107.427 61.6587C106.983 62.1509 106.786 62.84 106.786 63.6275V65.301C106.786 66.1378 106.983 66.7777 107.427 67.2699C107.872 67.8113 108.464 68.0574 109.303 68.0574Z" fill="black"/>
<path d="M1.18457 92.7169V78.9844H10.0711V80.8548H3.40619V84.8416H9.42926V86.712H3.40619V92.7662H1.18457V92.7169Z" fill="black"/>
<path d="M13.0332 90.9449H16.4891V84.3001H13.0332V82.5282H18.6613V90.9449H21.9197V92.7169H13.0332V90.9449ZM17.6246 80.707C17.0815 80.707 16.6865 80.6086 16.4891 80.3625C16.2916 80.1164 16.1435 79.8703 16.1435 79.5257V79.132C16.1435 78.7874 16.2422 78.5413 16.4891 78.2952C16.7359 78.0491 17.0815 77.9507 17.6246 77.9507C18.1676 77.9507 18.5626 78.0491 18.7601 78.2952C18.9575 78.5413 19.1056 78.7874 19.1056 79.132V79.5257C19.1056 79.8703 19.0069 80.1164 18.7601 80.3625C18.5132 80.6086 18.1676 80.707 17.6246 80.707Z" fill="black"/>
<path d="M24.29 92.7169V82.5774H26.4623V84.3001H26.561C26.6598 84.054 26.8079 83.8079 26.956 83.5618C27.1041 83.3157 27.3016 83.1188 27.5484 82.9219C27.7953 82.7251 28.0421 82.6266 28.3877 82.479C28.6839 82.3805 29.0789 82.3313 29.4738 82.3313C30.5106 82.3313 31.3499 82.6758 31.9423 83.3157C32.5841 84.0048 32.8803 84.94 32.8803 86.1705V92.7169H30.7081V86.5151C30.7081 84.8908 30.0169 84.1032 28.5852 84.1032C28.289 84.1032 28.0421 84.1525 27.7953 84.2017C27.5484 84.2509 27.3016 84.3986 27.1041 84.5462C26.9066 84.6939 26.7091 84.8908 26.6104 85.0877C26.4623 85.3338 26.4129 85.5799 26.4129 85.8752V92.7661H24.29V92.7169Z" fill="black"/>
<path d="M43.889 92.717C43.2472 92.717 42.8029 92.5693 42.5067 92.2248C42.2104 91.9295 42.013 91.4865 41.9636 90.9943H41.8649C41.6674 91.6342 41.3218 92.0771 40.7787 92.4217C40.2357 92.7662 39.5939 92.9139 38.8039 92.9139C37.7672 92.9139 36.9279 92.6186 36.3355 92.0771C35.6937 91.5357 35.3975 90.7974 35.3975 89.813C35.3975 88.8286 35.743 88.0903 36.4836 87.5488C37.2241 87.0074 38.3596 86.7613 39.8407 86.7613H41.8155V85.9738C41.8155 84.5956 41.0749 83.9065 39.6432 83.9065C39.0014 83.9065 38.4584 84.0542 38.0634 84.3003C37.6685 84.5464 37.3229 84.8909 37.0267 85.3339L35.743 84.3003C36.0393 83.7588 36.533 83.2666 37.2241 82.8729C37.9153 82.4791 38.804 82.2822 39.8901 82.2822C41.1737 82.2822 42.2104 82.5775 42.951 83.2174C43.6915 83.8573 44.0371 84.7433 44.0371 85.8753V90.9943H45.3207V92.6678H43.889V92.717ZM39.3964 91.3881C40.0876 91.3881 40.68 91.2404 41.1243 90.8958C41.5686 90.6005 41.8155 90.1575 41.8155 89.6653V88.1887H39.8901C38.3596 88.1887 37.5697 88.6317 37.5697 89.5669V89.9606C37.5697 90.4036 37.7178 90.7482 38.0634 90.9943C38.409 91.2404 38.804 91.3881 39.3964 91.3881Z" fill="black"/>
<path d="M47.3945 92.7169V82.5774H49.5668V84.3001H49.6655C49.7643 84.054 49.9124 83.8079 50.0605 83.5618C50.2086 83.3157 50.4061 83.1188 50.6529 82.9219C50.8998 82.7251 51.1466 82.6266 51.4922 82.479C51.7884 82.3805 52.1834 82.3313 52.5783 82.3313C53.6151 82.3313 54.4544 82.6758 55.0468 83.3157C55.6886 84.0048 55.9848 84.94 55.9848 86.1705V92.7169H53.8126V86.5151C53.8126 84.8908 53.1214 84.1032 51.6897 84.1032C51.3935 84.1032 51.1466 84.1525 50.8998 84.2017C50.6529 84.2509 50.4061 84.3986 50.2086 84.5462C50.0111 84.6939 49.8136 84.8908 49.7149 85.0877C49.5668 85.3338 49.5174 85.5799 49.5174 85.8752V92.7661H47.3945V92.7169Z" fill="black"/>
<path d="M63.5882 92.963C62.8477 92.963 62.1565 92.8154 61.5641 92.5693C60.9716 92.3231 60.4779 91.9786 60.0336 91.4864C59.5893 90.9942 59.2931 90.4528 59.0956 89.8129C58.8981 89.173 58.75 88.4347 58.75 87.598C58.75 86.7612 58.8487 86.0721 59.0956 85.383C59.2931 84.7432 59.6386 84.1525 60.0336 83.7095C60.4286 83.2665 60.9716 82.8728 61.5641 82.6267C62.1565 82.3806 62.8477 82.2329 63.5882 82.2329C64.625 82.2329 65.4642 82.4298 66.106 82.8728C66.7478 83.3158 67.2415 83.9064 67.5378 84.5955L65.8592 85.4815C65.6617 84.9893 65.4149 84.6447 65.0199 84.3494C64.625 84.0541 64.1806 83.9556 63.5882 83.9556C62.7489 83.9556 62.1565 84.2017 61.7122 84.6939C61.2678 85.1862 61.021 85.826 61.021 86.6628V88.3855C61.021 89.173 61.2678 89.8621 61.7122 90.3543C62.1565 90.8465 62.7983 91.0926 63.6376 91.0926C64.2794 91.0926 64.7731 90.945 65.168 90.6496C65.563 90.3543 65.9086 89.9606 66.106 89.4683L67.6859 90.4528C67.3403 91.1419 66.8466 91.7325 66.2048 92.1755C65.5136 92.7169 64.625 92.963 63.5882 92.963Z" fill="black"/>
<path d="M70.7959 90.9449H74.2518V84.3001H70.7959V82.5282H76.424V90.9449H79.6824V92.7169H70.7959V90.9449ZM75.3873 80.707C74.8442 80.707 74.4492 80.6086 74.2518 80.3625C74.0543 80.1164 73.9062 79.8703 73.9062 79.5257V79.132C73.9062 78.7874 74.0049 78.5413 74.2518 78.2952C74.4986 78.0491 74.8442 77.9507 75.3873 77.9507C75.9303 77.9507 76.3253 78.0491 76.5228 78.2952C76.7202 78.5413 76.8683 78.7874 76.8683 79.132V79.5257C76.8683 79.8703 76.7696 80.1164 76.5228 80.3625C76.2759 80.6086 75.9303 80.707 75.3873 80.707Z" fill="black"/>
<path d="M90.0989 92.717C89.4571 92.717 89.0128 92.5693 88.7166 92.2248C88.4204 91.9295 88.2229 91.4865 88.1735 90.9943H88.0748C87.8773 91.6342 87.5317 92.0771 86.9887 92.4217C86.4456 92.7662 85.8038 92.9139 85.0139 92.9139C83.9771 92.9139 83.1379 92.6186 82.5454 92.0771C81.9036 91.5357 81.6074 90.7974 81.6074 89.813C81.6074 88.8286 81.953 88.0903 82.6935 87.5488C83.4341 87.0074 84.5696 86.7613 86.0507 86.7613H88.0254V85.9738C88.0254 84.5956 87.2849 83.9065 85.8532 83.9065C85.2114 83.9065 84.6683 84.0542 84.2734 84.3003C83.8784 84.5464 83.5328 84.8909 83.2366 85.3339L81.953 84.3003C82.2492 83.7588 82.7429 83.2666 83.4341 82.8729C84.1253 82.4791 85.0139 82.2822 86.1 82.2822C87.3836 82.2822 88.4204 82.5775 89.1609 83.2174C89.9015 83.8573 90.2471 84.7433 90.2471 85.8753V90.9943H91.5307V92.6678H90.0989V92.717ZM85.6063 91.3881C86.2975 91.3881 86.8899 91.2404 87.3343 90.8958C87.7786 90.6005 88.0254 90.1575 88.0254 89.6653V88.1887H86.1C84.5696 88.1887 83.7797 88.6317 83.7797 89.5669V89.9606C83.7797 90.4036 83.9278 90.7482 84.2734 90.9943C84.5696 91.2896 85.0139 91.3881 85.6063 91.3881Z" fill="black"/>
<path d="M93.4072 90.945H96.7643V79.8703H93.4072V78.0984H98.9366V90.8958H102.294V92.6677H93.4072V90.945Z" fill="black"/>
<path d="M6.51676 103.939V115.851H4.3445V103.939H0V102.069H10.8613V103.939H6.51676Z" fill="black"/>
<path d="M17.1806 116.097C16.3907 116.097 15.6996 115.949 15.1071 115.703C14.4653 115.457 13.9716 115.112 13.5273 114.62C13.083 114.177 12.7868 113.587 12.5399 112.947C12.2931 112.307 12.1943 111.569 12.1943 110.732C12.1943 109.895 12.2931 109.206 12.5399 108.517C12.7868 107.877 13.083 107.286 13.5273 106.843C13.9223 106.4 14.4653 106.007 15.0578 105.76C15.6502 105.514 16.292 105.367 17.0325 105.367C17.7237 105.367 18.3655 105.465 18.9579 105.711C19.5504 105.957 20.0441 106.302 20.439 106.745C20.834 107.188 21.1796 107.729 21.377 108.32C21.5745 108.911 21.7226 109.6 21.7226 110.387V111.175H14.416V111.519C14.416 112.307 14.6628 112.947 15.1565 113.488C15.6502 113.98 16.3414 114.226 17.23 114.226C17.8718 114.226 18.4642 114.079 18.9086 113.783C19.3529 113.488 19.7478 113.144 20.0441 112.651L21.377 113.833C21.0315 114.423 20.4884 114.916 19.7972 115.309C19.1554 115.9 18.2668 116.097 17.1806 116.097ZM17.0325 107.089C16.6376 107.089 16.292 107.139 15.9958 107.286C15.6502 107.434 15.4033 107.582 15.1565 107.828C14.9097 108.074 14.7615 108.369 14.6134 108.664C14.4653 109.009 14.416 109.354 14.416 109.747V109.895H19.5504V109.698C19.5504 108.911 19.3035 108.271 18.8592 107.779C18.4149 107.336 17.7731 107.089 17.0325 107.089Z" fill="black"/>
<path d="M28.93 116.097C28.1895 116.097 27.4983 115.949 26.9059 115.703C26.3134 115.457 25.8197 115.112 25.3754 114.62C24.9311 114.128 24.6349 113.587 24.4374 112.947C24.2399 112.307 24.0918 111.569 24.0918 110.732C24.0918 109.895 24.1905 109.206 24.4374 108.517C24.6349 107.877 24.9804 107.286 25.3754 106.843C25.7704 106.4 26.3134 106.007 26.9059 105.76C27.4983 105.514 28.1895 105.367 28.93 105.367C29.9668 105.367 30.806 105.564 31.4478 106.007C32.0896 106.45 32.5833 107.04 32.8795 107.729L31.201 108.615C31.0035 108.123 30.7567 107.779 30.3617 107.483C29.9668 107.188 29.5224 107.089 28.93 107.089C28.0907 107.089 27.4983 107.336 27.054 107.828C26.6096 108.32 26.3628 108.96 26.3628 109.797V111.519C26.3628 112.307 26.6096 112.996 27.054 113.488C27.4983 113.98 28.1401 114.226 28.9794 114.226C29.6212 114.226 30.1149 114.079 30.5098 113.783C30.9048 113.488 31.2504 113.094 31.4478 112.602L33.0277 113.587C32.6821 114.276 32.1884 114.866 31.5466 115.309C30.8554 115.851 29.9668 116.097 28.93 116.097Z" fill="black"/>
<path d="M35.8423 101.281H38.0146V107.434H38.1133C38.2121 107.188 38.3602 106.942 38.5083 106.696C38.6564 106.449 38.8539 106.253 39.1007 106.056C39.3476 105.859 39.5944 105.76 39.94 105.613C40.2362 105.514 40.6312 105.465 41.0261 105.465C42.0629 105.465 42.9022 105.81 43.4946 106.449C44.1364 107.139 44.4326 108.074 44.4326 109.304V115.851H42.2604V109.649C42.2604 108.024 41.5692 107.237 40.1375 107.237C39.8413 107.237 39.5944 107.286 39.3476 107.335C39.1007 107.385 38.8539 107.532 38.6564 107.68C38.4589 107.828 38.2614 108.024 38.1627 108.221C38.0146 108.467 37.9652 108.714 37.9652 109.009V115.9H35.793V101.281H35.8423Z" fill="black"/>
<path d="M47.3945 115.851V105.711H49.5668V107.434H49.6655C49.7643 107.188 49.9124 106.942 50.0605 106.696C50.2086 106.45 50.4061 106.253 50.6529 106.056C50.8998 105.859 51.1466 105.76 51.4922 105.613C51.7884 105.514 52.1834 105.465 52.5783 105.465C53.6151 105.465 54.4544 105.81 55.0468 106.45C55.6886 107.139 55.9848 108.074 55.9848 109.304V115.851H53.8126V109.649C53.8126 108.025 53.1214 107.237 51.6897 107.237C51.3935 107.237 51.1466 107.286 50.8998 107.335C50.6529 107.385 50.4061 107.532 50.2086 107.68C50.0111 107.828 49.8136 108.025 49.7149 108.221C49.5668 108.468 49.5174 108.714 49.5174 109.009V115.9H47.3945V115.851Z" fill="black"/>
<path d="M63.1927 116.097C62.4521 116.097 61.761 115.949 61.1685 115.703C60.5761 115.457 60.0824 115.112 59.6381 114.62C59.2431 114.177 58.8976 113.587 58.7001 112.947C58.4532 112.307 58.3545 111.569 58.3545 110.732C58.3545 109.895 58.4532 109.206 58.7001 108.517C58.9469 107.877 59.2431 107.286 59.6381 106.843C60.0331 106.4 60.5761 106.007 61.1685 105.76C61.761 105.514 62.4521 105.367 63.1927 105.367C63.9332 105.367 64.6244 105.514 65.2168 105.76C65.8093 106.007 66.303 106.351 66.7473 106.843C67.1422 107.286 67.4878 107.877 67.6853 108.517C67.9322 109.157 68.0309 109.895 68.0309 110.732C68.0309 111.569 67.9322 112.258 67.6853 112.947C67.4385 113.587 67.1422 114.177 66.7473 114.62C66.3523 115.063 65.8093 115.457 65.2168 115.703C64.6244 115.949 63.9332 116.097 63.1927 116.097ZM63.1927 114.374C63.9826 114.374 64.6244 114.128 65.0687 113.636C65.5131 113.144 65.7599 112.454 65.7599 111.519V109.993C65.7599 109.058 65.5131 108.32 65.0687 107.877C64.6244 107.385 63.9826 107.139 63.1927 107.139C62.4028 107.139 61.761 107.385 61.3167 107.877C60.8723 108.369 60.6255 109.058 60.6255 109.993V111.519C60.6255 112.454 60.8723 113.193 61.3167 113.636C61.761 114.177 62.4028 114.374 63.1927 114.374Z" fill="black"/>
<path d="M70.3018 114.079H73.6589V103.004H70.3018V101.232H75.8311V114.03H79.1882V115.801H70.3018V114.079Z" fill="black"/>
<path d="M86.2972 116.097C85.5566 116.097 84.8655 115.949 84.273 115.703C83.6806 115.457 83.1869 115.112 82.7426 114.62C82.2983 114.128 82.002 113.587 81.8046 112.947C81.5577 112.307 81.459 111.569 81.459 110.732C81.459 109.895 81.5577 109.206 81.8046 108.517C82.0514 107.877 82.3476 107.286 82.7426 106.843C83.1375 106.4 83.6806 106.007 84.273 105.76C84.8655 105.514 85.5566 105.367 86.2972 105.367C87.0377 105.367 87.7289 105.514 88.3213 105.76C88.9138 106.007 89.4075 106.351 89.8518 106.843C90.2961 107.336 90.5923 107.877 90.7898 108.517C91.0366 109.157 91.1354 109.895 91.1354 110.732C91.1354 111.569 91.0366 112.258 90.7898 112.947C90.543 113.587 90.2467 114.177 89.8518 114.62C89.4568 115.063 88.9138 115.457 88.3213 115.703C87.7289 115.949 87.0377 116.097 86.2972 116.097ZM86.2972 114.374C87.0871 114.374 87.7289 114.128 88.1732 113.636C88.6176 113.144 88.8644 112.454 88.8644 111.519V109.993C88.8644 109.058 88.6176 108.32 88.1732 107.877C87.7289 107.385 87.0871 107.139 86.2972 107.139C85.5073 107.139 84.8655 107.385 84.4211 107.877C83.9768 108.369 83.73 109.058 83.73 109.993V111.519C83.73 112.454 83.9768 113.193 84.4211 113.636C84.8655 114.177 85.5073 114.374 86.2972 114.374Z" fill="black"/>
<path d="M103.182 116.934C103.182 117.967 102.738 118.755 101.849 119.247C100.961 119.739 99.6277 119.985 97.801 119.985C96.9123 119.985 96.1718 119.936 95.5794 119.838C94.9869 119.739 94.4932 119.542 94.0983 119.345C93.7033 119.148 93.4565 118.902 93.3084 118.558C93.1603 118.263 93.0615 117.918 93.0615 117.524C93.0615 116.983 93.2096 116.54 93.5058 116.244C93.8021 115.949 94.2464 115.703 94.8388 115.555V115.358C94.4932 115.211 94.2464 115.063 93.9995 114.817C93.8021 114.571 93.7033 114.276 93.7033 113.882C93.7033 113.39 93.8514 112.996 94.197 112.75C94.5426 112.504 94.9869 112.307 95.53 112.159V112.061C94.8882 111.765 94.4439 111.372 94.0983 110.83C93.7527 110.289 93.6046 109.698 93.6046 108.96C93.6046 108.418 93.7033 107.926 93.9008 107.483C94.0983 107.04 94.3945 106.646 94.7401 106.351C95.0857 106.056 95.53 105.81 96.0237 105.613C96.5174 105.465 97.1098 105.367 97.7516 105.367C98.4428 105.367 99.0846 105.465 99.677 105.711V105.367C99.677 104.973 99.7758 104.628 100.023 104.382C100.269 104.136 100.566 103.989 101.059 103.989H102.935V105.662H100.566V106.154C101.01 106.45 101.356 106.843 101.602 107.286C101.849 107.729 101.948 108.271 101.948 108.911C101.948 109.452 101.849 109.944 101.652 110.387C101.454 110.83 101.158 111.224 100.813 111.519C100.467 111.815 100.023 112.061 99.5289 112.208C99.0352 112.356 98.4428 112.454 97.801 112.454C97.3567 112.454 96.9123 112.405 96.5174 112.356C96.2705 112.405 96.0237 112.553 95.8262 112.701C95.5794 112.848 95.4806 113.094 95.4806 113.34C95.4806 113.636 95.6287 113.833 95.925 113.931C96.2212 114.03 96.6161 114.03 97.0604 114.03H99.3314C100.714 114.03 101.701 114.276 102.294 114.817C102.886 115.358 103.182 116.097 103.182 116.934ZM101.158 117.081C101.158 116.737 101.01 116.441 100.763 116.244C100.467 116.048 99.9732 115.949 99.2821 115.949H95.7275C95.2338 116.195 94.9869 116.589 94.9869 117.081C94.9869 117.475 95.135 117.82 95.4806 118.066C95.8262 118.361 96.3199 118.459 97.1098 118.459H98.6896C99.5289 118.459 100.121 118.361 100.566 118.115C100.961 117.918 101.158 117.524 101.158 117.081ZM97.7516 111.076C98.4428 111.076 98.9859 110.929 99.2821 110.584C99.6277 110.24 99.7758 109.797 99.7758 109.255V108.714C99.7758 108.172 99.6277 107.729 99.2821 107.385C98.9365 107.04 98.4428 106.893 97.7516 106.893C97.0604 106.893 96.5174 107.04 96.2212 107.385C95.9249 107.729 95.7275 108.172 95.7275 108.714V109.255C95.7275 109.797 95.8756 110.24 96.2212 110.584C96.5667 110.929 97.0604 111.076 97.7516 111.076Z" fill="black"/>
<path d="M105.453 114.079H108.909V107.434H105.453V105.662H111.081V114.079H114.34V115.851H105.453V114.079ZM110.044 103.841C109.501 103.841 109.106 103.742 108.909 103.496C108.712 103.25 108.563 103.004 108.563 102.66V102.266C108.563 101.921 108.662 101.675 108.909 101.429C109.106 101.183 109.501 101.084 110.044 101.084C110.588 101.084 110.982 101.183 111.18 101.429C111.377 101.675 111.526 101.921 111.526 102.266V102.66C111.526 103.004 111.427 103.25 111.18 103.496C110.933 103.742 110.588 103.841 110.044 103.841Z" fill="black"/>
<path d="M121.152 116.097C120.362 116.097 119.671 115.949 119.079 115.703C118.437 115.457 117.943 115.112 117.499 114.62C117.055 114.128 116.758 113.587 116.512 112.947C116.265 112.307 116.166 111.569 116.166 110.732C116.166 109.895 116.265 109.206 116.512 108.517C116.758 107.877 117.055 107.286 117.499 106.843C117.894 106.4 118.437 106.007 119.029 105.76C119.622 105.514 120.264 105.367 121.004 105.367C121.695 105.367 122.337 105.465 122.93 105.711C123.522 105.957 124.016 106.302 124.411 106.745C124.806 107.188 125.151 107.729 125.349 108.32C125.546 108.96 125.694 109.6 125.694 110.387V111.175H118.388V111.519C118.388 112.307 118.634 112.947 119.128 113.488C119.622 113.98 120.313 114.226 121.202 114.226C121.843 114.226 122.436 114.079 122.88 113.783C123.325 113.488 123.72 113.144 124.016 112.651L125.349 113.833C125.003 114.423 124.46 114.916 123.769 115.309C123.078 115.9 122.238 116.097 121.152 116.097ZM121.004 107.089C120.609 107.089 120.264 107.139 119.967 107.286C119.622 107.434 119.375 107.582 119.128 107.828C118.881 108.074 118.733 108.369 118.585 108.664C118.437 109.009 118.388 109.354 118.388 109.747V109.895H123.522V109.698C123.522 108.911 123.275 108.271 122.831 107.779C122.387 107.336 121.745 107.089 121.004 107.089Z" fill="black"/>
<path d="M132.508 116.097C131.421 116.097 130.434 115.9 129.644 115.555C128.854 115.211 128.212 114.719 127.719 114.128L129.052 112.947C129.496 113.439 129.99 113.783 130.582 114.079C131.125 114.325 131.816 114.473 132.557 114.473C133.248 114.473 133.841 114.374 134.235 114.128C134.68 113.882 134.877 113.537 134.877 113.045C134.877 112.848 134.828 112.651 134.779 112.504C134.68 112.356 134.581 112.258 134.433 112.159C134.285 112.061 134.137 112.011 133.939 111.962C133.742 111.913 133.544 111.864 133.347 111.864L131.718 111.618C131.323 111.568 130.928 111.47 130.533 111.372C130.138 111.273 129.743 111.076 129.447 110.879C129.101 110.683 128.854 110.387 128.657 110.043C128.459 109.698 128.361 109.255 128.361 108.763C128.361 107.729 128.755 106.942 129.545 106.4C130.335 105.859 131.372 105.613 132.705 105.613C133.643 105.613 134.482 105.76 135.174 106.056C135.865 106.351 136.457 106.745 136.901 107.237L135.717 108.517C135.47 108.221 135.075 107.926 134.581 107.68C134.087 107.434 133.446 107.286 132.656 107.286C131.224 107.286 130.483 107.729 130.483 108.664C130.483 109.107 130.632 109.403 130.928 109.55C131.224 109.698 131.619 109.846 132.014 109.895L133.643 110.141C134.038 110.19 134.433 110.289 134.877 110.387C135.272 110.486 135.618 110.633 135.963 110.879C136.309 111.076 136.556 111.372 136.753 111.716C136.951 112.061 137.05 112.504 137.05 112.996C137.05 114.03 136.655 114.817 135.865 115.408C135.025 115.801 133.939 116.097 132.508 116.097Z" fill="black"/>
</g>
<defs>
<clipPath id="clip0_401_4262">
<rect width="137" height="120" fill="white"/>
</clipPath>
</defs>
</svg>
