<svg width="85" height="85" viewBox="0 0 85 85" fill="none" xmlns="http://www.w3.org/2000/svg">
<path d="M66.4062 34.5312L62.1748 42.5L53.125 43.5997L59.7656 49.5842L58.4375 58.4375L66.4062 53.457L74.375 58.4375L73.0469 49.5842L79.6875 43.5997L70.3906 42.5L66.4062 34.5312Z" fill="#1D4BEF"/>
<path d="M56.8809 35.6309L66.4062 26.1216L75.9342 35.6363L79.6875 31.875L66.4062 18.5938L53.125 31.875L56.8809 35.6309Z" fill="#1D4BEF"/>
<path d="M56.8809 22.3497L66.4062 12.8403L75.9342 22.355L79.6875 18.5938L66.4062 5.3125L53.125 18.5938L56.8809 22.3497Z" fill="#1D4BEF"/>
<path d="M42.5 79.6875H37.1875V66.4062C37.1852 64.2935 36.3449 62.268 34.8509 60.7741C33.357 59.2801 31.3315 58.4398 29.2188 58.4375H18.5938C16.481 58.4398 14.4555 59.2801 12.9616 60.7741C11.4676 62.268 10.6273 64.2935 10.625 66.4062V79.6875H5.3125V66.4062C5.31665 62.8851 6.71725 59.5094 9.20707 57.0196C11.6969 54.5298 15.0726 53.1291 18.5938 53.125H29.2188C32.7399 53.1291 36.1156 54.5298 38.6054 57.0196C41.0952 59.5094 42.4959 62.8851 42.5 66.4062V79.6875Z" fill="#1D4BEF"/>
<path d="M23.9062 26.5625C25.4823 26.5625 27.023 27.0299 28.3335 27.9055C29.6439 28.7811 30.6653 30.0256 31.2684 31.4817C31.8716 32.9378 32.0294 34.5401 31.7219 36.0859C31.4144 37.6317 30.6555 39.0516 29.541 40.166C28.4266 41.2805 27.0067 42.0394 25.4609 42.3469C23.9151 42.6544 22.3128 42.4966 20.8567 41.8934C19.4006 41.2903 18.1561 40.2689 17.2805 38.9585C16.4049 37.648 15.9375 36.1073 15.9375 34.5312C15.9375 32.4178 16.7771 30.3909 18.2715 28.8965C19.7659 27.4021 21.7928 26.5625 23.9062 26.5625ZM23.9062 21.25C21.2795 21.25 18.7117 22.0289 16.5276 23.4883C14.3435 24.9477 12.6412 27.0219 11.636 29.4487C10.6307 31.8756 10.3677 34.546 10.8802 37.1223C11.3927 39.6986 12.6576 42.0651 14.515 43.9225C16.3724 45.7799 18.7389 47.0448 21.3152 47.5573C23.8915 48.0698 26.5619 47.8068 28.9888 46.8015C31.4156 45.7963 33.4898 44.094 34.9492 41.9099C36.4086 39.7258 37.1875 37.158 37.1875 34.5312C37.1875 32.7871 36.844 31.0601 36.1765 29.4487C35.5091 27.8374 34.5308 26.3733 33.2975 25.14C32.0642 23.9067 30.6001 22.9284 28.9888 22.261C27.3774 21.5935 25.6504 21.25 23.9062 21.25Z" fill="#1D4BEF"/>
</svg>
