<svg width="85" height="85" viewBox="0 0 85 85" fill="none" xmlns="http://www.w3.org/2000/svg">
<path d="M26.5625 79.6875H21.25V71.7188H10.625V79.6875H5.3125V71.7188C5.31412 70.3103 5.87434 68.96 6.87028 67.964C7.86622 66.9681 9.21653 66.4079 10.625 66.4062H21.25C22.6585 66.4079 24.0088 66.9681 25.0047 67.964C26.0007 68.96 26.5609 70.3103 26.5625 71.7188V79.6875Z" fill="#1D4BEF"/>
<path d="M79.6875 79.6875H74.375V71.7188H63.75V79.6875H58.4375V71.7188C58.4391 70.3103 58.9993 68.96 59.9953 67.964C60.9912 66.9681 62.3415 66.4079 63.75 66.4062H74.375C75.7835 66.4079 77.1338 66.9681 78.1297 67.964C79.1257 68.96 79.6859 70.3103 79.6875 71.7188V79.6875Z" fill="#1D4BEF"/>
<path d="M53.125 79.6875H47.8125V71.7188H37.1875V79.6875H31.875V71.7188C31.8766 70.3103 32.4368 68.96 33.4328 67.964C34.4287 66.9681 35.779 66.4079 37.1875 66.4062H47.8125C49.221 66.4079 50.5713 66.9681 51.5672 67.964C52.5632 68.96 53.1234 70.3103 53.125 71.7188V79.6875Z" fill="#1D4BEF"/>
<path d="M42.5 63.75C45.434 63.75 47.8125 61.3715 47.8125 58.4375C47.8125 55.5035 45.434 53.125 42.5 53.125C39.566 53.125 37.1875 55.5035 37.1875 58.4375C37.1875 61.3715 39.566 63.75 42.5 63.75Z" fill="#1D4BEF"/>
<path d="M15.9375 63.75C18.8715 63.75 21.25 61.3715 21.25 58.4375C21.25 55.5035 18.8715 53.125 15.9375 53.125C13.0035 53.125 10.625 55.5035 10.625 58.4375C10.625 61.3715 13.0035 63.75 15.9375 63.75Z" fill="#1D4BEF"/>
<path d="M69.0625 63.75C71.9965 63.75 74.375 61.3715 74.375 58.4375C74.375 55.5035 71.9965 53.125 69.0625 53.125C66.1285 53.125 63.75 55.5035 63.75 58.4375C63.75 61.3715 66.1285 63.75 69.0625 63.75Z" fill="#1D4BEF"/>
<path d="M55.7812 53.125C58.7153 53.125 61.0938 50.7465 61.0938 47.8125C61.0938 44.8785 58.7153 42.5 55.7812 42.5C52.8472 42.5 50.4688 44.8785 50.4688 47.8125C50.4688 50.7465 52.8472 53.125 55.7812 53.125Z" fill="#1D4BEF"/>
<path d="M29.2188 53.125C32.1528 53.125 34.5312 50.7465 34.5312 47.8125C34.5312 44.8785 32.1528 42.5 29.2188 42.5C26.2847 42.5 23.9062 44.8785 23.9062 47.8125C23.9062 50.7465 26.2847 53.125 29.2188 53.125Z" fill="#1D4BEF"/>
<path d="M69.0625 37.1875H15.9375C14.529 37.1859 13.1787 36.6257 12.1828 35.6297C11.1868 34.6338 10.6266 33.2835 10.625 31.875V10.625C10.6266 9.21653 11.1868 7.86622 12.1828 6.87028C13.1787 5.87434 14.529 5.31412 15.9375 5.3125H69.0625C70.471 5.31412 71.8213 5.87434 72.8172 6.87028C73.8132 7.86622 74.3734 9.21653 74.375 10.625V31.875C74.3734 33.2835 73.8132 34.6338 72.8172 35.6297C71.8213 36.6257 70.471 37.1859 69.0625 37.1875ZM15.9375 10.625V31.875H69.0625V10.625H15.9375Z" fill="#1D4BEF"/>
</svg>
